# Blender 4.3.2
# www.blender.org
mtllib V1_Energy.mtl
o Icosphere
v 0.058207 -0.065691 -0.461191
v 0.108403 -0.027344 -0.424722
v 0.039034 -0.027344 -0.402182
v -0.003840 -0.027344 -0.461191
v 0.039034 -0.027344 -0.520201
v 0.108403 -0.027344 -0.497661
v 0.077380 0.034703 -0.402182
v 0.008010 0.034703 -0.424722
v 0.008010 0.034703 -0.497661
v 0.077380 0.034703 -0.520201
v 0.120254 0.034703 -0.461191
v 0.058207 0.073050 -0.461191
v 0.062315 0.076735 -0.448546
v 0.047450 0.076735 -0.453376
v 0.047450 0.076735 -0.469006
v 0.062315 0.076735 -0.473836
v 0.071503 0.076735 -0.461191
v 0.058207 0.087696 -0.461191
v 0.062315 0.069784 -0.448546
v 0.047450 0.069784 -0.453376
v 0.047450 0.069784 -0.469006
v 0.062315 0.069784 -0.473836
v 0.071503 0.069784 -0.461191
v 0.064199 0.067159 -0.442749
v 0.042518 0.067159 -0.449793
v 0.042518 0.067159 -0.472589
v 0.064199 0.067159 -0.479634
v 0.077599 0.067159 -0.461191
v 0.064199 0.060324 -0.442749
v 0.042518 0.060324 -0.449793
v 0.042518 0.060324 -0.472589
v 0.064199 0.060324 -0.479634
v 0.077599 0.060324 -0.461191
v 0.054098 -0.067985 -0.448546
v 0.068963 -0.067985 -0.453376
v 0.068963 -0.067985 -0.469006
v 0.054098 -0.067985 -0.473836
v 0.044911 -0.067985 -0.461191
v 0.058207 -0.078946 -0.461191
v 0.054098 -0.061034 -0.448546
v 0.068963 -0.061034 -0.453376
v 0.068963 -0.061034 -0.469006
v 0.054098 -0.061034 -0.473836
v 0.044911 -0.061034 -0.461191
v 0.052214 -0.058409 -0.442748
v 0.073895 -0.058409 -0.449793
v 0.073895 -0.058409 -0.472589
v 0.052214 -0.058409 -0.479634
v 0.038815 -0.058409 -0.461191
v 0.052214 -0.051574 -0.442748
v 0.073895 -0.051574 -0.449793
v 0.073895 -0.051574 -0.472589
v 0.052214 -0.051574 -0.479634
v 0.038815 -0.051574 -0.461191
vn 0.1876 -0.7947 0.5774
vn 0.6071 -0.7947 -0.0000
vn -0.4911 -0.7947 0.3568
vn -0.4911 -0.7947 -0.3568
vn 0.1876 -0.7947 -0.5774
vn 0.9822 -0.1876 -0.0000
vn 0.3035 -0.1876 0.9342
vn -0.7946 -0.1876 0.5774
vn -0.7946 -0.1876 -0.5774
vn 0.3035 -0.1876 -0.9342
vn 0.7946 0.1876 0.5774
vn -0.3035 0.1876 0.9342
vn -0.9822 0.1876 -0.0000
vn -0.3035 0.1876 -0.9342
vn 0.7946 0.1876 -0.5774
vn 0.4911 0.7947 0.3568
vn -0.1876 0.7947 0.5774
vn -0.6071 0.7947 -0.0000
vn -0.1876 0.7947 -0.5774
vn 0.4911 0.7947 -0.3568
vn 0.5774 0.7004 0.4195
vn -0.2206 0.7004 0.6788
vn -0.7137 0.7004 -0.0000
vn -0.2206 0.7004 -0.6788
vn 0.5774 0.7004 -0.4195
vn 0.8090 -0.0000 -0.5878
vn -1.0000 -0.0000 -0.0000
vn 0.8090 -0.0000 0.5878
vn -0.3090 -0.0000 -0.9511
vn -0.3090 -0.0000 0.9511
vn -0.1452 0.8828 -0.4468
vn -0.1452 0.8828 0.4468
vn 0.3801 0.8828 -0.2762
vn -0.4698 0.8828 -0.0000
vn 0.3801 0.8828 0.2762
vn -0.5774 -0.7004 0.4195
vn 0.2206 -0.7004 0.6788
vn 0.7137 -0.7004 -0.0000
vn 0.2206 -0.7004 -0.6788
vn -0.5774 -0.7004 -0.4195
vn -0.8090 -0.0000 -0.5878
vn 1.0000 -0.0000 -0.0000
vn -0.8090 -0.0000 0.5878
vn 0.3090 -0.0000 -0.9511
vn 0.3090 -0.0000 0.9511
vn 0.1452 -0.8828 -0.4468
vn 0.1452 -0.8828 0.4468
vn -0.3801 -0.8828 -0.2762
vn 0.4698 -0.8828 -0.0000
vn -0.3801 -0.8828 0.2762
vt 0.181819 0.000000
vt 0.272728 0.157461
vt 0.090910 0.157461
vt 0.363637 0.000000
vt 0.454546 0.157461
vt 0.909091 0.000000
vt 1.000000 0.157461
vt 0.818182 0.157461
vt 0.727273 0.000000
vt 0.636364 0.157461
vt 0.545455 0.000000
vt 0.363637 0.314921
vt 0.181819 0.314921
vt 0.909091 0.314921
vt 0.727273 0.314921
vt 0.545455 0.314921
vt 0.000000 0.314921
vt 0.272728 0.472382
vt 0.090910 0.472382
vt 0.818182 0.472382
vt 0.636364 0.472382
vt 0.454546 0.472382
s 0
usemtl Material.009
f 1/1/1 2/2/1 3/3/1
f 2/2/2 1/4/2 6/5/2
f 1/6/3 3/7/3 4/8/3
f 1/9/4 4/8/4 5/10/4
f 1/11/5 5/10/5 6/5/5
f 2/2/6 6/5/6 11/12/6
f 3/3/7 2/2/7 7/13/7
f 4/8/8 3/7/8 8/14/8
f 5/10/9 4/8/9 9/15/9
f 6/5/10 5/10/10 10/16/10
f 2/2/11 11/12/11 7/13/11
f 3/3/12 7/13/12 8/17/12
f 4/8/13 8/14/13 9/15/13
f 5/10/14 9/15/14 10/16/14
f 6/5/15 10/16/15 11/12/15
f 7/13/16 11/12/16 12/18/16
f 8/17/17 7/13/17 12/19/17
f 9/15/18 8/14/18 12/20/18
f 10/16/19 9/15/19 12/21/19
f 11/12/20 10/16/20 12/22/20
usemtl Material.001
f 13/13/21 17/12/21 18/18/21
f 14/17/22 13/13/22 18/19/22
f 15/15/23 14/14/23 18/20/23
f 16/16/24 15/15/24 18/21/24
f 17/12/25 16/16/25 18/22/25
f 16/16/26 17/12/26 23/12/26 22/16/26
f 14/14/27 15/15/27 21/15/27 20/14/27
f 17/12/28 13/13/28 19/13/28 23/12/28
f 15/15/29 16/16/29 22/16/29 21/15/29
f 13/13/30 14/17/30 20/17/30 19/13/30
f 21/15/31 22/16/31 27/16/31 26/15/31
f 19/13/32 20/17/32 25/17/32 24/13/32
f 22/16/33 23/12/33 28/12/33 27/16/33
f 20/14/34 21/15/34 26/15/34 25/14/34
f 23/12/35 19/13/35 24/13/35 28/12/35
f 27/16/26 28/12/26 33/12/26 32/16/26
f 25/14/27 26/15/27 31/15/27 30/14/27
f 28/12/28 24/13/28 29/13/28 33/12/28
f 26/15/29 27/16/29 32/16/29 31/15/29
f 24/13/30 25/17/30 30/17/30 29/13/30
f 34/13/36 38/12/36 39/18/36
f 35/17/37 34/13/37 39/19/37
f 36/15/38 35/14/38 39/20/38
f 37/16/39 36/15/39 39/21/39
f 38/12/40 37/16/40 39/22/40
f 37/16/41 38/12/41 44/12/41 43/16/41
f 35/14/42 36/15/42 42/15/42 41/14/42
f 38/12/43 34/13/43 40/13/43 44/12/43
f 36/15/44 37/16/44 43/16/44 42/15/44
f 34/13/45 35/17/45 41/17/45 40/13/45
f 42/15/46 43/16/46 48/16/46 47/15/46
f 40/13/47 41/17/47 46/17/47 45/13/47
f 43/16/48 44/12/48 49/12/48 48/16/48
f 41/14/49 42/15/49 47/15/49 46/14/49
f 44/12/50 40/13/50 45/13/50 49/12/50
f 48/16/41 49/12/41 54/12/41 53/16/41
f 46/14/42 47/15/42 52/15/42 51/14/42
f 49/12/43 45/13/43 50/13/43 54/12/43
f 47/15/44 48/16/44 53/16/44 52/15/44
f 45/13/45 46/17/45 51/17/45 50/13/45
o Icosphere.001
v 0.058207 -0.059656 -0.461191
v 0.058207 -0.071726 -0.461191
v 0.104036 -0.024645 -0.427895
v 0.112770 -0.030043 -0.421549
v 0.040702 -0.024645 -0.407316
v 0.037366 -0.030043 -0.397048
v 0.001558 -0.024645 -0.461191
v -0.009238 -0.030043 -0.461191
v 0.040702 -0.024645 -0.515067
v 0.037366 -0.030043 -0.525335
v 0.104036 -0.024645 -0.494488
v 0.112770 -0.030043 -0.500834
v 0.075712 0.032004 -0.407316
v 0.079048 0.037402 -0.397048
v 0.012377 0.032004 -0.427895
v 0.003643 0.037402 -0.421549
v 0.012377 0.032004 -0.494488
v 0.003643 0.037402 -0.500834
v 0.075712 0.032004 -0.515067
v 0.079048 0.037402 -0.525335
v 0.114855 0.032004 -0.461191
v 0.125652 0.037402 -0.461191
v 0.058207 0.067015 -0.461191
v 0.058207 0.079086 -0.461191
v 0.061171 -0.058363 -0.452069
v 0.096980 -0.031008 -0.426053
v 0.047493 -0.031008 -0.409973
v 0.103607 -0.031008 -0.435175
v 0.067799 -0.058363 -0.461191
v 0.103607 -0.031008 -0.487207
v 0.050447 -0.058363 -0.455553
v 0.036769 -0.031008 -0.413458
v 0.006184 -0.031008 -0.455553
v 0.050447 -0.058363 -0.466829
v 0.006184 -0.031008 -0.466829
v 0.036769 -0.031008 -0.508925
v 0.061171 -0.058363 -0.470314
v 0.047493 -0.031008 -0.512409
v 0.096980 -0.031008 -0.496330
v 0.109536 -0.021416 -0.435175
v 0.109536 -0.021416 -0.487208
v 0.117989 0.022847 -0.461191
v 0.049325 -0.021416 -0.404335
v 0.098811 -0.021416 -0.420415
v 0.076680 0.022847 -0.404335
v 0.001388 -0.021416 -0.452069
v 0.031973 -0.021416 -0.409973
v 0.009842 0.022847 -0.426053
v 0.031973 -0.021416 -0.512409
v 0.001388 -0.021416 -0.470313
v 0.009842 0.022847 -0.496330
v 0.098811 -0.021416 -0.501968
v 0.049325 -0.021416 -0.518047
v 0.076680 0.022847 -0.518047
v 0.106571 -0.015488 -0.426053
v 0.115025 0.028775 -0.452069
v 0.084440 0.028775 -0.409973
v 0.039733 -0.015488 -0.404335
v 0.067088 0.028775 -0.404335
v 0.017602 0.028775 -0.420415
v -0.001576 -0.015487 -0.461191
v 0.006878 0.028775 -0.435175
v 0.006878 0.028775 -0.487208
v 0.039733 -0.015488 -0.518047
v 0.017602 0.028775 -0.501968
v 0.067088 0.028775 -0.518047
v 0.106571 -0.015488 -0.496330
v 0.084440 0.028775 -0.512409
v 0.115025 0.028775 -0.470313
v 0.079644 0.038367 -0.413458
v 0.110229 0.038367 -0.455553
v 0.065967 0.065723 -0.455553
v 0.019434 0.038367 -0.426053
v 0.068920 0.038367 -0.409973
v 0.055243 0.065723 -0.452069
v 0.012806 0.038367 -0.487207
v 0.012806 0.038367 -0.435175
v 0.048615 0.065723 -0.461191
v 0.068920 0.038367 -0.512409
v 0.019434 0.038367 -0.496330
v 0.055243 0.065723 -0.470314
v 0.110229 0.038367 -0.466829
v 0.079644 0.038367 -0.508925
v 0.065967 0.065723 -0.466829
vn -0.6507 0.7520 0.1049
vn -0.2046 -0.5205 0.8290
vn -0.3083 0.0672 -0.9489
vn 0.0324 -0.9945 0.0996
vn 0.5881 0.7520 -0.2976
vn 0.6528 -0.5205 0.5504
vn -0.1013 0.7520 -0.6513
vn 0.7252 -0.5205 -0.4508
vn -0.1013 0.7520 0.6513
vn 0.7252 -0.5205 0.4508
vn -0.9977 0.0672 -0.0000
vn 0.1047 -0.9945 -0.0000
vn -0.3008 0.7520 -0.5865
vn -0.8516 -0.5205 0.0616
vn 0.8072 0.0672 -0.5865
vn -0.0847 -0.9945 0.0615
vn 0.4648 0.7520 0.4673
vn -0.3217 -0.5205 0.7909
vn 0.4648 0.7520 -0.4673
vn -0.3217 -0.5205 -0.7909
vn 0.8072 0.0672 0.5865
vn -0.0847 -0.9945 -0.0615
vn -0.3008 0.7520 0.5865
vn -0.8516 -0.5205 -0.0616
vn 0.5881 0.7520 0.2976
vn 0.6528 -0.5205 -0.5504
vn -0.3083 0.0672 0.9489
vn 0.0324 -0.9945 -0.0996
vn -0.6507 0.7520 -0.1049
vn -0.2046 -0.5205 -0.8290
vn -0.5063 0.8623 -0.0000
vn 0.9363 0.3511 -0.0000
vn -0.7180 -0.2457 0.6513
vn 0.7899 -0.4158 0.4508
vn -0.7180 -0.2457 -0.6513
vn 0.7899 -0.4158 -0.4508
vn -0.1565 0.8623 -0.4816
vn 0.2893 0.3511 0.8905
vn -0.8413 -0.2457 -0.4816
vn -0.1846 -0.4158 0.8905
vn 0.3976 -0.2457 -0.8841
vn 0.6728 -0.4158 0.6119
vn 0.4096 0.8623 -0.2976
vn -0.7575 0.3511 0.5504
vn 0.1980 -0.2457 -0.9489
vn -0.9040 -0.4158 0.0996
vn 0.9637 -0.2457 0.1049
vn -0.3740 -0.4158 0.8290
vn 0.4096 0.8623 0.2976
vn -0.7575 0.3511 -0.5504
vn 0.9637 -0.2457 -0.1049
vn -0.3740 -0.4158 -0.8290
vn 0.1980 -0.2457 0.9489
vn -0.9040 -0.4158 -0.0996
vn -0.1565 0.8623 0.4816
vn 0.2893 0.3511 -0.8905
vn 0.3976 -0.2457 0.8841
vn 0.6728 -0.4158 -0.6119
vn -0.8413 -0.2457 0.4816
vn -0.1846 -0.4158 -0.8905
vn -0.9637 0.2457 0.1049
vn 0.3740 0.4158 0.8290
vn -0.4096 -0.8623 -0.2976
vn 0.7575 -0.3511 0.5504
vn -0.1980 0.2457 -0.9489
vn 0.9040 0.4158 0.0996
vn -0.3976 0.2457 -0.8841
vn -0.6728 0.4158 0.6119
vn 0.1565 -0.8623 -0.4816
vn -0.2893 -0.3511 0.8905
vn 0.8413 0.2457 -0.4816
vn 0.1846 0.4158 0.8905
vn 0.7180 0.2457 -0.6513
vn -0.7899 0.4158 -0.4508
vn 0.5063 -0.8623 -0.0000
vn -0.9363 -0.3511 -0.0000
vn 0.7180 0.2457 0.6513
vn -0.7899 0.4158 0.4508
vn 0.8413 0.2457 0.4816
vn 0.1846 0.4158 -0.8905
vn 0.1565 -0.8623 0.4816
vn -0.2893 -0.3511 -0.8905
vn -0.3976 0.2457 0.8841
vn -0.6728 0.4158 -0.6119
vn -0.1980 0.2457 0.9489
vn 0.9040 0.4158 -0.0996
vn -0.4096 -0.8623 0.2976
vn 0.7575 -0.3511 -0.5504
vn -0.9637 0.2457 -0.1049
vn 0.3740 0.4158 -0.8290
vn -0.8072 -0.0672 -0.5865
vn 0.0847 0.9945 0.0615
vn -0.4648 -0.7520 0.4673
vn 0.3217 0.5205 0.7909
vn 0.3008 -0.7520 -0.5865
vn 0.8516 0.5205 0.0616
vn 0.3083 -0.0672 -0.9489
vn -0.0324 0.9945 0.0996
vn -0.5881 -0.7520 -0.2976
vn -0.6528 0.5205 0.5504
vn 0.6507 -0.7520 0.1049
vn 0.2046 0.5205 0.8290
vn 0.9977 -0.0672 -0.0000
vn -0.1047 0.9945 -0.0000
vn 0.1013 -0.7520 -0.6513
vn -0.7252 0.5205 -0.4508
vn 0.1013 -0.7520 0.6513
vn -0.7252 0.5205 0.4508
vn 0.3083 -0.0672 0.9489
vn -0.0324 0.9945 -0.0996
vn 0.6507 -0.7520 -0.1049
vn 0.2046 0.5205 -0.8290
vn -0.5881 -0.7520 0.2976
vn -0.6528 0.5205 -0.5504
vn -0.8072 -0.0672 0.5865
vn 0.0847 0.9945 -0.0615
vn 0.3008 -0.7520 0.5865
vn 0.8516 0.5205 -0.0616
vn -0.4648 -0.7520 -0.4673
vn 0.3217 0.5205 -0.7909
vt 0.181819 0.000000
vt 0.272728 0.157461
vt 0.090910 0.157461
vt 0.363637 0.000000
vt 0.454546 0.157461
vt 0.909091 0.000000
vt 1.000000 0.157461
vt 0.818182 0.157461
vt 0.727273 0.000000
vt 0.636364 0.157461
vt 0.545455 0.000000
vt 0.363637 0.314921
vt 0.181819 0.314921
vt 0.909091 0.314921
vt 0.727273 0.314921
vt 0.545455 0.314921
vt 0.000000 0.314921
vt 0.272728 0.472382
vt 0.090910 0.472382
vt 0.818182 0.472382
vt 0.636364 0.472382
vt 0.454546 0.472382
s 0
usemtl Material.001
f 79/23/51 80/24/51 57/24/51 55/23/51
f 80/24/52 79/23/52 56/23/52 58/24/52
f 80/24/53 81/25/53 59/25/53 57/24/53
f 81/25/54 80/24/54 58/24/54 60/25/54
f 81/25/55 79/23/55 55/23/55 59/25/55
f 79/23/56 81/25/56 60/25/56 56/23/56
f 82/24/57 83/26/57 55/26/57 57/24/57
f 83/26/58 82/24/58 58/24/58 56/26/58
f 83/26/59 84/27/59 65/27/59 55/26/59
f 84/27/60 83/26/60 56/26/60 66/27/60
f 84/27/61 82/24/61 57/24/61 65/27/61
f 82/24/62 84/27/62 66/27/62 58/24/62
f 85/28/63 86/29/63 59/29/63 55/28/63
f 86/29/64 85/28/64 56/28/64 60/29/64
f 86/29/65 87/30/65 61/30/65 59/29/65
f 87/30/66 86/29/66 60/29/66 62/30/66
f 87/30/67 85/28/67 55/28/67 61/30/67
f 85/28/68 87/30/68 62/30/68 56/28/68
f 88/31/69 89/30/69 61/30/69 55/31/69
f 89/30/70 88/31/70 56/31/70 62/30/70
f 89/30/71 90/32/71 63/32/71 61/30/71
f 90/32/72 89/30/72 62/30/72 64/32/72
f 90/32/73 88/31/73 55/31/73 63/32/73
f 88/31/74 90/32/74 64/32/74 56/31/74
f 91/33/75 92/32/75 63/32/75 55/33/75
f 92/32/76 91/33/76 56/33/76 64/32/76
f 92/32/77 93/27/77 65/27/77 63/32/77
f 93/27/78 92/32/78 64/32/78 66/27/78
f 93/27/79 91/33/79 55/33/79 65/27/79
f 91/33/80 93/27/80 66/27/80 56/33/80
f 94/24/81 95/27/81 65/27/81 57/24/81
f 95/27/82 94/24/82 58/24/82 66/27/82
f 95/27/83 96/34/83 75/34/83 65/27/83
f 96/34/84 95/27/84 66/27/84 76/34/84
f 96/34/85 94/24/85 57/24/85 75/34/85
f 94/24/86 96/34/86 76/34/86 58/24/86
f 97/25/87 98/24/87 57/24/87 59/25/87
f 98/24/88 97/25/88 60/25/88 58/24/88
f 98/24/89 99/35/89 67/35/89 57/24/89
f 99/35/90 98/24/90 58/24/90 68/35/90
f 99/35/91 97/25/91 59/25/91 67/35/91
f 97/25/92 99/35/92 68/35/92 60/25/92
f 100/30/93 101/29/93 59/29/93 61/30/93
f 101/29/94 100/30/94 62/30/94 60/29/94
f 101/29/95 102/36/95 69/36/95 59/29/95
f 102/36/96 101/29/96 60/29/96 70/36/96
f 102/36/97 100/30/97 61/30/97 69/36/97
f 100/30/98 102/36/98 70/36/98 62/30/98
f 103/32/99 104/30/99 61/30/99 63/32/99
f 104/30/100 103/32/100 64/32/100 62/30/100
f 104/30/101 105/37/101 71/37/101 61/30/101
f 105/37/102 104/30/102 62/30/102 72/37/102
f 105/37/103 103/32/103 63/32/103 71/37/103
f 103/32/104 105/37/104 72/37/104 64/32/104
f 106/27/105 107/32/105 63/32/105 65/27/105
f 107/32/106 106/27/106 66/27/106 64/32/106
f 107/32/107 108/38/107 73/38/107 63/32/107
f 108/38/108 107/32/108 64/32/108 74/38/108
f 108/38/109 106/27/109 65/27/109 73/38/109
f 106/27/110 108/38/110 74/38/110 66/27/110
f 109/24/111 110/34/111 75/34/111 57/24/111
f 110/34/112 109/24/112 58/24/112 76/34/112
f 110/34/113 111/35/113 67/35/113 75/34/113
f 111/35/114 110/34/114 76/34/114 68/35/114
f 111/35/115 109/24/115 57/24/115 67/35/115
f 109/24/116 111/35/116 68/35/116 58/24/116
f 112/25/117 113/35/117 67/35/117 59/25/117
f 113/35/118 112/25/118 60/25/118 68/35/118
f 113/35/119 114/39/119 69/39/119 67/35/119
f 114/39/120 113/35/120 68/35/120 70/39/120
f 114/39/121 112/25/121 59/25/121 69/39/121
f 112/25/122 114/39/122 70/39/122 60/25/122
f 115/30/123 116/36/123 69/36/123 61/30/123
f 116/36/124 115/30/124 62/30/124 70/36/124
f 116/36/125 117/37/125 71/37/125 69/36/125
f 117/37/126 116/36/126 70/36/126 72/37/126
f 117/37/127 115/30/127 61/30/127 71/37/127
f 115/30/128 117/37/128 72/37/128 62/30/128
f 118/32/129 119/37/129 71/37/129 63/32/129
f 119/37/130 118/32/130 64/32/130 72/37/130
f 119/37/131 120/38/131 73/38/131 71/37/131
f 120/38/132 119/37/132 72/37/132 74/38/132
f 120/38/133 118/32/133 63/32/133 73/38/133
f 118/32/134 120/38/134 74/38/134 64/32/134
f 121/27/135 122/38/135 73/38/135 65/27/135
f 122/38/136 121/27/136 66/27/136 74/38/136
f 122/38/137 123/34/137 75/34/137 73/38/137
f 123/34/138 122/38/138 74/38/138 76/34/138
f 123/34/139 121/27/139 65/27/139 75/34/139
f 121/27/140 123/34/140 76/34/140 66/27/140
f 124/35/141 125/34/141 75/34/141 67/35/141
f 125/34/142 124/35/142 68/35/142 76/34/142
f 125/34/143 126/40/143 77/40/143 75/34/143
f 126/40/144 125/34/144 76/34/144 78/40/144
f 126/40/145 124/35/145 67/35/145 77/40/145
f 124/35/146 126/40/146 78/40/146 68/35/146
f 127/39/147 128/35/147 67/35/147 69/39/147
f 128/35/148 127/39/148 70/39/148 68/35/148
f 128/35/149 129/41/149 77/41/149 67/35/149
f 129/41/150 128/35/150 68/35/150 78/41/150
f 129/41/151 127/39/151 69/39/151 77/41/151
f 127/39/152 129/41/152 78/41/152 70/39/152
f 130/37/153 131/36/153 69/36/153 71/37/153
f 131/36/154 130/37/154 72/37/154 70/36/154
f 131/36/155 132/42/155 77/42/155 69/36/155
f 132/42/156 131/36/156 70/36/156 78/42/156
f 132/42/157 130/37/157 71/37/157 77/42/157
f 130/37/158 132/42/158 78/42/158 72/37/158
f 133/38/159 134/37/159 71/37/159 73/38/159
f 134/37/160 133/38/160 74/38/160 72/37/160
f 134/37/161 135/43/161 77/43/161 71/37/161
f 135/43/162 134/37/162 72/37/162 78/43/162
f 135/43/163 133/38/163 73/38/163 77/43/163
f 133/38/164 135/43/164 78/43/164 74/38/164
f 136/34/165 137/38/165 73/38/165 75/34/165
f 137/38/166 136/34/166 76/34/166 74/38/166
f 137/38/167 138/44/167 77/44/167 73/38/167
f 138/44/168 137/38/168 74/38/168 78/44/168
f 138/44/169 136/34/169 75/34/169 77/44/169
f 136/34/170 138/44/170 78/44/170 76/34/170
