# Blender 4.3.2
# www.blender.org
mtllib V1_Welder.mtl
o Cube.004
v -0.008559 0.244303 -0.350244
v -0.008559 0.282220 -0.350244
v -0.062944 0.208978 -1.139953
v -0.062944 0.282220 -1.139953
v 0.117328 0.244303 -0.350244
v 0.117328 0.282220 -0.350244
v 0.062944 0.208978 -1.139953
v 0.062944 0.282220 -1.139953
v -0.062944 0.282220 -1.328354
v -0.062944 0.208978 -1.328354
v 0.062944 0.208978 -1.328354
v 0.062944 0.282220 -1.328354
v 0.062944 -0.142803 -1.139953
v -0.062944 -0.142803 -1.139953
v 0.062944 -0.142803 -1.328354
v -0.062944 -0.142803 -1.328354
v 0.062944 -0.320901 -1.139953
v -0.062944 -0.320901 -1.139953
v 0.062944 -0.320901 -1.328354
v -0.062944 -0.320901 -1.328354
v 0.062944 -0.142803 -0.789694
v -0.062944 -0.142803 -0.789694
v 0.062944 -0.320901 -0.789694
v -0.062944 -0.320901 -0.789694
v 0.062944 -0.694873 -1.139953
v -0.062944 -0.694873 -1.139953
v 0.062944 -0.694873 -0.789694
v -0.062944 -0.694873 -0.789694
v -0.008559 0.244303 -0.573243
v -0.008559 0.282220 -0.573243
v 0.117328 0.244303 -0.573243
v 0.117328 0.282220 -0.573243
v -0.008559 0.167846 -0.573243
v -0.008559 0.167846 -0.350244
v 0.117328 0.167846 -0.350244
v 0.117328 0.167846 -0.573243
v 0.042964 0.282220 -0.946156
v 0.078745 0.208978 -0.946156
v 0.042964 0.208978 -0.946156
v 0.078745 0.282220 -0.946156
v 0.042964 0.244303 -0.789694
v 0.078745 0.282220 -0.789694
v 0.042964 0.282220 -0.789694
v 0.078745 0.244303 -0.789694
v 0.078745 0.023520 -0.789694
v 0.078745 0.023520 -0.946156
v 0.042964 0.023520 -0.946156
v 0.042964 0.023520 -0.789694
v -0.028495 0.208978 -1.378399
v 0.028495 0.208978 -1.378399
v 0.028495 -0.142803 -1.378399
v -0.028495 -0.142803 -1.378399
v -0.008559 -0.167653 -0.350244
v 0.117328 -0.167653 -0.350244
v -0.008559 -0.167653 -0.573243
v 0.117328 -0.167653 -0.573243
v -0.008559 -0.371807 -0.573243
v -0.008559 -0.371807 -0.350244
v 0.117328 -0.371807 -0.350244
v 0.117328 -0.371807 -0.573243
v 0.028026 -0.127413 -0.508436
v 0.028026 -0.127413 -0.415051
v 0.080743 -0.127413 -0.415051
v 0.080743 -0.127413 -0.508436
v 0.045123 -0.087365 -0.478149
v 0.045123 -0.087365 -0.445338
v 0.063645 -0.087365 -0.445338
v 0.063645 -0.087365 -0.478149
v 0.031294 0.120737 -0.502646
v 0.031294 0.120737 -0.420841
v 0.077475 0.120737 -0.420841
v 0.077475 0.120737 -0.502646
v 0.043275 0.088057 -0.481423
v 0.043275 0.088057 -0.442064
v 0.065494 0.088057 -0.442064
v 0.065494 0.088057 -0.481423
v -0.084539 -0.320901 -0.938559
v -0.084539 -0.142803 -0.938559
v -0.084539 -0.320901 -0.789694
v -0.084539 -0.142803 -0.789694
v -0.123185 -0.320901 -0.938559
v -0.123185 -0.142803 -0.938559
v -0.123185 -0.320901 -0.789694
v -0.123185 -0.142803 -0.789694
v -0.084539 0.189155 -0.789694
v -0.084539 0.189155 -0.938559
v -0.123185 0.189155 -0.789694
v -0.123185 0.189155 -0.938559
v 0.027644 -0.274037 -0.550027
v 0.027644 -0.237765 -0.550027
v 0.081125 -0.274037 -0.550027
v 0.081125 -0.237765 -0.550027
v -0.026740 -0.237765 -0.842000
v -0.026740 -0.274037 -0.842000
v 0.026740 -0.274037 -0.842000
v 0.026740 -0.237765 -0.842000
v 0.074501 -0.250751 -0.623796
v 0.021020 -0.250751 -0.623796
v 0.021020 -0.287023 -0.623796
v 0.074501 -0.287023 -0.623796
v 0.026740 -0.250751 -0.744386
v 0.026740 -0.287023 -0.744386
v -0.026740 -0.250751 -0.744386
v -0.026740 -0.287023 -0.744386
v 0.024108 -0.237765 -0.599740
v 0.024108 -0.274037 -0.599740
v 0.077589 -0.237765 -0.599740
v 0.077589 -0.274037 -0.599740
v 0.026740 -0.237765 -0.760418
v 0.026740 -0.274037 -0.760418
v -0.026740 -0.237765 -0.760418
v -0.026740 -0.274037 -0.760418
v -0.000000 0.143467 -1.462663
v -0.000000 0.152407 -1.349578
v 0.010350 0.139180 -1.462663
v 0.016671 0.145501 -1.349578
v 0.014637 0.128830 -1.462663
v 0.023577 0.128830 -1.349578
v 0.010350 0.118480 -1.462663
v 0.016671 0.112159 -1.349578
v -0.000000 0.114193 -1.462663
v -0.000000 0.105253 -1.349578
v -0.010350 0.118480 -1.462663
v -0.016671 0.112159 -1.349578
v -0.014637 0.128830 -1.462663
v -0.023577 0.128830 -1.349578
v -0.010350 0.139180 -1.462663
v -0.016671 0.145501 -1.349578
v -0.000000 0.025755 -1.462663
v -0.000000 0.034694 -1.349578
v 0.010350 0.021468 -1.462663
v 0.016671 0.027789 -1.349578
v 0.014637 0.011118 -1.462663
v 0.023577 0.011118 -1.349578
v 0.010350 0.000768 -1.462663
v 0.016671 -0.005553 -1.349578
v -0.000000 -0.003519 -1.462663
v -0.000000 -0.012459 -1.349578
v -0.010350 0.000768 -1.462663
v -0.016671 -0.005553 -1.349578
v -0.014637 0.011118 -1.462663
v -0.023577 0.011118 -1.349578
v -0.010350 0.021468 -1.462663
v -0.016671 0.027789 -1.349578
v -0.000000 0.077817 -1.401503
v -0.000000 0.077817 -1.353953
v 0.007010 0.074913 -1.401503
v 0.007010 0.074913 -1.353953
v 0.009913 0.067904 -1.401503
v 0.009913 0.067904 -1.353953
v 0.007010 0.060894 -1.401503
v 0.007010 0.060894 -1.353953
v -0.000000 0.057990 -1.401503
v -0.000000 0.057990 -1.353953
v -0.007010 0.060894 -1.401503
v -0.007010 0.060894 -1.353953
v -0.009913 0.067904 -1.401503
v -0.009913 0.067904 -1.353953
v -0.007010 0.074913 -1.401503
v -0.007010 0.074913 -1.353953
v -0.000000 0.152407 -1.462663
v 0.016671 0.145501 -1.462663
v 0.023577 0.128830 -1.462663
v 0.016671 0.112159 -1.462663
v -0.000000 0.105253 -1.462663
v -0.016671 0.112159 -1.462663
v -0.023577 0.128830 -1.462663
v -0.016671 0.145501 -1.462663
v -0.000000 0.034694 -1.462663
v 0.016671 0.027789 -1.462663
v 0.023577 0.011118 -1.462663
v 0.016671 -0.005553 -1.462663
v -0.000000 -0.012459 -1.462663
v -0.016671 -0.005553 -1.462663
v -0.023577 0.011118 -1.462663
v -0.016671 0.027789 -1.462663
v -0.000000 0.136045 -1.474646
v 0.005102 0.133932 -1.474646
v 0.007215 0.128830 -1.474646
v 0.005102 0.123728 -1.474646
v -0.000000 0.121615 -1.474646
v -0.005102 0.123728 -1.474646
v -0.007215 0.128830 -1.474646
v -0.005102 0.133932 -1.474646
v -0.000000 0.018333 -1.474646
v 0.005102 0.016219 -1.474646
v 0.007215 0.011118 -1.474646
v 0.005102 0.006016 -1.474646
v -0.000000 0.003903 -1.474646
v -0.005102 0.006016 -1.474646
v -0.007215 0.011118 -1.474646
v -0.005102 0.016219 -1.474646
v -0.000000 0.127008 -1.488010
v 0.004404 0.125184 -1.488010
v 0.006228 0.120780 -1.488010
v 0.004404 0.116376 -1.488010
v -0.000000 0.114552 -1.488010
v -0.004404 0.116376 -1.488010
v -0.006228 0.120780 -1.488010
v -0.004404 0.125184 -1.488010
v -0.000000 0.025396 -1.488010
v 0.004404 0.023572 -1.488010
v 0.006228 0.019168 -1.488010
v 0.004404 0.014764 -1.488010
v -0.000000 0.012939 -1.488010
v -0.004404 0.014764 -1.488010
v -0.006228 0.019168 -1.488010
v -0.004404 0.023572 -1.488010
v -0.000000 0.123106 -1.492253
v 0.001645 0.122424 -1.492253
v 0.002326 0.120780 -1.492253
v 0.001645 0.119135 -1.492253
v -0.000000 0.118454 -1.492253
v -0.001645 0.119135 -1.492253
v -0.002326 0.120780 -1.492253
v -0.001645 0.122424 -1.492253
v -0.000000 0.021493 -1.492253
v 0.001645 0.020812 -1.492253
v 0.002326 0.019168 -1.492253
v 0.001645 0.017523 -1.492253
v -0.000000 0.016842 -1.492253
v -0.001645 0.017523 -1.492253
v -0.002326 0.019168 -1.492253
v -0.001645 0.020812 -1.492253
v -0.039062 0.244303 -0.690006
v -0.003408 0.282220 -0.690006
v -0.039062 0.282220 -0.690006
v -0.003408 0.244303 -0.690006
v 0.062944 -0.414394 -0.789694
v 0.062944 -0.507887 -0.789694
v 0.062944 -0.601380 -0.789694
v -0.062944 -0.414394 -0.789694
v -0.062944 -0.507887 -0.789694
v -0.062944 -0.601380 -0.789694
v 0.062944 -0.142803 -0.964823
v 0.062944 -0.320901 -0.964823
v -0.062944 -0.320901 -0.964823
v -0.062944 -0.142803 -0.964823
v 0.062944 -0.694873 -0.964823
v -0.062944 -0.694873 -0.964823
v -0.084539 -0.320901 -0.864126
v -0.084539 -0.142803 -0.864126
v -0.123185 -0.320901 -0.864126
v -0.123185 -0.142803 -0.864126
v -0.084539 0.189155 -0.864126
v -0.123185 0.189155 -0.864126
v 0.062944 -0.593926 -1.139953
v 0.062944 -0.608833 -1.139953
v 0.058394 -0.601380 -1.133623
v 0.062944 -0.500434 -1.139953
v 0.062944 -0.515341 -1.139953
v 0.058394 -0.507887 -1.133623
v 0.062944 -0.406941 -1.139953
v 0.062944 -0.421848 -1.139953
v 0.058394 -0.414394 -1.133623
v -0.062944 -0.608833 -1.139953
v -0.062944 -0.593926 -1.139953
v -0.058394 -0.601380 -1.133623
v -0.062944 -0.515341 -1.139953
v -0.062944 -0.500434 -1.139953
v -0.058394 -0.507887 -1.133623
v -0.062944 -0.421848 -1.139953
v -0.062944 -0.406941 -1.139953
v -0.058394 -0.414394 -1.133623
v -0.062944 -0.406941 -0.964823
v -0.062944 -0.421848 -0.964823
v -0.062944 -0.414394 -0.957370
v -0.058394 -0.414394 -0.971153
v -0.062944 -0.500434 -0.964823
v -0.062944 -0.515341 -0.964823
v -0.062944 -0.507887 -0.957370
v -0.058394 -0.507887 -0.971153
v -0.062944 -0.593926 -0.964823
v -0.062944 -0.608833 -0.964823
v -0.062944 -0.601380 -0.957370
v -0.058394 -0.601380 -0.971153
v 0.062944 -0.421848 -0.964823
v 0.062944 -0.406941 -0.964823
v 0.062944 -0.414394 -0.957370
v 0.058394 -0.414394 -0.971153
v 0.062944 -0.515341 -0.964823
v 0.062944 -0.500434 -0.964823
v 0.062944 -0.507887 -0.957370
v 0.058394 -0.507887 -0.971153
v 0.062944 -0.608833 -0.964823
v 0.062944 -0.593926 -0.964823
v 0.062944 -0.601380 -0.957370
v 0.058394 -0.601380 -0.971153
vn -0.8775 -0.0000 0.4796
vn -0.0000 1.0000 -0.0000
vn 1.0000 -0.0000 -0.0000
vn -0.0000 -0.0000 1.0000
vn -0.0000 -0.0000 -1.0000
vn -1.0000 -0.0000 -0.0000
vn 0.8237 -0.0000 -0.5670
vn -0.0000 -1.0000 -0.0000
vn 0.6952 -0.0000 -0.7188
vn -0.7635 -0.6459 -0.0000
vn 0.9967 -0.0000 -0.0813
vn -0.7722 -0.0000 -0.6354
vn -0.8237 -0.0000 -0.5670
vn 0.7399 0.6727 -0.0000
vn -0.0000 0.6032 -0.7976
vn -0.7399 0.6727 -0.0000
vn -0.0000 0.8495 -0.5275
vn -0.0000 0.8495 0.5275
vn -0.0000 0.6032 0.7976
vn 0.9197 0.3927 -0.0000
vn -0.9197 0.3927 -0.0000
vn -0.0000 -0.5446 -0.8387
vn -0.0000 -0.8318 -0.5551
vn -0.0000 -0.8318 0.5551
vn 0.7635 -0.6459 -0.0000
vn -0.0000 -0.5446 0.8387
vn 0.9389 -0.3442 -0.0000
vn -0.9389 -0.3442 -0.0000
vn -0.9943 -0.0000 -0.1066
vn 0.9919 -0.0000 -0.1273
vn -0.9919 -0.0000 0.1273
vn -0.0000 0.8800 -0.4750
vn -0.0000 -0.7771 -0.6294
vn 0.9297 -0.0000 -0.3682
vn -0.9297 -0.0000 0.3682
vn -0.9975 -0.0000 0.0709
vn 0.9975 -0.0000 -0.0709
vn -0.0000 -0.8800 0.4750
vn -0.0000 0.7771 0.6294
vn 0.3827 0.9239 -0.0000
vn 0.9239 0.3827 -0.0000
vn 0.9239 -0.3827 -0.0000
vn 0.3827 -0.9239 -0.0000
vn -0.3827 -0.9239 -0.0000
vn -0.9239 -0.3827 -0.0000
vn -0.9239 0.3827 -0.0000
vn -0.3827 0.9239 -0.0000
vn 0.3321 -0.8019 -0.4967
vn -0.8852 0.3667 -0.2862
vn -0.8852 -0.3667 -0.2862
vn -0.3321 -0.8019 -0.4967
vn -0.8019 -0.3321 -0.4967
vn -0.8019 0.3321 -0.4967
vn -0.3321 0.8019 -0.4967
vn 0.3321 0.8019 -0.4967
vn 0.8019 0.3321 -0.4967
vn 0.8019 -0.3321 -0.4967
vn 0.2916 -0.7040 -0.6476
vn -0.9119 0.3777 0.1602
vn -0.3246 0.7835 -0.5298
vn 0.3246 0.7835 -0.5298
vn -0.3439 0.8302 0.4388
vn 0.3439 0.8302 0.4388
vn 0.8852 0.3667 -0.2862
vn 0.9119 0.3777 0.1602
vn 0.9119 -0.3777 0.1602
vn 0.8852 -0.3667 -0.2862
vn 0.3439 -0.8302 0.4388
vn 0.3246 -0.7835 -0.5298
vn -0.3439 -0.8302 0.4388
vn -0.3246 -0.7835 -0.5298
vn -0.9119 -0.3777 0.1602
vn -0.2916 -0.7040 -0.6476
vn -0.7040 -0.2916 -0.6476
vn -0.7040 0.2916 -0.6476
vn -0.2916 0.7040 -0.6476
vn 0.2916 0.7040 -0.6476
vn 0.7040 0.2916 -0.6476
vn 0.7040 -0.2916 -0.6476
vn -0.9675 -0.0000 0.2528
vn 0.7717 -0.0000 0.6360
vn -0.9061 -0.2991 -0.2991
vn -0.9061 0.2991 -0.2991
vn 0.9061 0.2991 -0.2991
vn 0.9061 -0.2991 -0.2991
vn -0.0000 0.6473 -0.7622
vn -0.0000 -0.6473 -0.7622
vn 0.8535 0.5211 -0.0000
vn 0.8535 -0.5211 -0.0000
vn -0.8535 0.5211 -0.0000
vn -0.8535 -0.5211 -0.0000
vt 0.375000 0.193257
vt 0.625000 0.193257
vt 0.625000 0.250000
vt 0.375000 0.250000
vt 0.875000 0.500000
vt 0.625000 0.500000
vt 0.375000 0.665929
vt 0.625000 0.665929
vt 0.625000 0.750000
vt 0.375000 0.750000
vt 0.625000 1.000000
vt 0.375000 1.000000
vt 0.125000 0.665929
vt 0.875000 0.665929
vt 0.875000 0.750000
vt 0.375000 0.500000
vt 0.125000 0.500000
vt 0.625000 0.629986
vt 0.875000 0.629986
vt 0.125000 0.629986
vt 0.375000 0.629986
vt 0.375000 0.000000
vt 0.625000 0.000000
vt 0.625000 0.084071
vt 0.375000 0.084071
vt 0.625000 0.556743
vt 0.375000 0.556743
vt 0.125000 0.556743
vt 0.875000 0.556743
vt 0.375000 0.150700
vt 0.625000 0.150700
vt 0.375000 0.120014
vt 0.625000 0.120014
vt 0.625000 0.599300
vt 0.375000 0.599300
vt 0.875000 0.599300
vt 0.125000 0.599300
vt 0.125000 0.750000
vt 0.625000 0.500000
vt 0.375000 0.500000
vt 0.625000 0.500000
vt 1.000000 0.500000
vt 1.000000 1.000000
vt 0.875000 1.000000
vt 0.750000 1.000000
vt 0.750000 0.500000
vt 0.500000 1.000000
vt 0.500000 0.500000
vt 0.250000 1.000000
vt 0.250000 0.500000
vt 0.419706 0.419706
vt 0.250000 0.490000
vt 0.080294 0.419706
vt 0.010000 0.250000
vt 0.080294 0.080294
vt 0.250000 0.010000
vt 0.419706 0.080294
vt 0.490000 0.250000
vt 0.125000 1.000000
vt 0.000000 1.000000
vt 0.000000 0.500000
vt 0.855357 0.144643
vt 0.750000 0.101002
vt 0.855357 0.144643
vt 0.750000 0.101002
vt 0.750000 0.490000
vt 0.919706 0.419706
vt 0.990000 0.250000
vt 0.919706 0.080294
vt 0.750000 0.010000
vt 0.580294 0.080294
vt 0.510000 0.250000
vt 0.580294 0.419706
vt 0.855357 0.355357
vt 0.750000 0.398998
vt 0.898997 0.250000
vt 0.644643 0.144643
vt 0.601003 0.250000
vt 0.644643 0.355357
vt 0.855357 0.355357
vt 0.750000 0.398998
vt 0.898997 0.250000
vt 0.644643 0.144643
vt 0.644643 0.355357
vt 0.375000 0.500000
s 0
usemtl Material.003
f 39/1/1 37/2/1 4/3/1 3/4/1
f 4/5/2 8/6/2 12/6/2 9/5/2
f 31/7/3 32/8/3 6/9/3 5/10/3
f 5/10/4 6/9/4 2/11/4 1/12/4
f 29/13/5 31/7/5 36/7/5 33/13/5
f 32/8/2 30/14/2 2/15/2 6/9/2
f 10/4/5 9/3/5 12/6/5 11/16/5
f 3/4/6 4/3/6 9/3/6 10/4/6
f 8/6/3 7/16/3 11/16/3 12/6/3
f 3/4/6 10/4/6 16/4/6 14/4/6
f 15/16/3 13/16/3 17/16/3 19/16/3
f 11/16/3 7/16/3 13/16/3 15/16/3
f 7/16/4 3/17/4 14/17/4 13/16/4
f 11/16/7 15/16/7 51/16/7 50/16/7
f 17/16/8 18/17/8 20/17/8 19/16/8
f 16/4/5 15/16/5 19/16/5 20/4/5
f 14/4/6 16/4/6 20/4/6 18/4/6
f 236/16/3 235/16/3 21/16/3 23/16/3
f 21/16/4 22/17/4 24/17/4 23/16/4
f 237/4/8 24/4/8 79/4/8 241/4/8
f 235/16/2 238/17/2 22/17/2 21/16/2
f 240/17/8 239/16/8 27/16/8 28/17/8
f 251/16/3 281/16/3 286/16/3 247/16/3
f 231/16/4 234/17/4 28/17/4 27/16/4
f 270/4/6 259/4/6 257/4/6 273/4/6
f 226/18/2 227/19/2 30/14/2 32/8/2
f 225/20/8 228/21/8 31/7/8 29/13/8
f 228/21/9 226/18/9 32/8/9 31/7/9
f 1/22/6 2/23/6 30/24/6 29/25/6
f 34/22/10 33/25/10 69/25/10 70/22/10
f 1/22/6 29/25/6 33/25/6 34/22/6
f 5/10/4 1/12/4 34/12/4 35/10/4
f 31/7/3 5/10/3 35/10/3 36/7/3
f 7/16/11 8/6/11 40/26/11 38/27/11
f 3/17/8 7/16/8 38/27/8 39/28/8
f 8/6/2 4/5/2 37/29/2 40/26/2
f 41/30/6 43/31/6 37/2/6 39/1/6
f 225/32/12 227/33/12 43/31/12 41/30/12
f 38/27/3 40/26/3 42/34/3 44/35/3
f 39/28/5 38/27/5 46/27/5 47/28/5
f 40/26/2 37/29/2 43/36/2 42/34/2
f 47/28/8 46/27/8 45/35/8 48/37/8
f 44/35/4 41/37/4 48/37/4 45/35/4
f 38/27/3 44/35/3 45/35/3 46/27/3
f 41/30/6 39/1/6 47/1/6 48/30/6
f 49/4/5 50/16/5 51/16/5 52/4/5
f 15/16/8 16/4/8 52/4/8 51/16/8
f 10/4/2 11/16/2 50/16/2 49/4/2
f 16/4/13 10/4/13 49/4/13 52/4/13
f 55/13/5 56/7/5 60/7/5 57/13/5
f 57/13/8 60/7/8 59/10/8 58/38/8
f 53/22/6 55/25/6 57/25/6 58/22/6
f 54/10/4 53/12/4 58/12/4 59/10/4
f 56/7/3 54/10/3 59/10/3 60/7/3
f 54/10/14 56/7/14 64/7/14 63/10/14
f 64/7/15 61/13/15 65/13/15 68/7/15
f 55/25/16 53/22/16 62/22/16 61/25/16
f 56/7/17 55/13/17 61/13/17 64/7/17
f 53/12/18 54/10/18 63/10/18 62/12/18
f 65/13/2 66/12/2 67/10/2 68/7/2
f 62/12/19 63/10/19 67/10/19 66/12/19
f 63/10/20 64/7/20 68/7/20 67/10/20
f 61/25/21 62/22/21 66/22/21 65/25/21
f 69/13/22 72/7/22 76/7/22 73/13/22
f 33/13/23 36/7/23 72/7/23 69/13/23
f 35/10/24 34/12/24 70/12/24 71/10/24
f 36/7/25 35/10/25 71/10/25 72/7/25
f 73/13/8 76/7/8 75/10/8 74/38/8
f 71/10/26 70/12/26 74/12/26 75/10/26
f 72/7/27 71/10/27 75/10/27 76/7/27
f 70/22/28 69/25/28 73/25/28 74/22/28
f 241/4/8 79/4/8 83/4/8 243/4/8
f 238/17/2 14/17/2 78/17/2 242/17/2
f 24/17/4 22/17/4 80/17/4 79/17/4
f 14/4/29 18/4/29 77/4/29 78/4/29
f 244/4/6 243/4/6 83/4/6 84/4/6
f 78/4/5 77/4/5 81/4/5 82/4/5
f 84/17/4 80/17/4 85/17/4 87/17/4
f 79/17/4 80/17/4 84/17/4 83/17/4
f 245/17/2 86/17/2 88/17/2 246/17/2
f 244/4/6 84/4/6 87/4/6 246/4/6
f 242/17/3 78/17/3 86/17/3 245/17/3
f 78/4/5 82/4/5 88/4/5 86/4/5
f 29/25/80 30/24/80 227/33/80 225/32/80
f 44/35/81 42/34/81 226/18/81 228/21/81
f 41/37/8 44/35/8 228/21/8 225/20/8
f 42/34/2 43/36/2 227/19/2 226/18/2
f 24/4/6 237/4/6 265/4/6 267/4/6 232/4/6
f 237/4/6 18/4/6 263/4/6 265/4/6
f 266/4/6 262/4/6 260/4/6 269/4/6
f 23/16/4 24/17/4 232/17/4 229/16/4
f 229/16/4 232/17/4 233/17/4 230/16/4
f 230/16/4 233/17/4 234/17/4 231/16/4
f 274/4/6 256/4/6 26/4/6 240/4/6
f 17/16/3 236/16/3 278/16/3 253/16/3
f 254/16/3 277/16/3 282/16/3 250/16/3
f 281/16/3 283/16/3 230/16/3 231/16/3 287/16/3 286/16/3
f 236/16/3 23/16/3 229/16/3 279/16/3 278/16/3
f 285/16/3 287/16/3 231/16/3 27/16/3 239/16/3
f 259/17/5 251/16/5 247/16/5 257/17/5
f 262/17/5 254/16/5 250/16/5 260/17/5
f 18/17/5 17/16/5 253/16/5 263/17/5
f 234/4/6 275/4/6 274/4/6 240/4/6 28/4/6
f 233/4/6 271/4/6 270/4/6 273/4/6 275/4/6 234/4/6
f 232/4/6 267/4/6 266/4/6 269/4/6 271/4/6 233/4/6
f 80/17/3 242/17/3 245/17/3 85/17/3
f 82/4/6 244/4/6 246/4/6 88/4/6
f 85/17/2 245/17/2 246/17/2 87/17/2
f 82/4/6 81/4/6 243/4/6 244/4/6
f 22/17/2 238/17/2 242/17/2 80/17/2
f 77/4/8 241/4/8 243/4/8 81/4/8
f 277/16/3 279/16/3 229/16/3 230/16/3 283/16/3 282/16/3
f 26/17/8 25/16/8 239/16/8 240/17/8
f 13/16/2 14/17/2 238/17/2 235/16/2
f 18/4/8 237/4/8 241/4/8 77/4/8
f 256/17/5 248/16/5 25/16/5 26/17/5
f 17/16/3 13/16/3 235/16/3 236/16/3
f 265/4/82 268/4/82 267/4/82
f 268/4/83 266/4/83 267/4/83
f 269/4/82 272/4/82 271/4/82
f 272/4/83 270/4/83 271/4/83
f 273/4/82 276/4/82 275/4/82
f 276/4/83 274/4/83 275/4/83
f 277/16/84 280/16/84 279/16/84
f 280/16/85 278/85/85 279/16/85
f 281/16/84 284/16/84 283/16/84
f 284/16/85 282/16/85 283/16/85
f 285/16/84 288/16/84 287/16/84
f 288/16/85 286/16/85 287/16/85
f 254/16/86 262/17/86 264/17/86 255/16/86
f 255/16/87 264/17/87 263/17/87 253/16/87
f 251/16/86 259/17/86 261/17/86 252/16/86
f 252/16/87 261/17/87 260/17/87 250/16/87
f 248/16/86 256/17/86 258/17/86 249/16/86
f 249/16/87 258/17/87 257/17/87 247/16/87
f 277/16/88 254/16/88 255/16/88 280/16/88
f 280/16/89 255/16/89 253/16/89 278/16/89
f 281/16/88 251/16/88 252/16/88 284/16/88
f 284/16/89 252/16/89 250/16/89 282/16/89
f 285/16/88 248/16/88 249/16/88 288/16/88
f 288/16/89 249/16/89 247/16/89 286/16/89
f 262/4/90 266/4/90 268/4/90 264/4/90
f 264/4/91 268/4/91 265/4/91 263/4/91
f 259/4/90 270/4/90 272/4/90 261/4/90
f 261/4/91 272/4/91 269/4/91 260/4/91
f 256/4/90 274/4/90 276/4/90 258/4/90
f 258/4/91 276/4/91 273/4/91 257/4/91
f 248/16/3 285/16/3 239/16/3 25/16/3
usemtl METTLE
f 111/5/2 109/39/2 96/6/2 93/5/2
f 112/4/6 111/3/6 93/3/6 94/4/6
f 109/39/3 110/16/3 95/16/3 96/6/3
f 106/4/8 108/16/8 91/16/8 89/4/8
f 104/4/8 102/16/8 100/40/8 99/4/8
f 107/6/30 108/16/30 100/40/30 97/41/30
f 106/4/31 105/3/31 98/3/31 99/4/31
f 105/5/32 107/6/32 97/41/32 98/5/32
f 112/4/33 110/16/33 102/16/33 104/4/33
f 97/41/34 100/40/34 102/16/34 101/6/34
f 99/4/35 98/3/35 103/3/35 104/4/35
f 98/5/2 97/41/2 101/6/2 103/5/2
f 90/5/2 92/6/2 107/6/2 105/5/2
f 89/4/36 90/3/36 105/3/36 106/4/36
f 92/6/37 91/16/37 108/16/37 107/6/37
f 99/4/38 100/40/38 108/16/38 106/4/38
f 94/4/8 95/16/8 110/16/8 112/4/8
f 101/6/3 102/16/3 110/16/3 109/39/3
f 104/4/6 103/3/6 111/3/6 112/4/6
f 103/5/39 101/6/39 109/39/39 111/5/39
f 161/42/40 114/43/40 116/44/40 162/5/40
f 162/5/41 116/44/41 118/45/41 163/46/41
f 163/46/42 118/45/42 120/11/42 164/6/42
f 164/6/43 120/11/43 122/47/43 165/48/43
f 165/48/44 122/47/44 124/12/44 166/16/44
f 166/16/45 124/12/45 126/49/45 167/50/45
f 116/51/4 114/52/4 128/53/4 126/54/4 124/55/4 122/56/4 120/57/4 118/58/4
f 167/50/46 126/49/46 128/59/46 168/17/46
f 168/17/47 128/59/47 114/60/47 161/61/47
f 135/62/48 137/63/48 189/63/48 188/62/48
f 169/42/40 130/43/40 132/44/40 170/5/40
f 170/5/41 132/44/41 134/45/41 171/46/41
f 171/46/42 134/45/42 136/11/42 172/6/42
f 172/6/43 136/11/43 138/47/43 173/48/43
f 173/48/44 138/47/44 140/12/44 174/16/44
f 174/16/45 140/12/45 142/49/45 175/50/45
f 132/51/4 130/52/4 144/53/4 142/54/4 140/55/4 138/56/4 136/57/4 134/58/4
f 175/50/46 142/49/46 144/59/46 176/17/46
f 176/17/47 144/59/47 130/60/47 169/61/47
f 119/64/48 121/65/48 181/65/48 180/64/48
f 145/42/40 146/43/40 148/44/40 147/5/40
f 147/5/41 148/44/41 150/45/41 149/46/41
f 149/46/42 150/45/42 152/11/42 151/6/42
f 151/6/43 152/11/43 154/47/43 153/48/43
f 153/48/44 154/47/44 156/12/44 155/16/44
f 155/16/45 156/12/45 158/49/45 157/50/45
f 148/51/4 146/52/4 160/53/4 158/54/4 156/55/4 154/56/4 152/57/4 150/58/4
f 157/50/46 158/49/46 160/59/46 159/17/46
f 159/17/47 160/59/47 146/60/47 145/61/47
f 145/66/5 147/67/5 149/68/5 151/69/5 153/70/5 155/71/5 157/72/5 159/73/5
f 115/74/5 113/75/5 161/66/5 162/67/5
f 117/76/5 115/74/5 162/67/5 163/68/5
f 119/64/5 117/76/5 163/68/5 164/69/5
f 121/65/5 119/64/5 164/69/5 165/70/5
f 123/77/5 121/65/5 165/70/5 166/71/5
f 125/78/5 123/77/5 166/71/5 167/72/5
f 127/79/5 125/78/5 167/72/5 168/73/5
f 113/75/5 127/79/5 168/73/5 161/66/5
f 131/80/5 129/81/5 169/66/5 170/67/5
f 133/82/5 131/80/5 170/67/5 171/68/5
f 135/62/5 133/82/5 171/68/5 172/69/5
f 137/63/5 135/62/5 172/69/5 173/70/5
f 139/83/5 137/63/5 173/70/5 174/71/5
f 141/78/5 139/83/5 174/71/5 175/72/5
f 143/84/5 141/78/5 175/72/5 176/73/5
f 129/81/5 143/84/5 176/73/5 169/66/5
f 183/78/49 184/79/49 200/79/49 199/78/49
f 190/83/50 191/78/50 207/78/50 206/83/50
f 121/65/51 123/77/51 182/77/51 181/65/51
f 137/63/51 139/83/51 190/83/51 189/63/51
f 123/77/52 125/78/52 183/78/52 182/77/52
f 139/83/52 141/78/52 191/78/52 190/83/52
f 125/78/53 127/79/53 184/79/53 183/78/53
f 141/78/53 143/84/53 192/84/53 191/78/53
f 127/79/54 113/75/54 177/75/54 184/79/54
f 113/75/55 115/74/55 178/74/55 177/75/55
f 143/84/54 129/81/54 185/81/54 192/84/54
f 129/81/55 131/80/55 186/80/55 185/81/55
f 115/74/56 117/76/56 179/76/56 178/74/56
f 131/80/56 133/82/56 187/82/56 186/80/56
f 117/76/57 119/64/57 180/64/57 179/76/57
f 133/82/57 135/62/57 188/62/57 187/82/57
f 204/62/58 205/63/58 221/63/58 220/62/58
f 196/64/58 197/65/58 213/65/58 212/64/58
f 191/78/59 192/84/59 208/84/59 207/78/59
f 184/79/60 177/75/60 193/75/60 200/79/60
f 177/75/61 178/74/61 194/74/61 193/75/61
f 192/84/62 185/81/62 201/81/62 208/84/62
f 185/81/63 186/80/63 202/80/63 201/81/63
f 178/74/64 179/76/64 195/76/64 194/74/64
f 186/80/65 187/82/65 203/82/65 202/80/65
f 179/76/66 180/64/66 196/64/66 195/76/66
f 187/82/67 188/62/67 204/62/67 203/82/67
f 180/64/68 181/65/68 197/65/68 196/64/68
f 188/62/69 189/63/69 205/63/69 204/62/69
f 181/65/70 182/77/70 198/77/70 197/65/70
f 189/63/71 190/83/71 206/83/71 205/63/71
f 182/77/72 183/78/72 199/78/72 198/77/72
f 209/75/5 210/74/5 211/76/5 212/64/5 213/65/5 214/77/5 215/78/5 216/79/5
f 217/81/5 218/80/5 219/82/5 220/62/5 221/63/5 222/83/5 223/78/5 224/84/5
f 197/65/73 198/77/73 214/77/73 213/65/73
f 205/63/73 206/83/73 222/83/73 221/63/73
f 198/77/74 199/78/74 215/78/74 214/77/74
f 206/83/74 207/78/74 223/78/74 222/83/74
f 199/78/75 200/79/75 216/79/75 215/78/75
f 207/78/75 208/84/75 224/84/75 223/78/75
f 200/79/76 193/75/76 209/75/76 216/79/76
f 193/75/77 194/74/77 210/74/77 209/75/77
f 208/84/76 201/81/76 217/81/76 224/84/76
f 201/81/77 202/80/77 218/80/77 217/81/77
f 194/74/78 195/76/78 211/76/78 210/74/78
f 202/80/78 203/82/78 219/82/78 218/80/78
f 195/76/79 196/64/79 212/64/79 211/76/79
f 203/82/79 204/62/79 220/62/79 219/82/79
