# Blender 4.3.2
# www.blender.org
mtllib armv2_4_capacitor.mtl
o Capacitor
v 0.028309 -0.041022 -0.103606
v 0.028309 0.002287 -0.103606
v 0.028309 -0.041022 -0.156299
v 0.028309 0.002287 -0.156299
v 0.032706 -0.041022 -0.103606
v 0.032706 0.002287 -0.103606
v 0.032706 -0.041022 -0.156299
v 0.032706 0.002287 -0.156299
v 0.025503 -0.003740 -0.099203
v 0.025503 -0.001051 -0.099203
v 0.025503 -0.003740 -0.126309
v 0.025503 -0.001051 -0.126309
v 0.034584 -0.003740 -0.099203
v 0.034584 -0.001051 -0.099203
v 0.034584 -0.003740 -0.126309
v 0.034584 -0.001051 -0.126309
v 0.025503 -0.025973 -0.099203
v 0.025503 -0.023285 -0.099203
v 0.025503 -0.025973 -0.126309
v 0.025503 -0.023285 -0.126309
v 0.034584 -0.025973 -0.099203
v 0.034584 -0.023285 -0.099203
v 0.034584 -0.025973 -0.126309
v 0.034584 -0.023285 -0.126309
v 0.025503 -0.034371 -0.099203
v 0.025503 -0.031682 -0.099203
v 0.025503 -0.034371 -0.126309
v 0.025503 -0.031682 -0.126309
v 0.034584 -0.034371 -0.099203
v 0.034584 -0.031682 -0.099203
v 0.034584 -0.034371 -0.126309
v 0.034584 -0.031682 -0.126309
v 0.025503 -0.003740 -0.112756
v 0.025503 -0.001051 -0.112756
v 0.034584 -0.003740 -0.112756
v 0.034584 -0.001051 -0.112756
v 0.025503 -0.025973 -0.112756
v 0.025503 -0.023285 -0.112756
v 0.034584 -0.025973 -0.112756
v 0.034584 -0.023285 -0.112756
v 0.025503 -0.034371 -0.112756
v 0.025503 -0.031682 -0.112756
v 0.034584 -0.034371 -0.112756
v 0.034584 -0.031682 -0.112756
v 0.014669 -0.003740 -0.110575
v 0.014669 -0.003740 -0.101385
v 0.014669 -0.001051 -0.101385
v 0.014669 -0.025973 -0.110575
v 0.014669 -0.025973 -0.101385
v 0.014669 -0.023285 -0.101385
v 0.014669 -0.034371 -0.110575
v 0.014669 -0.034371 -0.101385
v 0.014669 -0.031682 -0.101385
v 0.014669 -0.001051 -0.110575
v 0.014669 -0.023285 -0.110575
v 0.014669 -0.031682 -0.110575
v 0.036198 -0.033906 -0.132315
v 0.036198 -0.001810 -0.132315
v 0.036198 -0.033906 -0.150445
v 0.036198 -0.001810 -0.150445
v 0.054844 -0.033906 -0.132315
v 0.054844 -0.001810 -0.132315
v 0.054844 -0.033906 -0.150445
v 0.054844 -0.001810 -0.150445
v 0.031752 0.000312 -0.130996
v 0.031752 -0.006081 -0.130996
v 0.031752 0.000312 -0.151297
v 0.031752 -0.006081 -0.151297
v 0.040074 0.000312 -0.130996
v 0.040074 -0.006081 -0.130996
v 0.040074 0.000312 -0.151297
v 0.040074 -0.006081 -0.151297
v 0.031752 -0.029306 -0.130996
v 0.031752 -0.035699 -0.130996
v 0.031752 -0.029306 -0.151297
v 0.031752 -0.035699 -0.151297
v 0.040074 -0.029306 -0.130996
v 0.040074 -0.035699 -0.130996
v 0.040074 -0.029306 -0.151297
v 0.040074 -0.035699 -0.151297
vn -1.0000 -0.0000 -0.0000
vn -0.0000 -0.0000 -1.0000
vn 1.0000 -0.0000 -0.0000
vn -0.0000 -0.0000 1.0000
vn -0.0000 -1.0000 -0.0000
vn -0.0000 1.0000 -0.0000
vn -0.1974 -0.0000 -0.9803
vn -0.1974 -0.0000 0.9803
vt 0.375000 0.000000
vt 0.625000 0.000000
vt 0.625000 0.250000
vt 0.375000 0.250000
vt 0.625000 0.500000
vt 0.375000 0.500000
vt 0.625000 0.750000
vt 0.375000 0.750000
vt 0.625000 1.000000
vt 0.375000 1.000000
vt 0.125000 0.500000
vt 0.125000 0.750000
vt 0.875000 0.500000
vt 0.875000 0.750000
vt 0.375000 0.125000
vt 0.625000 0.125000
vt 0.375000 0.625000
vt 0.625000 0.625000
vt 0.125000 0.625000
vt 0.875000 0.625000
s 0
usemtl _Darknut
f 1/1/1 2/2/1 4/3/1 3/4/1
f 3/4/2 4/3/2 8/5/2 7/6/2
f 7/6/3 8/5/3 6/7/3 5/8/3
f 5/8/4 6/7/4 2/9/4 1/10/4
f 3/11/5 7/6/5 5/8/5 1/12/5
f 8/5/6 4/13/6 2/14/6 6/7/6
f 65/1/3 66/2/3 68/3/3 67/4/3
f 67/4/4 68/3/4 72/5/4 71/6/4
f 71/6/1 72/5/1 70/7/1 69/8/1
f 69/8/2 70/7/2 66/9/2 65/10/2
f 67/11/5 71/6/5 69/8/5 65/12/5
f 72/5/6 68/13/6 66/14/6 70/7/6
f 73/1/3 74/2/3 76/3/3 75/4/3
f 75/4/4 76/3/4 80/5/4 79/6/4
f 79/6/1 80/5/1 78/7/1 77/8/1
f 77/8/2 78/7/2 74/9/2 73/10/2
f 75/11/5 79/6/5 77/8/5 73/12/5
f 80/5/6 76/13/6 74/14/6 78/7/6
usemtl _Chromes
f 33/15/1 34/16/1 12/3/1 11/4/1
f 11/4/2 12/3/2 16/5/2 15/6/2
f 35/17/3 36/18/3 14/7/3 13/8/3
f 13/8/4 14/7/4 10/9/4 9/10/4
f 33/19/5 35/17/5 13/8/5 9/12/5
f 36/18/6 34/20/6 10/14/6 14/7/6
f 37/15/1 38/16/1 20/3/1 19/4/1
f 19/4/2 20/3/2 24/5/2 23/6/2
f 39/17/3 40/18/3 22/7/3 21/8/3
f 21/8/4 22/7/4 18/9/4 17/10/4
f 37/19/5 39/17/5 21/8/5 17/12/5
f 40/18/6 38/20/6 18/14/6 22/7/6
f 41/15/1 42/16/1 28/3/1 27/4/1
f 27/4/2 28/3/2 32/5/2 31/6/2
f 43/17/3 44/18/3 30/7/3 29/8/3
f 29/8/4 30/7/4 26/9/4 25/10/4
f 41/19/5 43/17/5 29/8/5 25/12/5
f 44/18/6 42/20/6 26/14/6 30/7/6
f 16/5/6 12/13/6 34/20/6 36/18/6
f 11/11/5 15/6/5 35/17/5 33/19/5
f 15/6/3 16/5/3 36/18/3 35/17/3
f 34/16/7 33/15/7 45/15/7 54/16/7
f 24/5/6 20/13/6 38/20/6 40/18/6
f 19/11/5 23/6/5 39/17/5 37/19/5
f 23/6/3 24/5/3 40/18/3 39/17/3
f 26/14/6 42/20/6 56/20/6 53/14/6
f 32/5/6 28/13/6 42/20/6 44/18/6
f 27/11/5 31/6/5 43/17/5 41/19/5
f 31/6/3 32/5/3 44/18/3 43/17/3
f 37/19/5 17/12/5 49/12/5 48/19/5
f 46/1/1 47/2/1 54/16/1 45/15/1
f 49/1/1 50/2/1 55/16/1 48/15/1
f 52/1/1 53/2/1 56/16/1 51/15/1
f 17/10/8 18/9/8 50/9/8 49/10/8
f 10/14/6 34/20/6 54/20/6 47/14/6
f 38/16/7 37/15/7 48/15/7 55/16/7
f 33/19/5 9/12/5 46/12/5 45/19/5
f 41/19/5 25/12/5 52/12/5 51/19/5
f 18/14/6 38/20/6 55/20/6 50/14/6
f 9/10/8 10/9/8 47/9/8 46/10/8
f 42/16/7 41/15/7 51/15/7 56/16/7
f 25/10/8 26/9/8 53/9/8 52/10/8
usemtl Material.011
f 57/1/1 58/2/1 60/3/1 59/4/1
f 59/4/2 60/3/2 64/5/2 63/6/2
f 63/6/3 64/5/3 62/7/3 61/8/3
f 61/8/4 62/7/4 58/9/4 57/10/4
f 59/11/5 63/6/5 61/8/5 57/12/5
f 64/5/6 60/13/6 58/14/6 62/7/6
