# Blender 4.3.2
# www.blender.org
mtllib armv2_arm.mtl
o Wrist
v -0.015834 -0.054234 -0.233323
v -0.015834 0.026790 -0.233323
v -0.006831 -0.051640 -0.259751
v -0.006831 0.024196 -0.259751
v 0.015834 -0.054234 -0.233323
v 0.015834 0.026790 -0.233323
v 0.006831 -0.051640 -0.259751
v 0.006831 0.024196 -0.259751
v -0.015834 0.035138 -0.233323
v -0.015834 0.035138 -0.255634
v 0.015834 0.035138 -0.255634
v 0.015834 0.035138 -0.233323
v 0.010212 0.026790 -0.216951
v -0.010212 0.026790 -0.216951
v 0.010212 0.035138 -0.216951
v -0.010212 0.035138 -0.216951
v 0.010212 0.026790 -0.186932
v -0.010212 0.026790 -0.186932
v 0.010212 0.035138 -0.186932
v -0.010212 0.035138 -0.186932
v -0.015834 -0.061797 -0.255634
v -0.015834 -0.061797 -0.233323
v 0.015834 -0.061797 -0.255634
v 0.015834 -0.061797 -0.233323
v -0.008945 -0.054234 -0.225892
v 0.008945 -0.054234 -0.225892
v -0.008945 -0.061797 -0.225892
v 0.008945 -0.061797 -0.225892
v -0.015834 0.026790 -0.255634
v -0.015834 -0.054234 -0.255634
v 0.015834 -0.054234 -0.255634
v 0.015834 0.026790 -0.255634
v -0.006831 0.024196 -0.277183
v -0.006831 -0.051640 -0.277183
v 0.006831 -0.051640 -0.277183
v 0.006831 0.024196 -0.277183
v 0.010212 0.026790 -0.068265
v -0.010212 0.026790 -0.068265
v 0.010212 0.035138 -0.068265
v -0.010212 0.035138 -0.068265
v 0.010212 0.026790 -0.013469
v -0.010212 0.026790 -0.013469
v 0.010212 0.035138 -0.013469
v -0.010212 0.035138 -0.013469
v 0.010212 0.026790 -0.049999
v 0.010212 0.026790 -0.031734
v -0.010212 0.026790 -0.031734
v -0.010212 0.026790 -0.049999
v -0.010212 0.035138 -0.031734
v -0.010212 0.035138 -0.049999
v 0.010212 0.035138 -0.031734
v 0.010212 0.035138 -0.049999
v 0.025548 0.026790 -0.049999
v 0.025548 0.026790 -0.031734
v 0.018199 0.035138 -0.031734
v 0.018199 0.035138 -0.049999
v 0.010212 0.002894 -0.049999
v 0.010212 0.002894 -0.031734
v 0.025548 0.002894 -0.049999
v 0.025548 0.002894 -0.031734
v -0.016950 0.026790 -0.031734
v -0.016950 0.026790 -0.049999
v -0.016950 0.035138 -0.031734
v -0.016950 0.035138 -0.049999
v -0.010212 0.008124 -0.031734
v -0.010212 0.008124 -0.049999
v -0.016950 0.008124 -0.031734
v -0.016950 0.008124 -0.049999
v -0.000000 0.015509 0.243560
v 0.000000 -0.037728 0.243560
v -0.000000 0.015509 -0.162373
v 0.000000 -0.037728 -0.162373
v 0.003262 0.003128 -0.208978
v 0.004524 0.000082 -0.237277
v 0.007876 0.007742 -0.208978
v 0.010922 0.006480 -0.237277
v 0.007876 0.014266 -0.208978
v 0.010922 0.015528 -0.237277
v 0.003262 0.018880 -0.208978
v 0.004524 0.021926 -0.237277
v -0.003262 0.018880 -0.208978
v -0.004524 0.021926 -0.237277
v -0.007876 0.014266 -0.208978
v -0.010922 0.015528 -0.237277
v -0.007876 0.007742 -0.208978
v -0.010922 0.006480 -0.237277
v -0.003262 0.003128 -0.208978
v -0.004524 0.000082 -0.237277
v 0.003262 -0.040888 -0.208978
v 0.004524 -0.043934 -0.237277
v 0.007876 -0.036275 -0.208978
v 0.010922 -0.037536 -0.237277
v 0.007876 -0.029750 -0.208978
v 0.010922 -0.028488 -0.237277
v 0.003262 -0.025136 -0.208978
v 0.004524 -0.022090 -0.237277
v -0.003262 -0.025136 -0.208978
v -0.004524 -0.022090 -0.237277
v -0.007876 -0.029750 -0.208978
v -0.010922 -0.028488 -0.237277
v -0.007876 -0.036275 -0.208978
v -0.010922 -0.037536 -0.237277
v -0.003262 -0.040888 -0.208978
v -0.004524 -0.043934 -0.237277
v 0.004524 0.000082 -0.213633
v 0.010922 0.006480 -0.213633
v 0.010922 0.015528 -0.213633
v 0.004524 0.021926 -0.213633
v -0.004524 0.021926 -0.213633
v -0.010922 0.015528 -0.213633
v -0.010922 0.006480 -0.213633
v -0.004524 0.000082 -0.213633
v 0.004524 -0.043934 -0.213633
v 0.010922 -0.037536 -0.213633
v 0.010922 -0.028488 -0.213633
v 0.004524 -0.022090 -0.213633
v -0.004524 -0.022090 -0.213633
v -0.010922 -0.028488 -0.213633
v -0.010922 -0.037536 -0.213633
v -0.004524 -0.043934 -0.213633
v 0.003566 0.009511 -0.132452
v 0.008609 0.014554 -0.132452
v 0.008609 0.021686 -0.132452
v 0.003566 0.026729 -0.132452
v -0.003566 0.026729 -0.132452
v -0.008609 0.021686 -0.132452
v -0.008609 0.014554 -0.132452
v -0.003566 0.009511 -0.132452
v 0.003566 -0.041621 -0.132452
v 0.008609 -0.036578 -0.132452
v 0.008609 -0.029446 -0.132452
v 0.003566 -0.024403 -0.132452
v -0.003566 -0.024403 -0.132452
v -0.008609 -0.029446 -0.132452
v -0.008609 -0.036578 -0.132452
v -0.003566 -0.041621 -0.132452
v 0.003566 0.010557 -0.007929
v 0.008609 0.015600 -0.007929
v 0.008609 0.022732 -0.007929
v 0.003566 0.027775 -0.007929
v -0.003566 0.027775 -0.007929
v -0.008609 0.022732 -0.007929
v -0.008609 0.015600 -0.007929
v -0.003566 0.010557 -0.007929
v 0.003566 -0.048883 -0.007929
v 0.008609 -0.043840 -0.007929
v 0.008609 -0.036708 -0.007929
v 0.003566 -0.031665 -0.007929
v -0.003566 -0.031665 -0.007929
v -0.008609 -0.036708 -0.007929
v -0.008609 -0.043840 -0.007929
v -0.003566 -0.048883 -0.007929
v 0.003566 0.009804 0.131671
v 0.008609 0.014847 0.131671
v 0.008609 0.021979 0.131671
v 0.003566 0.027022 0.131671
v -0.003566 0.027022 0.131671
v -0.008609 0.021979 0.131671
v -0.008609 0.014847 0.131671
v -0.003566 0.009804 0.131671
v 0.003566 -0.050296 0.131671
v 0.008609 -0.045253 0.131671
v 0.008609 -0.038121 0.131671
v 0.003566 -0.033077 0.131671
v -0.003566 -0.033078 0.131671
v -0.008609 -0.038121 0.131671
v -0.008609 -0.045253 0.131671
v -0.003566 -0.050296 0.131671
v 0.003566 0.007702 0.251861
v 0.008609 0.012745 0.251861
v 0.008609 0.019877 0.251861
v 0.003566 0.024920 0.251861
v -0.003566 0.024920 0.251861
v -0.008609 0.019877 0.251861
v -0.008609 0.012745 0.251861
v -0.003566 0.007702 0.251861
v 0.003566 -0.041621 0.251861
v 0.008609 -0.036578 0.251861
v 0.008609 -0.029446 0.251861
v 0.003566 -0.024403 0.251861
v -0.003566 -0.024403 0.251861
v -0.008609 -0.029446 0.251861
v -0.008609 -0.036578 0.251861
v -0.003566 -0.041621 0.251861
v -0.003566 0.027543 -0.035555
v 0.003566 0.027543 -0.035555
v -0.008609 0.022500 -0.035555
v -0.008609 0.015368 -0.035555
v -0.003566 0.010325 -0.035555
v 0.003566 0.010325 -0.035555
v 0.008609 0.015368 -0.035555
v 0.008609 0.022500 -0.035555
v -0.004086 0.028871 -0.031565
v -0.004086 0.028960 -0.011918
v -0.009865 0.023092 -0.031565
v -0.009865 0.023181 -0.011918
v -0.009865 0.014920 -0.031565
v -0.009865 0.015008 -0.011918
v -0.004086 0.009141 -0.031565
v -0.004086 0.009230 -0.011918
v 0.004086 0.009141 -0.031565
v 0.004086 0.009230 -0.011918
v 0.009865 0.014920 -0.031565
v 0.009865 0.015008 -0.011918
v 0.009865 0.023092 -0.031565
v 0.009865 0.023181 -0.011918
v 0.004086 0.028960 -0.011918
v 0.004086 0.028871 -0.031565
v -0.015834 -0.054234 0.242817
v -0.015834 0.026790 0.242817
v -0.006831 -0.051640 0.269245
v -0.006831 0.024196 0.269245
v 0.015834 -0.054234 0.242817
v 0.015834 0.026790 0.242817
v 0.006831 -0.051640 0.269245
v 0.006831 0.024196 0.269245
v -0.015834 0.035138 0.242817
v -0.015834 0.035138 0.265128
v 0.015834 0.035138 0.265128
v 0.015834 0.035138 0.242817
v 0.010212 0.026790 0.226444
v -0.010212 0.026790 0.226444
v 0.010212 0.035138 0.226444
v -0.010212 0.035138 0.226444
v 0.010212 0.026790 0.196425
v -0.010212 0.026790 0.196425
v 0.010212 0.035138 0.196425
v -0.010212 0.035138 0.196425
v -0.015834 -0.061797 0.265128
v -0.015834 -0.061797 0.242817
v 0.015834 -0.061797 0.265128
v 0.015834 -0.061797 0.242817
v -0.008945 -0.054234 0.235386
v 0.008945 -0.054234 0.235386
v -0.008945 -0.061797 0.235386
v 0.008945 -0.061797 0.235386
v -0.015834 0.026790 0.265128
v -0.015834 -0.054234 0.265128
v 0.015834 -0.054234 0.265128
v 0.015834 0.026790 0.265128
v -0.006831 0.024196 0.286676
v -0.006831 -0.051640 0.286676
v 0.006831 -0.051640 0.286676
v 0.006831 0.024196 0.286676
v 0.010212 0.053348 -0.068265
v -0.010212 0.053348 -0.068265
v 0.010212 0.053348 -0.013469
v -0.010212 0.053348 -0.013469
v -0.010212 0.053348 -0.049999
v 0.010212 0.053348 -0.049999
v -0.010212 0.053348 -0.031734
v 0.010212 0.053348 -0.031734
vn -1.0000 -0.0000 -0.0000
vn -0.0000 1.0000 -0.0000
vn 1.0000 -0.0000 -0.0000
vn -0.0000 -0.0000 1.0000
vn -0.0000 -0.0000 -1.0000
vn 0.9458 -0.0000 0.3248
vn -0.0000 -1.0000 -0.0000
vn -0.9458 -0.0000 0.3248
vn -0.7333 -0.0000 0.6799
vn 0.7333 -0.0000 0.6799
vn -0.4158 -0.0000 -0.9094
vn -0.0000 -0.8461 -0.5330
vn -0.0000 0.8461 -0.5330
vn 0.4158 -0.0000 -0.9094
vn 0.7506 0.6608 -0.0000
vn 0.7071 -0.7071 -0.0000
vn 0.7071 0.7071 -0.0000
vn -0.7071 0.7071 -0.0000
vn -0.7071 -0.7071 -0.0000
vn -0.7060 -0.7060 0.0561
vn -1.0000 -0.0000 -0.0096
vn 0.5917 -0.5917 0.5476
vn 0.8368 -0.0000 0.5476
vn 0.5917 0.5917 0.5476
vn -0.0000 0.8368 0.5476
vn -0.5917 0.5917 0.5476
vn -0.8368 -0.0000 0.5476
vn -0.5917 -0.5917 0.5476
vn -0.0000 -0.8368 0.5476
vn -0.0000 0.9587 0.2846
vn 0.7065 0.7065 0.0412
vn -0.7071 -0.7071 -0.0096
vn -0.0000 -0.9965 0.0831
vn 0.7060 -0.7060 0.0561
vn -0.0000 -1.0000 -0.0096
vn 0.7071 -0.7071 -0.0096
vn 1.0000 -0.0000 -0.0096
vn 0.7051 0.7051 -0.0751
vn 0.7071 0.7071 -0.0096
vn -0.0000 0.9948 -0.1020
vn -0.0000 1.0000 -0.0096
vn -0.7051 0.7051 -0.0751
vn -0.7071 0.7071 -0.0096
vn -0.0000 -0.9999 -0.0101
vn 0.7071 -0.7071 -0.0038
vn -0.0000 0.9983 0.0582
vn -0.6769 0.6769 0.2892
vn -0.7065 0.7065 0.0412
vn -0.9539 -0.0000 0.3003
vn -0.6720 -0.6720 0.3112
vn -0.7065 -0.7065 -0.0412
vn -0.0000 -0.9488 0.3158
vn 0.6720 -0.6720 0.3112
vn -0.0000 -0.9983 -0.0582
vn 0.7065 -0.7065 -0.0412
vn 0.9539 -0.0000 0.3003
vn 0.6769 0.6769 0.2892
vn 0.7071 -0.7071 -0.0072
vn 0.7071 0.7071 0.0038
vn 0.7071 0.7071 0.0072
vn -0.0000 1.0000 0.0054
vn -0.0000 0.9999 0.0101
vn -0.7071 0.7071 0.0038
vn -0.7071 0.7071 0.0072
vn -0.7071 -0.7071 -0.0038
vn -0.7071 -0.7071 -0.0072
vn -0.0000 -1.0000 -0.0054
vn -0.7071 -0.7071 -0.0124
vn -0.7062 -0.7062 0.0510
vn -0.0000 -0.9998 -0.0175
vn 0.7071 -0.7071 -0.0124
vn -0.0000 -0.9974 0.0720
vn 0.7062 -0.7062 0.0510
vn 0.7071 0.7071 0.0124
vn 0.7062 0.7062 -0.0510
vn -0.0000 0.9998 0.0175
vn -0.0000 0.9974 -0.0720
vn -0.7071 0.7071 0.0124
vn -0.7062 0.7062 -0.0510
vn 0.7071 0.7071 -0.0059
vn 0.7071 -0.7071 0.0059
vn -0.0000 -1.0000 0.0084
vn -0.7071 -0.7071 0.0059
vn -0.7071 0.7071 -0.0059
vn -0.0000 1.0000 -0.0084
vn 0.6720 0.6720 -0.3112
vn 0.7071 0.7071 -0.0032
vn 0.9539 -0.0000 -0.3003
vn 0.6769 -0.6769 -0.2892
vn 0.7071 -0.7071 0.0032
vn -0.0000 -0.9587 -0.2845
vn -0.0000 -1.0000 0.0045
vn -0.6769 -0.6769 -0.2892
vn -0.7071 -0.7071 0.0032
vn -0.9539 -0.0000 -0.3003
vn -0.6720 0.6720 -0.3112
vn -0.7071 0.7071 -0.0032
vn -0.0000 0.9488 -0.3158
vn -0.0000 1.0000 -0.0045
vn 0.9458 -0.0000 -0.3248
vn -0.9458 -0.0000 -0.3248
vn -0.7333 -0.0000 -0.6799
vn 0.7333 -0.0000 -0.6799
vn -0.4158 -0.0000 0.9094
vn -0.0000 -0.8461 0.5330
vn -0.0000 0.8461 0.5330
vn 0.4159 -0.0000 0.9094
vt 0.375000 0.000000
vt 0.625000 0.000000
vt 0.625000 0.250000
vt 0.375000 0.250000
vt 0.597219 0.321076
vt 0.597219 0.428924
vt 0.375000 0.500000
vt 0.625000 0.500000
vt 0.625000 0.750000
vt 0.375000 0.750000
vt 0.625000 1.000000
vt 0.375000 1.000000
vt 0.875000 0.500000
vt 0.875000 0.750000
vt 0.125000 0.500000
vt 0.125000 0.750000
vt 0.402781 0.321076
vt 0.402781 0.428923
vt 0.625000 0.750000
vt 0.625000 0.750000
vt 1.000000 0.000000
vt 1.000000 0.833333
vt 0.000000 0.833333
vt 0.000000 0.000000
vt 1.000000 0.500000
vt 1.000000 1.000000
vt 0.875000 1.000000
vt 0.750000 1.000000
vt 0.750000 0.500000
vt 0.500000 1.000000
vt 0.500000 0.500000
vt 0.250000 1.000000
vt 0.250000 0.500000
vt 0.419706 0.419706
vt 0.250000 0.490000
vt 0.080294 0.419706
vt 0.010000 0.250000
vt 0.080294 0.080294
vt 0.250000 0.010000
vt 0.419706 0.080294
vt 0.490000 0.250000
vt 0.125000 1.000000
vt 0.000000 1.000000
vt 0.000000 0.500000
vt 0.629535 0.250000
vt 0.664818 0.335182
vt 0.664818 0.164818
vt 0.629535 0.250000
vt 0.835182 0.335182
vt 0.750000 0.370465
vt 0.750000 0.490000
vt 0.919706 0.419706
vt 0.870465 0.250000
vt 0.990000 0.250000
vt 0.835182 0.164818
vt 0.919706 0.080294
vt 0.750000 0.129535
vt 0.750000 0.010000
vt 0.580294 0.080294
vt 0.510000 0.250000
vt 0.580294 0.419706
vt 0.835182 0.335182
vt 0.750000 0.370465
vt 0.870465 0.250000
vt 0.835182 0.164818
vt 0.750000 0.129535
vt 0.664818 0.335182
vt 0.835182 0.164818
vt 0.750000 0.129535
vt 0.664818 0.164818
vt 0.629535 0.250000
vt 0.664818 0.335182
vt 0.750000 0.370465
vt 0.835182 0.335182
vt 0.835182 0.164818
vt 0.870465 0.250000
vt 0.835182 0.335182
vt 0.664818 0.164818
vt 0.750000 0.129535
vt 0.835182 0.335182
vt 0.750000 0.370465
vt 0.664818 0.335182
vt 0.629535 0.250000
vt 0.664818 0.164818
s 0
usemtl _Darknut
f 105/25/16 74/26/16 76/27/16 106/13/16
f 106/13/3 76/27/3 78/28/3 107/29/3
f 107/29/17 78/28/17 80/11/17 108/8/17
f 108/8/2 80/11/2 82/30/2 109/31/2
f 109/31/18 82/30/18 84/12/18 110/7/18
f 110/7/1 84/12/1 86/32/1 111/33/1
f 76/34/5 74/35/5 88/36/5 86/37/5 84/38/5 82/39/5 80/40/5 78/41/5
f 111/33/19 86/32/19 88/42/19 112/15/19
f 112/15/7 88/42/7 74/43/7 105/44/7
f 85/45/20 87/46/20 128/46/20 127/45/20
f 113/25/16 90/26/16 92/27/16 114/13/16
f 114/13/3 92/27/3 94/28/3 115/29/3
f 115/29/17 94/28/17 96/11/17 116/8/17
f 116/8/2 96/11/2 98/30/2 117/31/2
f 117/31/18 98/30/18 100/12/18 118/7/18
f 118/7/1 100/12/1 102/32/1 119/33/1
f 92/34/5 90/35/5 104/36/5 102/37/5 100/38/5 98/39/5 96/40/5 94/41/5
f 119/33/19 102/32/19 104/42/19 120/15/19
f 120/15/7 104/42/7 90/43/7 113/44/7
f 99/47/21 101/48/21 135/48/21 134/47/21
f 75/49/22 73/50/22 105/51/22 106/52/22
f 77/53/23 75/49/23 106/52/23 107/54/23
f 79/55/24 77/53/24 107/54/24 108/56/24
f 81/57/25 79/55/25 108/56/25 109/58/25
f 83/47/26 81/57/26 109/58/26 110/59/26
f 85/45/27 83/47/27 110/59/27 111/60/27
f 87/46/28 85/45/28 111/60/28 112/61/28
f 73/50/29 87/46/29 112/61/29 105/51/29
f 91/62/22 89/63/22 113/51/22 114/52/22
f 93/64/23 91/62/23 114/52/23 115/54/23
f 95/65/24 93/64/24 115/54/24 116/56/24
f 97/66/25 95/65/25 116/56/25 117/58/25
f 99/47/26 97/66/26 117/58/26 118/59/26
f 101/48/27 99/47/27 118/59/27 119/60/27
f 103/67/28 101/48/28 119/60/28 120/61/28
f 89/63/29 103/67/29 120/61/29 113/51/29
f 207/68/30 194/69/30 141/57/30 140/55/30
f 131/64/31 132/65/31 148/65/31 147/64/31
f 101/48/32 103/67/32 136/67/32 135/48/32
f 87/46/33 73/50/33 121/50/33 128/46/33
f 73/50/34 75/49/34 122/49/34 121/50/34
f 103/67/35 89/63/35 129/63/35 136/67/35
f 89/63/36 91/62/36 130/62/36 129/63/36
f 75/49/37 77/53/37 123/53/37 122/49/37
f 91/62/37 93/64/37 131/64/37 130/62/37
f 77/53/38 79/55/38 124/55/38 123/53/38
f 93/64/39 95/65/39 132/65/39 131/64/39
f 79/55/40 81/57/40 125/57/40 124/55/40
f 95/65/41 97/66/41 133/66/41 132/65/41
f 81/57/42 83/47/42 126/47/42 125/57/42
f 97/66/43 99/47/43 134/47/43 133/66/43
f 83/47/21 85/45/21 127/45/21 126/47/21
f 152/67/44 145/63/44 161/63/44 168/67/44
f 137/50/45 138/49/45 154/49/45 153/50/45
f 132/65/46 133/66/46 149/66/46 148/65/46
f 194/69/47 196/70/47 142/47/47 141/57/47
f 133/66/48 134/47/48 150/47/48 149/66/48
f 196/70/49 198/71/49 143/45/49 142/47/49
f 134/47/1 135/48/1 151/48/1 150/47/1
f 198/71/50 200/72/50 144/46/50 143/45/50
f 135/48/51 136/67/51 152/67/51 151/48/51
f 200/72/52 202/73/52 137/50/52 144/46/52
f 202/73/53 204/74/53 138/49/53 137/50/53
f 136/67/54 129/63/54 145/63/54 152/67/54
f 129/63/55 130/62/55 146/62/55 145/63/55
f 204/74/56 206/64/56 139/53/56 138/49/56
f 130/62/3 131/64/3 147/64/3 146/62/3
f 206/64/57 207/68/57 140/55/57 139/53/57
f 166/47/1 167/48/1 183/48/1 182/47/1
f 158/47/1 159/45/1 175/45/1 174/47/1
f 145/63/58 146/62/58 162/62/58 161/63/58
f 138/49/3 139/53/3 155/53/3 154/49/3
f 146/62/3 147/64/3 163/64/3 162/62/3
f 139/53/59 140/55/59 156/55/59 155/53/59
f 147/64/60 148/65/60 164/65/60 163/64/60
f 140/55/61 141/57/61 157/57/61 156/55/61
f 148/65/62 149/66/62 165/66/62 164/65/62
f 141/57/63 142/47/63 158/47/63 157/57/63
f 149/66/64 150/47/64 166/47/64 165/66/64
f 142/47/1 143/45/1 159/45/1 158/47/1
f 150/47/1 151/48/1 167/48/1 166/47/1
f 143/45/65 144/46/65 160/46/65 159/45/65
f 151/48/66 152/67/66 168/67/66 167/48/66
f 144/46/67 137/50/67 153/50/67 160/46/67
f 169/50/4 170/49/4 171/53/4 172/55/4 173/57/4 174/47/4 175/45/4 176/46/4
f 177/63/4 178/62/4 179/64/4 180/65/4 181/66/4 182/47/4 183/48/4 184/67/4
f 159/45/68 160/46/68 176/46/68 175/45/68
f 167/48/69 168/67/69 184/67/69 183/48/69
f 160/46/70 153/50/70 169/50/70 176/46/70
f 153/50/71 154/49/71 170/49/71 169/50/71
f 168/67/72 161/63/72 177/63/72 184/67/72
f 161/63/73 162/62/73 178/62/73 177/63/73
f 154/49/3 155/53/3 171/53/3 170/49/3
f 162/62/3 163/64/3 179/64/3 178/62/3
f 155/53/74 156/55/74 172/55/74 171/53/74
f 163/64/75 164/65/75 180/65/75 179/64/75
f 156/55/76 157/57/76 173/57/76 172/55/76
f 164/65/77 165/66/77 181/66/77 180/65/77
f 157/57/78 158/47/78 174/47/78 173/57/78
f 165/66/79 166/47/79 182/47/79 181/66/79
f 123/53/80 124/55/80 186/75/80 192/76/80
f 122/49/3 123/53/3 192/76/3 191/77/3
f 121/50/81 122/49/81 191/77/81 190/50/81
f 128/46/82 121/50/82 190/50/82 189/72/82
f 127/45/83 128/46/83 189/72/83 188/45/83
f 126/47/1 127/45/1 188/45/1 187/78/1
f 125/57/84 126/47/84 187/78/84 185/79/84
f 124/55/85 125/57/85 185/79/85 186/75/85
f 192/76/86 186/75/86 208/68/86 205/76/86
f 205/76/87 208/68/87 207/68/87 206/64/87
f 191/77/88 192/76/88 205/76/88 203/80/88
f 203/80/3 205/76/3 206/64/3 204/74/3
f 190/50/89 191/77/89 203/80/89 201/81/89
f 201/81/90 203/80/90 204/74/90 202/73/90
f 189/72/91 190/50/91 201/81/91 199/82/91
f 199/82/92 201/81/92 202/73/92 200/72/92
f 188/45/93 189/72/93 199/82/93 197/83/93
f 197/83/94 199/82/94 200/72/94 198/71/94
f 187/78/95 188/45/95 197/83/95 195/84/95
f 195/84/1 197/83/1 198/71/1 196/70/1
f 185/79/96 187/78/96 195/84/96 193/79/96
f 193/79/97 195/84/97 196/70/97 194/69/97
f 186/75/98 185/79/98 193/79/98 208/68/98
f 208/68/99 193/79/99 194/69/99 207/68/99
usemtl _Mettle
f 1/1/1 2/2/1 29/3/1 30/4/1
f 4/5/2 8/6/2 36/6/2 33/5/2
f 31/7/3 32/8/3 6/9/3 5/10/3
f 5/10/4 6/9/4 2/11/4 1/12/4
f 31/7/3 5/10/3 24/10/3 23/7/3
f 32/8/5 29/3/5 10/3/5 11/8/5
f 11/8/2 10/13/2 9/14/2 12/9/2
f 6/9/3 32/8/3 11/8/3 12/9/3
f 29/3/1 2/2/1 9/2/1 10/3/1
f 6/9/6 12/9/6 15/9/6 13/9/6
f 14/11/7 13/9/7 17/9/7 18/11/7
f 9/2/8 2/2/8 14/2/8 16/2/8
f 12/9/2 9/14/2 16/14/2 15/9/2
f 2/11/7 6/9/7 13/9/7 14/11/7
f 18/11/4 17/9/4 19/9/4 20/11/4
f 16/2/1 14/2/1 18/2/1 20/2/1
f 15/9/2 16/14/2 20/14/2 19/9/2
f 13/9/3 15/9/3 19/9/3 17/9/3
f 21/15/7 23/7/7 24/10/7 22/16/7
f 1/1/9 22/1/9 27/1/9 25/1/9
f 30/4/5 31/7/5 23/7/5 21/4/5
f 1/1/1 30/4/1 21/4/1 22/1/1
f 26/10/4 25/12/4 27/12/4 28/10/4
f 24/10/10 5/10/10 26/10/10 28/10/10
f 5/10/2 1/12/2 25/12/2 26/10/2
f 22/16/7 24/10/7 28/10/7 27/16/7
f 4/5/11 3/17/11 30/4/11 29/3/11
f 3/17/12 7/18/12 31/7/12 30/4/12
f 8/6/13 4/5/13 29/3/13 32/8/13
f 7/18/14 8/6/14 32/8/14 31/7/14
f 34/17/5 33/5/5 36/6/5 35/18/5
f 3/17/1 4/5/1 33/5/1 34/17/1
f 8/6/3 7/18/3 35/18/3 36/6/3
f 7/18/7 3/17/7 34/17/7 35/18/7
f 47/11/7 46/9/7 41/9/7 42/11/7
f 42/11/4 41/9/4 43/9/4 44/11/4
f 49/2/1 47/2/1 42/2/1 44/2/1
f 51/19/3 52/19/3 250/19/3 252/19/3
f 46/9/3 51/19/3 43/9/3 41/9/3
f 38/2/5 40/2/5 39/9/5 37/9/5
f 37/9/3 39/9/3 52/19/3 45/9/3
f 51/19/4 46/9/4 54/9/4 55/19/4
f 40/2/1 50/2/1 249/2/1 246/2/1
f 39/9/5 40/2/5 246/2/5 245/9/5
f 40/2/1 38/2/1 48/2/1 50/2/1
f 47/2/4 49/2/4 63/2/4 61/2/4
f 38/11/7 37/9/7 45/9/7 48/11/7
f 48/11/7 45/9/7 46/9/7 47/11/7
f 53/9/15 56/20/15 55/19/15 54/9/15
f 52/19/2 51/19/2 55/19/2 56/20/2
f 54/9/4 46/9/4 58/9/4 60/9/4
f 45/9/5 52/19/5 56/20/5 53/9/5
f 58/9/7 57/9/7 59/9/7 60/9/7
f 53/9/3 54/9/3 60/9/3 59/9/3
f 46/9/1 45/9/1 57/9/1 58/9/1
f 45/9/5 53/9/5 59/9/5 57/9/5
f 64/2/1 62/2/1 61/2/1 63/2/1
f 49/14/2 50/14/2 64/14/2 63/14/2
f 62/2/5 48/2/5 66/2/5 68/2/5
f 50/2/5 48/2/5 62/2/5 64/2/5
f 66/11/7 65/11/7 67/11/7 68/11/7
f 47/2/4 61/2/4 67/2/4 65/2/4
f 48/11/3 47/11/3 65/11/3 66/11/3
f 61/2/1 62/2/1 68/2/1 67/2/1
f 70/21/3 72/22/3 71/23/3 69/24/3
f 209/1/1 238/4/1 237/3/1 210/2/1
f 212/5/2 241/5/2 244/6/2 216/6/2
f 239/7/3 213/10/3 214/9/3 240/8/3
f 213/10/5 209/12/5 210/11/5 214/9/5
f 239/7/3 231/7/3 232/10/3 213/10/3
f 240/8/4 219/8/4 218/3/4 237/3/4
f 219/8/2 220/9/2 217/14/2 218/13/2
f 214/9/3 220/9/3 219/8/3 240/8/3
f 237/3/1 218/3/1 217/2/1 210/2/1
f 214/9/100 221/9/100 223/9/100 220/9/100
f 222/11/7 226/11/7 225/9/7 221/9/7
f 217/2/101 224/2/101 222/2/101 210/2/101
f 220/9/2 223/9/2 224/14/2 217/14/2
f 210/11/7 222/11/7 221/9/7 214/9/7
f 226/11/5 228/11/5 227/9/5 225/9/5
f 224/2/1 228/2/1 226/2/1 222/2/1
f 223/9/2 227/9/2 228/14/2 224/14/2
f 221/9/3 225/9/3 227/9/3 223/9/3
f 229/15/7 230/16/7 232/10/7 231/7/7
f 209/1/102 233/1/102 235/1/102 230/1/102
f 238/4/4 229/4/4 231/7/4 239/7/4
f 209/1/1 230/1/1 229/4/1 238/4/1
f 234/10/5 236/10/5 235/12/5 233/12/5
f 232/10/103 236/10/103 234/10/103 213/10/103
f 213/10/2 234/10/2 233/12/2 209/12/2
f 230/16/7 235/16/7 236/10/7 232/10/7
f 212/5/104 237/3/104 238/4/104 211/17/104
f 211/17/105 238/4/105 239/7/105 215/18/105
f 216/6/106 240/8/106 237/3/106 212/5/106
f 215/18/107 239/7/107 240/8/107 216/6/107
f 242/17/4 243/18/4 244/6/4 241/5/4
f 211/17/1 242/17/1 241/5/1 212/5/1
f 216/6/3 244/6/3 243/18/3 215/18/3
f 215/18/7 243/18/7 242/17/7 211/17/7
f 252/19/2 251/14/2 248/14/2 247/9/2
f 245/9/2 246/14/2 249/14/2 250/19/2
f 250/19/2 249/14/2 251/14/2 252/19/2
f 50/14/1 49/14/1 251/14/1 249/14/1
f 52/19/3 39/9/3 245/9/3 250/19/3
f 43/9/3 51/19/3 252/19/3 247/9/3
f 49/2/1 44/2/1 248/2/1 251/2/1
f 44/11/4 43/9/4 247/9/4 248/11/4
o Palm
v -0.012179 -0.071179 -0.271872
v -0.012179 0.045078 -0.271872
v -0.012179 -0.071179 -0.304237
v -0.012179 0.045078 -0.334237
v 0.012179 -0.071179 -0.271872
v 0.012179 0.045078 -0.271872
v 0.012179 -0.071179 -0.304237
v 0.012179 0.045078 -0.334237
v -0.012179 -0.018051 -0.271872
v -0.012179 -0.018051 -0.334237
v 0.012179 -0.018051 -0.334237
v 0.012179 -0.018051 -0.271872
v -0.012179 -0.003447 -0.353489
v -0.012179 0.042312 -0.353489
v -0.012179 -0.003447 -0.390563
v -0.012179 0.042312 -0.390563
v 0.012179 -0.003447 -0.353489
v 0.012179 0.042312 -0.353489
v 0.012179 -0.003447 -0.390563
v 0.012179 0.042312 -0.390563
v -0.012179 -0.060974 -0.333489
v -0.012179 -0.016859 -0.363489
v -0.012179 -0.060974 -0.390563
v -0.012179 -0.016859 -0.390563
v 0.012179 -0.060974 -0.333489
v 0.012179 -0.016859 -0.363489
v 0.012179 -0.060974 -0.390563
v 0.012179 -0.016859 -0.390563
v -0.012179 -0.054919 -0.333489
v -0.012179 -0.054919 -0.390563
v 0.012179 -0.054919 -0.390563
v 0.012179 -0.054919 -0.333489
v 0.003995 -0.005033 -0.390563
v -0.003995 -0.005033 -0.390563
v -0.003995 0.044727 -0.390563
v 0.003995 0.044727 -0.390563
v -0.003995 -0.005033 -0.350803
v 0.003995 -0.005033 -0.350803
v 0.003995 0.044727 -0.350803
v -0.003995 0.044727 -0.350803
v 0.003995 -0.071179 -0.308128
v -0.003995 -0.071179 -0.308128
v -0.003995 0.045078 -0.338128
v 0.003995 0.045078 -0.338128
v -0.003995 -0.071179 -0.271872
v 0.003995 -0.071179 -0.271872
v 0.003995 0.045078 -0.271872
v -0.003995 0.045078 -0.271872
v 0.003995 -0.018051 -0.271872
v -0.003995 -0.018051 -0.271872
v -0.003995 -0.018051 -0.338128
v 0.003995 -0.018051 -0.338128
v 0.003995 -0.065033 -0.390563
v -0.003995 -0.065033 -0.390563
v -0.003995 -0.015273 -0.390563
v 0.003995 -0.015273 -0.390563
v -0.003995 -0.065033 -0.330803
v 0.003995 -0.065033 -0.330803
v 0.003995 -0.015273 -0.360803
v -0.003995 -0.015273 -0.360803
v 0.003995 -0.054919 -0.330803
v -0.003995 -0.054919 -0.330803
v -0.003995 -0.054919 -0.390563
v 0.003995 -0.054919 -0.390563
v -0.012179 -0.006046 -0.271872
v -0.012179 -0.006046 -0.334237
v 0.012179 -0.006046 -0.334237
v 0.012179 -0.006046 -0.271872
v 0.003995 -0.006046 -0.271872
v -0.003995 -0.006046 -0.271872
v -0.003995 -0.006046 -0.338128
v 0.003995 -0.006046 -0.338128
v -0.012179 0.037341 -0.271872
v -0.012179 0.037341 -0.334237
v 0.012179 0.037341 -0.334237
v 0.012179 0.037341 -0.271872
v 0.003995 0.037341 -0.271872
v -0.003995 0.037341 -0.271872
v -0.003995 0.037341 -0.338128
v 0.003995 0.037341 -0.338128
v -0.012179 0.037341 -0.353489
v -0.012179 0.037341 -0.390563
v 0.012179 0.037341 -0.390563
v 0.012179 0.037341 -0.353489
v 0.003995 0.037341 -0.350803
v -0.003995 0.037341 -0.350803
v -0.003995 0.037341 -0.390563
v 0.003995 0.037341 -0.390563
v -0.012179 -0.054919 -0.314125
v 0.012179 -0.054919 -0.314125
v 0.012179 -0.054919 -0.271872
v -0.012179 -0.054919 -0.271872
v -0.003995 -0.054919 -0.318016
v 0.003995 -0.054919 -0.318016
v 0.003995 -0.054919 -0.271872
v -0.003995 -0.054919 -0.271872
v -0.012179 -0.003447 -0.381683
v -0.012179 0.042312 -0.381683
v 0.012179 -0.003447 -0.381683
v 0.012179 0.042312 -0.381683
v 0.003995 0.044727 -0.381683
v -0.003995 0.044727 -0.381683
v -0.003995 -0.005033 -0.381683
v 0.003995 -0.005033 -0.381683
v 0.012179 0.037341 -0.381683
v -0.012179 0.037341 -0.381683
v -0.012179 -0.060974 -0.381683
v -0.012179 -0.016859 -0.381683
v 0.012179 -0.060974 -0.381683
v 0.012179 -0.016859 -0.381683
v 0.012179 -0.054919 -0.381683
v -0.012179 -0.054919 -0.381683
v 0.003995 -0.015273 -0.381683
v -0.003995 -0.015273 -0.381683
v -0.003995 -0.065033 -0.381683
v 0.003995 -0.065033 -0.381683
vn -1.0000 -0.0000 -0.0000
vn 0.4294 -0.0000 -0.9031
vn 1.0000 -0.0000 -0.0000
vn -0.0000 -0.0000 1.0000
vn -0.0000 -1.0000 -0.0000
vn -0.0000 1.0000 -0.0000
vn 0.3852 -0.4419 -0.8101
vn -0.0000 -0.0000 -1.0000
vn -0.3118 -0.0000 0.9501
vn 0.1903 -0.9817 -0.0000
vn -0.2830 0.9591 -0.0000
vn -0.3039 0.5823 0.7541
vn 0.4443 -0.8959 -0.0000
vn -0.1903 0.9817 -0.0000
vn 0.2830 0.9591 -0.0000
vn -0.1903 -0.9817 -0.0000
vn 0.3118 -0.0000 0.9501
vn -0.3852 -0.4419 -0.8101
vn -0.4294 -0.0000 -0.9031
vn 0.1903 0.9817 -0.0000
vn -0.4443 -0.8959 -0.0000
vn 0.3039 0.5823 0.7541
vn -0.3764 -0.4814 -0.7916
vn 0.3764 -0.4814 -0.7916
vn 0.2066 0.4686 0.8589
vn -0.0000 -0.5196 -0.8544
vt 0.615767 0.000000
vt 0.625000 0.000000
vt 0.625000 0.250000
vt 0.615767 0.250000
vt 0.615767 0.416667
vt 0.625000 0.416667
vt 0.625000 0.500000
vt 0.615767 0.500000
vt 0.625000 0.750000
vt 0.615767 0.750000
vt 0.615767 0.916667
vt 0.625000 0.916667
vt 0.625000 1.000000
vt 0.615767 1.000000
vt 0.291667 0.500000
vt 0.375000 0.500000
vt 0.375000 0.750000
vt 0.291667 0.750000
vt 0.791667 0.500000
vt 0.875000 0.500000
vt 0.875000 0.750000
vt 0.791667 0.750000
vt 0.394017 0.916667
vt 0.500000 0.916667
vt 0.500000 1.000000
vt 0.394017 1.000000
vt 0.394017 0.500000
vt 0.500000 0.500000
vt 0.500000 0.750000
vt 0.394017 0.750000
vt 0.394017 0.416667
vt 0.500000 0.416667
vt 0.394017 0.000000
vt 0.500000 0.000000
vt 0.500000 0.250000
vt 0.394017 0.250000
vt 0.609237 0.196365
vt 0.625000 0.196365
vt 0.609237 0.250000
vt 0.609237 0.416667
vt 0.625000 0.416667
vt 0.609237 0.500000
vt 0.609237 0.553635
vt 0.625000 0.553635
vt 0.609237 0.750000
vt 0.609237 0.916667
vt 0.609237 1.000000
vt 0.291667 0.553635
vt 0.375000 0.553635
vt 0.791667 0.553635
vt 0.875000 0.553635
vt 0.375000 0.250000
vt 0.375000 0.416667
vt 0.625000 0.500000
vt 0.375000 0.916667
vt 0.375000 1.000000
vt 0.375000 0.416667
vt 0.708333 0.553635
vt 0.708333 0.750000
vt 0.125000 0.553635
vt 0.208333 0.553635
vt 0.208333 0.750000
vt 0.125000 0.750000
vt 0.708333 0.500000
vt 0.625000 0.833333
vt 0.609237 0.833333
vt 0.625000 0.333333
vt 0.609237 0.333333
vt 0.500000 0.333333
vt 0.394017 0.333333
vt 0.500000 0.833333
vt 0.394017 0.833333
vt 0.708333 0.500000
vt 0.708333 0.750000
vt 0.125000 0.500000
vt 0.208333 0.500000
vt 0.208333 0.750000
vt 0.625000 0.833333
vt 0.615767 0.833333
vt 0.615767 0.333333
vt 0.375000 0.333333
vt 0.375000 0.833333
vt 0.375000 0.833333
vt 0.208333 0.500000
vt 0.375000 0.000000
vt 0.609237 0.000000
vt 0.375000 0.196365
vt 0.523770 0.250000
vt 0.523770 0.333333
vt 0.523770 0.833333
vt 0.523770 0.916667
vt 0.523771 0.750000
vt 0.523770 1.000000
vt 0.523770 0.500000
vt 0.523770 0.416667
vt 0.523770 0.000000
vt 0.000000 0.000000
vt 0.375000 0.416667
vt 0.208333 0.500000
vt 0.708333 0.500000
s 0
usemtl _Darknut
f 325/85/108 254/86/108 256/87/108 326/88/108
f 332/89/109 296/90/109 260/91/109 327/92/109
f 327/92/110 260/91/110 258/93/110 328/94/110
f 330/95/111 300/96/111 254/97/111 325/98/111
f 293/99/112 259/100/112 257/101/112 298/102/112
f 295/103/113 256/104/113 254/105/113 300/106/113
f 348/107/111 302/108/111 261/109/111 344/110/111
f 342/111/110 263/112/110 264/113/110 343/114/110
f 346/115/114 304/116/114 263/112/114 342/111/114
f 344/117/108 261/118/108 262/119/108 341/120/108
f 358/121/108 350/122/108 268/87/108 334/123/108
f 340/124/115 288/125/115 272/91/115 335/126/115
f 357/127/110 352/128/110 270/93/110 336/129/110
f 338/130/116 292/96/116 266/97/116 333/131/116
f 356/132/117 351/133/117 269/101/117 290/102/117
f 354/134/118 350/135/118 266/105/118 292/106/118
f 364/136/108 360/87/108 276/87/108 282/136/108
f 316/137/115 308/90/115 280/91/115 283/100/115
f 363/100/110 362/138/110 278/93/110 284/101/110
f 314/139/119 312/96/119 274/97/119 281/140/119
f 368/99/120 361/100/120 277/101/120 310/102/120
f 366/103/121 360/104/121 274/105/121 312/106/121
f 309/139/116 314/139/116 281/140/116 273/140/116
f 361/100/110 363/100/110 284/101/110 277/101/110
f 305/141/115 316/137/115 283/100/115 279/100/115
f 359/136/108 364/136/108 282/136/108 275/136/108
f 352/128/122 353/142/122 291/143/122 270/93/122
f 353/142/113 354/134/113 292/106/113 291/143/113
f 349/144/123 355/145/123 289/146/123 265/147/123
f 290/102/110 311/143/110 365/148/110 356/132/110
f 336/129/124 270/93/124 291/149/124 337/150/124
f 334/123/115 268/87/115 287/151/115 339/152/115
f 339/152/115 287/151/115 288/125/115 340/124/115
f 341/120/125 262/119/125 303/153/125 345/154/125
f 343/114/111 264/113/111 301/155/111 347/156/111
f 347/156/111 301/155/111 302/108/111 348/107/111
f 260/91/113 296/157/113 299/158/113 258/93/113
f 296/157/113 295/103/113 300/106/113 299/158/113
f 255/159/112 294/160/112 297/161/112 253/147/112
f 294/160/112 293/99/112 298/102/112 297/161/112
f 328/94/111 258/93/111 299/162/111 329/163/111
f 329/163/111 299/162/111 300/96/111 330/95/111
f 326/88/126 256/87/126 295/151/126 331/164/126
f 275/136/115 282/136/115 315/165/115 306/165/115
f 306/165/115 315/165/115 316/137/115 305/141/115
f 277/101/124 284/101/124 313/166/124 310/167/124
f 310/167/111 313/166/111 314/139/111 309/139/111
f 362/138/127 365/148/127 311/143/127 278/93/127
f 312/106/108 289/146/108 355/145/108 366/103/108
f 359/159/128 367/168/128 309/146/128 273/147/128
f 367/168/112 368/99/112 310/102/112 309/146/112
f 284/101/129 278/93/129 311/162/129 313/166/129
f 282/136/115 276/87/115 307/151/115 315/165/115
f 315/165/115 307/151/115 308/90/115 316/137/115
f 265/169/108 333/170/108 358/121/108 349/171/108
f 262/119/126 318/172/126 323/173/126 303/153/126
f 301/155/111 321/174/111 322/175/111 302/108/111
f 264/113/111 320/176/111 321/174/111 301/155/111
f 302/108/111 322/175/111 317/177/111 261/109/111
f 263/112/110 319/178/110 320/176/110 264/113/110
f 304/116/109 324/179/109 319/178/109 263/112/109
f 261/118/108 317/180/108 318/172/108 262/119/108
f 318/172/126 326/88/126 331/164/126 323/173/126
f 321/174/111 329/163/111 330/95/111 322/175/111
f 320/176/111 328/94/111 329/163/111 321/174/111
f 322/175/111 330/95/111 325/98/111 317/177/111
f 319/178/110 327/92/110 328/94/110 320/176/110
f 324/179/109 332/89/109 327/92/109 319/178/109
f 317/180/108 325/85/108 326/88/108 318/172/108
f 286/165/115 339/152/115 340/124/115 285/141/115
f 267/136/115 334/123/115 339/152/115 286/165/115
f 269/101/124 336/129/124 337/150/124 290/167/124
f 289/139/116 338/130/116 333/131/116 265/140/116
f 351/133/110 357/127/110 336/129/110 269/101/110
f 285/141/115 340/124/115 335/126/115 271/100/115
f 349/171/108 358/121/108 334/123/108 267/136/108
f 337/181/113 338/181/113 331/181/113 332/181/113
f 289/139/108 323/173/108 331/164/108 338/181/108
f 290/167/110 337/181/110 332/89/110 324/179/110
f 298/166/111 347/156/111 348/107/111 297/139/111
f 257/101/111 343/114/111 347/156/111 298/166/111
f 255/136/130 341/120/130 345/154/130 294/165/130
f 253/169/108 344/117/108 341/120/108 255/136/108
f 293/182/131 346/115/131 342/111/131 259/100/131
f 259/100/110 342/111/110 343/114/110 257/101/110
f 297/139/111 348/107/111 344/110/111 253/140/111
f 262/119/132 341/120/132 346/115/132 304/116/132
f 314/139/108 345/154/108 303/153/108 312/96/108
f 271/100/110 335/126/110 357/127/110 351/133/110
f 286/183/112 285/99/112 356/132/112 355/145/112
f 267/159/123 286/183/123 355/145/123 349/144/123
f 288/184/113 287/103/113 354/134/113 353/142/113
f 272/91/122 288/184/122 353/142/122 352/128/122
f 287/103/118 268/104/118 350/135/118 354/134/118
f 285/99/117 271/100/117 351/133/117 356/132/117
f 335/126/110 272/91/110 352/128/110 357/127/110
f 333/170/108 266/86/108 350/122/108 358/121/108
f 306/183/112 305/99/112 368/99/112 367/168/112
f 275/159/128 306/183/128 367/168/128 359/159/128
f 308/184/113 307/103/113 366/103/113 365/148/113
f 280/91/127 308/184/127 365/148/127 362/138/127
f 273/169/108 281/169/108 364/136/108 359/136/108
f 279/100/110 283/100/110 363/100/110 361/100/110
f 307/103/121 276/104/121 360/104/121 366/103/121
f 305/99/120 279/100/120 361/100/120 368/99/120
f 283/100/110 280/91/110 362/138/110 363/100/110
f 281/169/108 274/86/108 360/87/108 364/136/108
f 366/103/115 355/145/115 356/132/115 365/148/115
f 312/96/108 303/153/108 323/173/108 289/139/108
f 304/116/110 346/115/110 313/166/110 311/162/110
f 304/116/110 311/162/110 290/102/110 324/179/110
f 313/166/112 346/115/112 345/154/112 314/139/112
f 292/96/111 338/130/111 337/181/111 291/149/111
f 296/90/115 332/89/115 331/181/115 295/151/115
f 293/182/133 294/165/133 345/154/133 346/115/133
o F_Pinky
v 0.003941 -0.034268 -0.396915
v 0.003941 -0.053399 -0.396915
v 0.040686 -0.034268 -0.316534
v 0.040686 -0.053399 -0.316534
v 0.035218 -0.034268 -0.399756
v 0.035218 -0.053399 -0.399756
v 0.023484 -0.034268 -0.378545
v 0.023484 -0.053399 -0.378545
v 0.063195 -0.034268 -0.355480
v 0.063195 -0.053399 -0.355480
v 0.049046 -0.053399 -0.359876
v 0.049046 -0.034268 -0.359876
v 0.043903 -0.034268 -0.331400
v 0.043903 -0.053399 -0.331400
v 0.031405 -0.053399 -0.334104
v 0.031405 -0.034268 -0.334104
v 0.030721 -0.053399 -0.318690
v 0.028736 -0.053399 -0.321771
v 0.028736 -0.034268 -0.321771
v 0.030721 -0.034268 -0.318690
v 0.002374 -0.034268 -0.394793
v 0.002870 -0.034268 -0.391493
v 0.002870 -0.053399 -0.391493
v 0.002374 -0.053399 -0.394793
v 0.026223 -0.034268 -0.393142
v 0.026223 -0.053399 -0.393142
v 0.021005 -0.053399 -0.379240
v 0.021005 -0.034268 -0.379240
v 0.060662 -0.034268 -0.369852
v 0.060662 -0.053399 -0.369852
v 0.047054 -0.053399 -0.362005
v 0.047054 -0.034268 -0.362005
vn -0.0000 -1.0000 -0.0000
vn 0.8338 -0.0000 0.5520
vn 0.7687 -0.0000 0.6396
vn -0.0926 -0.0000 -0.9957
vn 0.3435 -0.0000 -0.9392
vn -0.0000 1.0000 -0.0000
vn -0.5739 0.0417 0.8178
vn -0.9023 -0.0000 0.4310
vn -0.5398 -0.0000 0.8418
vn 0.7604 0.0569 -0.6470
vn 0.9207 -0.0000 -0.3903
vn 0.7235 -0.0000 -0.6903
vn 0.9774 -0.0000 0.2115
vn -0.8045 -0.0000 -0.5940
vn -0.8930 -0.0000 -0.4500
vn -0.8104 -0.0000 -0.5859
vn -0.9774 -0.0000 -0.2115
vn -0.2115 -0.0000 0.9774
vn -0.5940 -0.0000 0.8045
vn -0.5536 0.1496 0.8193
vn -0.5536 -0.1496 0.8193
vn -0.8407 -0.0000 0.5416
vn -0.9888 -0.0000 0.1489
vn -0.2700 -0.0000 0.9629
vn -0.1228 -0.0000 0.9924
vn -0.5924 -0.0000 -0.8056
vn 0.2967 -0.0000 -0.9550
vn 0.2966 -0.0257 -0.9547
vn 0.5480 -0.0000 0.8365
vn 0.4352 -0.4910 0.7547
vn 0.4995 -0.0000 0.8663
vn 0.4766 -0.2994 0.8266
vt 0.625000 0.257168
vt 0.625000 0.493288
vt 0.625000 0.500000
vt 0.625000 0.250000
vt 0.625000 0.000000
vt 0.613256 0.000000
vt 0.613256 0.250000
vt 0.375000 0.250000
vt 0.375000 0.000000
vt 0.613256 0.750000
vt 0.613256 1.000000
vt 0.375000 1.000000
vt 0.375000 0.780208
vt 0.396385 0.750000
vt 0.625000 0.756712
vt 0.625000 0.750000
vt 0.625000 0.000000
vt 0.125000 0.500000
vt 0.344792 0.500000
vt 0.344792 0.750000
vt 0.125000 0.750000
vt 0.625000 1.000000
vt 0.625000 0.800665
vt 0.613256 0.500000
vt 0.396385 0.500000
vt 0.375000 0.469792
vt 0.625000 0.449335
vt 0.675665 0.500000
vt 0.875000 0.500000
vt 0.875000 0.750000
vt 0.675665 0.750000
vt 0.625000 0.985665
s 0
usemtl _Darknut
f 398/185/134 399/186/134 376/187/134 374/188/134
f 381/189/135 382/188/135 378/188/136 377/189/136
f 393/190/137 394/191/137 370/192/138 369/193/138
f 396/194/139 393/195/139 369/196/139 389/197/139 390/198/139
f 399/186/140 400/199/141 375/200/142 376/187/142
f 397/201/143 398/185/144 374/188/145 373/189/145
f 382/188/146 381/189/146 371/189/146 372/188/146
f 370/202/147 392/203/147 389/204/147 369/205/147
f 384/200/139 381/206/139 377/206/139 380/200/139
f 381/206/139 384/200/139 387/200/139 388/207/139 371/206/139
f 382/188/134 383/187/134 379/187/134 378/188/134
f 383/187/148 384/200/148 380/200/149 379/187/149
f 370/192/134 394/191/134 395/208/134 391/209/134 392/210/134
f 383/187/134 382/188/134 372/188/134 385/211/134 386/187/134
f 384/200/150 383/187/150 386/187/150 387/200/150
f 385/212/151 372/213/151 371/214/151 388/215/151
f 391/209/152 395/208/153 396/194/154 390/198/152
f 385/212/155 388/215/155 387/200/155 386/187/155
f 389/204/156 392/203/156 391/209/156 390/198/156
f 375/200/139 373/206/139 393/195/139 396/194/139
f 376/187/157 375/200/157 396/194/158 395/208/158
f 374/188/134 376/187/134 395/208/134 394/191/134
f 373/189/159 374/188/159 394/191/159 393/190/159
f 400/199/139 397/216/139 373/206/139 375/200/139
f 377/206/160 378/188/160 379/187/161 380/200/160
f 397/201/162 400/199/163 399/186/164 398/185/165
o F_Pointy
v 0.000291 0.041359 -0.386035
v 0.000291 0.022227 -0.386035
v 0.065421 0.041359 -0.347167
v 0.065421 0.022227 -0.347167
v 0.019837 0.041359 -0.410617
v 0.019837 0.022227 -0.410617
v 0.027074 0.041359 -0.387482
v 0.027074 0.022227 -0.387482
v 0.075514 0.041359 -0.391003
v 0.075514 0.022227 -0.391003
v 0.060698 0.022227 -0.391054
v 0.060698 0.041359 -0.391054
v 0.065621 0.041359 -0.367360
v 0.065621 0.022227 -0.367360
v 0.052245 0.022227 -0.366234
v 0.052245 0.041359 -0.366234
v 0.055261 0.022227 -0.346305
v 0.052460 0.022227 -0.348668
v 0.052460 0.041359 -0.348668
v 0.055261 0.041359 -0.346305
v 0.000744 0.041359 -0.383435
v 0.003473 0.041359 -0.381516
v 0.003473 0.022227 -0.381516
v 0.000744 0.022227 -0.383435
v 0.018408 0.041359 -0.399543
v 0.018408 0.022227 -0.399543
v 0.024859 0.022227 -0.386169
v 0.024859 0.041359 -0.386169
v 0.061446 0.041359 -0.403995
v 0.061446 0.022227 -0.403995
v 0.056944 0.022227 -0.389293
v 0.056944 0.041359 -0.389293
vn -0.0000 -1.0000 -0.0000
vn -0.7841 -0.0000 -0.6206
vn -0.4420 -0.0000 -0.8970
vn 0.9225 -0.0000 0.3860
vn -0.0000 1.0000 -0.0000
vn 0.0605 0.0325 0.9976
vn -0.3112 -0.0000 0.9504
vn 0.0930 -0.0000 0.9957
vn 0.9964 -0.0000 -0.0845
vn 0.9591 -0.0000 0.2829
vn 0.1571 0.0385 -0.9868
vn 0.3535 -0.0000 -0.9354
vn 0.1190 -0.0000 -0.9929
vn -0.9852 -0.0000 0.1716
vn -0.9466 -0.0000 -0.3224
vn -0.9964 -0.0000 0.0845
vn -0.9858 -0.0000 -0.1681
vn -0.9858 0.0001 -0.1681
vn 0.0846 -0.0000 0.9964
vn 0.1717 -0.0000 0.9852
vn 0.2102 0.1496 0.9661
vn 0.2102 -0.1496 0.9661
vn -0.6449 -0.0000 0.7643
vn -0.5752 -0.0000 0.8180
vn 0.5099 -0.0000 0.8603
vn 0.6328 -0.0000 0.7743
vn -0.9918 -0.0000 -0.1280
vn 0.9667 -0.0000 0.2557
vn 0.8890 -0.3681 0.2722
vn 0.9562 -0.0000 0.2928
vn 0.9364 -0.2021 0.2868
vn 0.0035 -0.0000 -1.0000
vt 0.625000 0.257948
vt 0.625000 0.493945
vt 0.625000 0.500000
vt 0.625000 0.250000
vt 0.613256 0.000000
vt 0.613256 0.250000
vt 0.375000 0.250000
vt 0.375000 0.000000
vt 0.625000 0.000000
vt 0.613256 0.750000
vt 0.613256 1.000000
vt 0.375000 1.000000
vt 0.375000 0.780208
vt 0.396385 0.750000
vt 0.625000 0.756055
vt 0.625000 0.750000
vt 0.625000 0.000000
vt 0.125000 0.500000
vt 0.344792 0.500000
vt 0.344792 0.750000
vt 0.125000 0.750000
vt 0.625000 1.000000
vt 0.625000 0.800665
vt 0.625000 0.449335
vt 0.613256 0.500000
vt 0.396385 0.500000
vt 0.375000 0.469792
vt 0.675665 0.500000
vt 0.875000 0.500000
vt 0.875000 0.750000
vt 0.675665 0.750000
vt 0.625000 0.984104
s 0
usemtl _Darknut
f 430/217/166 431/218/166 408/219/166 406/220/166
f 425/221/167 426/222/167 402/223/168 401/224/168
f 410/220/169 409/225/169 413/225/169 414/220/169
f 428/226/170 425/227/170 401/228/170 421/229/170 422/230/170
f 431/218/171 432/231/172 407/232/173 408/219/173
f 404/220/174 414/220/175 413/225/175 403/225/174
f 429/233/176 430/217/177 406/220/178 405/225/178
f 402/234/179 424/235/179 421/236/179 401/237/179
f 403/238/170 413/238/170 416/232/170 419/232/170 420/239/170
f 418/219/166 415/219/166 414/220/166 404/220/166 417/240/166
f 409/238/170 412/232/170 416/232/170 413/238/170
f 411/219/166 410/220/166 414/220/166 415/219/166
f 412/232/180 411/219/180 415/219/180 416/232/180
f 419/232/181 416/232/182 415/219/183 418/219/181
f 402/223/166 426/222/166 427/241/166 423/242/166 424/243/166
f 417/244/184 404/245/184 403/246/184 420/247/184
f 423/242/185 427/241/186 428/226/187 422/230/185
f 417/244/188 420/247/188 419/232/188 418/219/188
f 421/236/189 424/235/189 423/242/189 422/230/189
f 407/232/170 405/238/170 425/227/170 428/226/170
f 408/219/190 407/232/190 428/226/191 427/241/191
f 406/220/166 408/219/166 427/241/166 426/222/166
f 405/225/192 406/220/192 426/222/192 425/221/192
f 432/231/170 429/248/170 405/238/170 407/232/170
f 429/233/193 432/231/194 431/218/195 430/217/196
f 409/238/197 410/220/197 411/219/197 412/232/197
o F_Thunb
v -0.002212 0.062213 -0.287688
v -0.002212 0.062213 -0.306820
v 0.055553 -0.001154 -0.287688
v 0.055553 -0.001154 -0.306820
v 0.029183 0.063063 -0.287688
v 0.029183 0.063063 -0.306820
v 0.016126 0.042639 -0.287688
v 0.016126 0.042639 -0.306820
v 0.060728 0.055917 -0.287688
v 0.060728 0.055917 -0.306820
v 0.053936 0.042111 -0.306820
v 0.053936 0.042111 -0.287688
v 0.057482 0.013933 -0.287688
v 0.057482 0.013933 -0.306820
v 0.044799 0.015555 -0.306820
v 0.044799 0.015555 -0.287688
v 0.045440 0.000139 -0.306820
v 0.043198 0.003039 -0.306820
v 0.043198 0.003039 -0.287688
v 0.045440 0.000139 -0.287688
v -0.003910 0.060194 -0.287688
v -0.003624 0.056870 -0.287688
v -0.003624 0.056870 -0.306820
v -0.003910 0.060194 -0.306820
v 0.074407 0.041381 -0.287688
v 0.074407 0.041381 -0.306820
v 0.059101 0.042946 -0.306820
v 0.059101 0.042946 -0.287688
vn -0.0000 -0.0000 1.0000
vn -0.0000 -0.0000 -1.0000
vn 0.8970 -0.4385 0.0563
vn 0.8080 -0.4930 0.3227
vn 0.8516 -0.5241 -0.0000
vn -0.3305 -0.9438 -0.0000
vn -0.6438 -0.7652 -0.0000
vn -0.0140 -0.9999 -0.0000
vn 0.9919 -0.1269 -0.0000
vn -0.7652 0.6438 -0.0000
vn 0.2209 0.9753 -0.0000
vn -0.9919 0.1269 -0.0000
vn -0.1269 -0.9919 -0.0000
vn 0.8973 -0.4414 -0.0000
vn -0.7911 -0.6117 -0.0000
vn -0.9963 -0.0858 -0.0000
vn -0.5400 0.8416 -0.0000
vn 0.4024 0.9155 -0.0000
vn 0.0852 0.3112 0.9465
vn -0.0255 0.0631 0.9977
vn -0.9280 0.3726 -0.0000
vn -0.8649 0.4991 0.0535
vn -0.9392 0.3434 -0.0000
vn 0.4172 0.9088 0.0045
vn 0.0450 0.9942 -0.0975
vn 0.1008 0.9863 0.1303
vn 0.0483 0.9979 0.0421
vn 0.1296 -0.0133 -0.9915
vn 0.0631 -0.0933 -0.9936
vt 0.625000 1.000000
vt 0.625000 0.750000
vt 0.625000 0.500000
vt 0.625000 0.250000
vt 0.625000 0.249293
vt 0.625000 0.000000
vt 0.396385 0.750000
vt 0.396385 0.500000
vt 0.125000 0.500000
vt 0.344792 0.500000
vt 0.344792 0.750000
vt 0.125000 0.750000
vt 0.625000 0.800665
vt 0.375000 0.469792
vt 0.375000 0.250000
vt 0.625000 0.449335
vt 0.675665 0.500000
vt 0.875000 0.500000
vt 0.875000 0.750000
vt 0.675665 0.750000
vt 0.375000 1.000000
vt 0.375000 0.780208
vt 0.375000 0.000000
vt 0.625000 1.001414
vt 0.625000 0.748396
vt 0.625000 0.501604
s 0
usemtl _Darknut
f 437/249/198 439/250/198 444/250/198 441/249/198
f 440/251/199 438/252/199 442/252/199 443/251/199
f 458/253/200 457/254/201 445/254/202 446/252/202
f 440/251/203 439/250/203 454/255/204 455/256/204
f 439/250/205 440/251/205 443/251/205 444/250/205
f 446/252/206 445/254/206 435/254/206 436/252/206
f 434/257/207 456/258/207 453/259/207 433/260/207
f 438/252/208 437/254/208 441/254/208 442/252/208
f 445/249/198 448/250/198 451/250/198 452/261/198 435/249/198
f 438/252/199 440/251/199 455/256/199 456/262/199 434/263/199
f 447/251/199 446/252/199 436/252/199 449/264/199 450/251/199
f 448/250/209 447/251/209 450/251/209 451/250/209
f 449/265/210 436/266/210 435/267/210 452/268/210
f 439/250/198 437/249/198 433/269/198 453/270/198 454/255/198
f 444/250/211 443/251/211 442/252/211 441/254/211
f 449/265/212 452/268/212 451/250/212 450/251/212
f 453/259/213 456/258/213 455/256/213 454/255/213
f 437/254/214 438/252/214 434/263/215 433/271/215
f 448/250/198 445/249/198 457/272/216 460/273/217
f 447/251/218 448/250/218 460/273/219 459/274/220
f 457/254/221 458/253/222 459/274/223 460/273/224
f 446/252/199 447/251/199 459/274/225 458/253/226
