# Blender 4.3.2
# www.blender.org
mtllib armv2_2_spike.mtl
o Spike
v 0.017409 -0.010701 -0.400998
v 0.017409 -0.092200 -0.400998
v -0.017409 -0.010701 -0.400998
v -0.017409 -0.092200 -0.400998
v 0.017409 -0.072582 -0.400998
v -0.017409 -0.072582 -0.400998
v 0.017409 -0.092200 -0.264550
v -0.017409 -0.092200 -0.264550
v 0.017409 -0.072582 -0.264550
v -0.017409 -0.072582 -0.264550
v 0.017409 -0.118942 -0.360998
v -0.017409 -0.118942 -0.360998
v 0.017409 -0.296872 -0.400739
v -0.017409 -0.296872 -0.400739
v 0.017409 -0.250621 -0.377607
v 0.017409 -0.204001 -0.364839
v 0.017409 -0.159412 -0.360998
v -0.017409 -0.250621 -0.377607
v -0.017409 -0.204001 -0.364839
v -0.017409 -0.159412 -0.360998
v 0.017409 -0.118942 -0.382818
v -0.017409 -0.118942 -0.382818
v -0.017409 -0.285625 -0.419437
v 0.017409 -0.285625 -0.419437
v 0.017409 -0.154611 -0.382818
v 0.017409 -0.164213 -0.382818
v 0.017409 -0.159412 -0.378016
v 0.013292 -0.159412 -0.382818
v 0.017409 -0.196482 -0.385877
v 0.017409 -0.206008 -0.387090
v 0.017409 -0.201851 -0.381721
v 0.013292 -0.201245 -0.386484
v 0.017409 -0.239156 -0.396782
v 0.017409 -0.248264 -0.399824
v 0.017409 -0.245231 -0.393749
v 0.013292 -0.243710 -0.398303
v -0.017409 -0.164213 -0.382818
v -0.017409 -0.154611 -0.382818
v -0.017409 -0.159412 -0.378016
v -0.013292 -0.159412 -0.382818
v -0.017409 -0.206008 -0.387090
v -0.017409 -0.196482 -0.385877
v -0.017409 -0.201851 -0.381721
v -0.013292 -0.201245 -0.386484
v -0.017409 -0.248264 -0.399824
v -0.017409 -0.239156 -0.396782
v -0.017409 -0.245231 -0.393749
v -0.013292 -0.243710 -0.398303
v -0.000000 -0.120350 -0.420682
v -0.000000 -0.090626 -0.420682
v 0.004716 -0.120350 -0.418729
v 0.004716 -0.090626 -0.418729
v 0.006669 -0.120350 -0.414013
v 0.006669 -0.090626 -0.414013
v 0.004716 -0.120350 -0.409297
v 0.004716 -0.090626 -0.409297
v -0.000000 -0.120350 -0.407344
v -0.000000 -0.090626 -0.407344
v -0.004716 -0.120350 -0.409297
v -0.004716 -0.090626 -0.409297
v -0.006669 -0.120350 -0.414013
v -0.006669 -0.090626 -0.414013
v -0.004716 -0.120350 -0.418729
v -0.004716 -0.090626 -0.418729
v -0.000000 -0.095176 -0.419076
v 0.003580 -0.095176 -0.417593
v 0.005063 -0.095176 -0.414013
v 0.003580 -0.095176 -0.410433
v -0.000000 -0.095176 -0.408949
v -0.003580 -0.095176 -0.410433
v -0.005063 -0.095176 -0.414013
v -0.003580 -0.095176 -0.417593
v 0.003580 -0.115934 -0.417593
v 0.005063 -0.115934 -0.414013
v 0.003580 -0.115934 -0.410433
v -0.000000 -0.115934 -0.408949
v -0.003580 -0.115934 -0.410433
v -0.005063 -0.115934 -0.414013
v -0.003580 -0.115934 -0.417593
v -0.000000 -0.115934 -0.419076
v -0.000000 -0.095176 -0.420682
v 0.004716 -0.095176 -0.418729
v 0.006669 -0.095176 -0.414013
v 0.004716 -0.095176 -0.409297
v -0.000000 -0.095176 -0.407344
v -0.004716 -0.095176 -0.409297
v -0.006669 -0.095176 -0.414013
v -0.004716 -0.095176 -0.418729
v 0.004716 -0.115934 -0.418729
v 0.006669 -0.115934 -0.414013
v 0.004716 -0.115934 -0.409297
v -0.000000 -0.115934 -0.407344
v -0.004716 -0.115934 -0.409297
v -0.006669 -0.115934 -0.414013
v -0.004716 -0.115934 -0.418729
v -0.000000 -0.115934 -0.420682
v -0.000000 -0.120350 -0.440202
v -0.000000 -0.090626 -0.440202
v 0.004716 -0.120350 -0.438249
v 0.004716 -0.090626 -0.438249
v 0.006669 -0.120350 -0.433534
v 0.006669 -0.090626 -0.433534
v 0.004716 -0.120350 -0.428818
v 0.004716 -0.090626 -0.428818
v -0.000000 -0.120350 -0.426865
v -0.000000 -0.090626 -0.426865
v -0.004716 -0.120350 -0.428818
v -0.004716 -0.090626 -0.428818
v -0.006669 -0.120350 -0.433534
v -0.006669 -0.090626 -0.433534
v -0.004716 -0.120350 -0.438249
v -0.004716 -0.090626 -0.438249
v -0.000000 -0.095176 -0.438597
v 0.003580 -0.095176 -0.437114
v 0.005063 -0.095176 -0.433534
v 0.003580 -0.095176 -0.429953
v -0.000000 -0.095176 -0.428470
v -0.003580 -0.095176 -0.429953
v -0.005063 -0.095176 -0.433534
v -0.003580 -0.095176 -0.437114
v 0.003580 -0.115934 -0.437114
v 0.005063 -0.115934 -0.433534
v 0.003580 -0.115934 -0.429953
v -0.000000 -0.115934 -0.428470
v -0.003580 -0.115934 -0.429953
v -0.005063 -0.115934 -0.433534
v -0.003580 -0.115934 -0.437114
v -0.000000 -0.115934 -0.438597
v -0.000000 -0.095176 -0.440202
v 0.004716 -0.095176 -0.438249
v 0.006669 -0.095176 -0.433534
v 0.004716 -0.095176 -0.428818
v -0.000000 -0.095176 -0.426865
v -0.004716 -0.095176 -0.428818
v -0.006669 -0.095176 -0.433534
v -0.004716 -0.095176 -0.438249
v 0.004716 -0.115934 -0.438249
v 0.006669 -0.115934 -0.433534
v 0.004716 -0.115934 -0.428818
v -0.000000 -0.115934 -0.426865
v -0.004716 -0.115934 -0.428818
v -0.006669 -0.115934 -0.433534
v -0.004716 -0.115934 -0.438249
v -0.000000 -0.115934 -0.440202
v -0.000000 -0.139910 -0.368381
v -0.000000 -0.166704 -0.359038
v 0.004716 -0.141864 -0.368381
v -0.004716 -0.168657 -0.359038
v 0.006669 -0.146579 -0.368381
v -0.006669 -0.173372 -0.359038
v 0.004716 -0.151295 -0.368381
v -0.004716 -0.178088 -0.359038
v -0.000000 -0.153248 -0.368381
v -0.000000 -0.180041 -0.359038
v -0.004716 -0.151295 -0.368381
v 0.004716 -0.178088 -0.359038
v -0.006669 -0.146579 -0.368381
v 0.006669 -0.173372 -0.359038
v -0.004716 -0.141864 -0.368381
v 0.004716 -0.168657 -0.359038
v -0.000000 -0.168309 -0.357552
v -0.003580 -0.169792 -0.357552
v -0.005063 -0.173372 -0.357552
v -0.003580 -0.176953 -0.357552
v -0.000000 -0.178436 -0.357552
v 0.003580 -0.176953 -0.357552
v 0.005063 -0.173372 -0.357552
v 0.003580 -0.169792 -0.357552
v 0.003580 -0.142999 -0.357552
v 0.005063 -0.146579 -0.357552
v 0.003580 -0.150160 -0.357552
v -0.000000 -0.151643 -0.357552
v -0.003580 -0.150160 -0.357552
v -0.005063 -0.146579 -0.357552
v -0.003580 -0.142999 -0.357552
v -0.000000 -0.141516 -0.357552
v -0.004716 -0.168657 -0.368381
v -0.006669 -0.173372 -0.368381
v -0.004716 -0.178088 -0.368381
v -0.000000 -0.180041 -0.368381
v 0.004716 -0.178088 -0.368381
v 0.006669 -0.173372 -0.368381
v 0.004716 -0.168657 -0.368381
v -0.000000 -0.166704 -0.368381
v 0.004716 -0.141864 -0.359038
v 0.006669 -0.146579 -0.359038
v 0.004716 -0.151295 -0.359038
v -0.000000 -0.153248 -0.359038
v -0.004716 -0.151295 -0.359038
v -0.006669 -0.146579 -0.359038
v -0.004716 -0.141864 -0.359038
v -0.000000 -0.139910 -0.359038
v -0.000000 -0.041966 -0.458412
v 0.007519 -0.045081 -0.458412
v 0.010633 -0.052599 -0.458412
v 0.007519 -0.060118 -0.458412
v -0.000000 -0.063232 -0.458412
v -0.007519 -0.060118 -0.458412
v -0.010633 -0.052599 -0.458412
v -0.007519 -0.045081 -0.458412
v -0.000000 -0.038595 -0.458412
v 0.009903 -0.042696 -0.458412
v 0.014005 -0.052599 -0.458412
v 0.009903 -0.062502 -0.458412
v -0.000000 -0.066604 -0.458412
v -0.009903 -0.062502 -0.458412
v -0.014005 -0.052599 -0.458412
v -0.009903 -0.042696 -0.458412
v -0.000000 -0.052599 -0.584827
v -0.000000 -0.049904 -0.581100
v 0.001905 -0.050694 -0.581100
v 0.002695 -0.052599 -0.581100
v 0.001905 -0.054505 -0.581100
v -0.000000 -0.055294 -0.581100
v -0.001905 -0.054505 -0.581100
v -0.002695 -0.052599 -0.581100
v -0.001905 -0.050694 -0.581100
v -0.000000 -0.041966 -0.471301
v 0.007519 -0.045081 -0.471301
v 0.010633 -0.052599 -0.471301
v 0.007519 -0.060118 -0.471301
v -0.000000 -0.063232 -0.471301
v -0.007519 -0.060118 -0.471301
v -0.010633 -0.052599 -0.471301
v -0.007519 -0.045081 -0.471301
v -0.000000 -0.036174 -0.455018
v 0.011614 -0.040985 -0.455018
v 0.016425 -0.052599 -0.455018
v 0.011614 -0.064214 -0.455018
v -0.000000 -0.069025 -0.455018
v -0.011614 -0.064214 -0.455018
v -0.016425 -0.052599 -0.455018
v -0.011614 -0.040985 -0.455018
v -0.000000 -0.036174 -0.441428
v 0.011614 -0.040985 -0.441428
v 0.016425 -0.052599 -0.441428
v 0.011614 -0.064214 -0.441428
v -0.000000 -0.069025 -0.441428
v -0.011614 -0.064214 -0.441428
v -0.016425 -0.052599 -0.441428
v -0.011614 -0.040985 -0.441428
v 0.008147 -0.120135 -0.365567
v -0.008147 -0.120135 -0.365567
v 0.008147 -0.120135 -0.398789
v -0.008147 -0.120135 -0.398789
v -0.008147 -0.090260 -0.365567
v 0.008147 -0.090260 -0.365567
v -0.008147 -0.090260 -0.398789
v 0.008147 -0.090260 -0.398789
v 0.017409 -0.010701 -0.443277
v 0.012409 -0.010701 -0.448277
v 0.012409 -0.092200 -0.448277
v 0.017409 -0.092200 -0.443277
v -0.012409 -0.010701 -0.448277
v -0.017409 -0.010701 -0.443277
v -0.017409 -0.092200 -0.443277
v -0.012409 -0.092200 -0.448277
v 0.012409 -0.072582 -0.448277
v 0.017409 -0.072582 -0.443277
v -0.012409 -0.072582 -0.448277
v -0.017409 -0.072582 -0.443277
v 0.017409 -0.118942 -0.442673
v 0.012000 -0.118942 -0.448277
v -0.012000 -0.118942 -0.448277
v -0.017409 -0.118942 -0.442673
v 0.012000 -0.251882 -0.475529
v 0.017409 -0.254705 -0.470837
v -0.017409 -0.254705 -0.470837
v -0.012000 -0.251882 -0.475529
v -0.011984 -0.227532 -0.461913
v -0.017409 -0.229302 -0.456611
v -0.017409 -0.220198 -0.453558
v -0.011958 -0.218424 -0.458872
v -0.013292 -0.226276 -0.450515
v -0.007838 -0.224495 -0.455848
v -0.011954 -0.197740 -0.452025
v -0.017409 -0.198460 -0.446368
v -0.017409 -0.188930 -0.445189
v -0.011954 -0.188214 -0.450812
v -0.013292 -0.194303 -0.441003
v -0.007821 -0.193582 -0.446666
v -0.011958 -0.164213 -0.448277
v -0.017409 -0.164213 -0.442592
v -0.017409 -0.154611 -0.442649
v -0.011984 -0.154611 -0.448277
v -0.013292 -0.159412 -0.437805
v -0.007838 -0.159412 -0.443486
v 0.017409 -0.164213 -0.442592
v 0.011958 -0.164213 -0.448277
v 0.011984 -0.154611 -0.448277
v 0.017409 -0.154611 -0.442649
v 0.007838 -0.159412 -0.443486
v 0.013292 -0.159412 -0.437805
v 0.017409 -0.198460 -0.446368
v 0.011954 -0.197740 -0.452025
v 0.011954 -0.188214 -0.450812
v 0.017409 -0.188930 -0.445189
v 0.007821 -0.193582 -0.446666
v 0.013292 -0.194303 -0.441003
v 0.017409 -0.229302 -0.456611
v 0.011984 -0.227532 -0.461913
v 0.011958 -0.218424 -0.458872
v 0.017409 -0.220198 -0.453558
v 0.007838 -0.224495 -0.455848
v 0.013292 -0.226276 -0.450515
vn -0.0000 -1.0000 -0.0000
vn -0.0000 1.0000 -0.0000
vn 1.0000 -0.0000 -0.0000
vn -0.0000 -0.0000 -1.0000
vn -1.0000 -0.0000 -0.0000
vn -0.0000 -0.0000 1.0000
vn -0.7591 0.6457 0.0822
vn -0.7591 -0.6174 -0.2062
vn -0.0000 -0.4473 0.8944
vn -0.0000 -0.8569 -0.5155
vn -0.0000 -0.0858 0.9963
vn -0.0000 -0.2641 0.9645
vn -0.7591 -0.6457 -0.0822
vn -0.7591 0.6509 -0.0000
vn -0.0000 0.4881 -0.8728
vn 0.7591 -0.6457 -0.0822
vn 0.7591 -0.6509 -0.0000
vn 0.6362 -0.5455 -0.5455
vn 0.6362 0.5455 -0.5455
vn 0.6362 -0.4723 -0.6101
vn 0.6362 0.6101 -0.4723
vn 0.6362 -0.3447 -0.6902
vn 0.6362 0.6902 -0.3447
vn -0.6362 0.5455 -0.5455
vn -0.6362 -0.5455 -0.5455
vn -0.6362 0.6101 -0.4723
vn -0.6362 -0.4723 -0.6101
vn -0.6362 0.6902 -0.3447
vn -0.6362 -0.3447 -0.6902
vn -0.0000 0.7064 -0.7078
vn 0.7591 0.6509 -0.0000
vn -0.0000 0.7901 -0.6130
vn -0.0000 0.8942 -0.4477
vn -0.0000 -0.7064 -0.7078
vn -0.7591 -0.6509 -0.0000
vn -0.0000 -0.6113 -0.7914
vn -0.0000 0.1050 -0.9945
vn -0.0000 -0.4458 -0.8951
vn -0.0000 0.3143 -0.9493
vn 0.7591 0.6457 0.0822
vn 0.7591 0.6174 0.2062
vn 0.7591 -0.6174 -0.2062
vn -0.7591 0.6174 0.2062
vn 0.3827 -0.0000 -0.9239
vn 0.9239 -0.0000 -0.3827
vn 0.9239 -0.0000 0.3827
vn 0.3827 -0.0000 0.9239
vn -0.3827 -0.0000 0.9239
vn -0.9239 -0.0000 0.3827
vn -0.9239 -0.0000 -0.3827
vn -0.3827 -0.0000 -0.9239
vn 0.3827 0.9239 -0.0000
vn 0.9239 0.3827 -0.0000
vn 0.9239 -0.3827 -0.0000
vn 0.3827 -0.9239 -0.0000
vn -0.3827 -0.9239 -0.0000
vn -0.9239 -0.3827 -0.0000
vn -0.9239 0.3827 -0.0000
vn -0.3827 0.9239 -0.0000
vn -0.2708 0.6538 0.7065
vn 0.2708 0.6538 0.7065
vn 0.6538 0.2708 0.7065
vn 0.6538 -0.2708 0.7065
vn 0.2708 -0.6538 0.7065
vn -0.2708 -0.6538 0.7065
vn -0.6538 -0.2708 0.7065
vn -0.6538 0.2708 0.7065
vn 0.3182 0.7683 -0.5554
vn 0.7683 0.3182 -0.5554
vn 0.7683 -0.3182 -0.5554
vn 0.3182 -0.7683 -0.5554
vn -0.3182 -0.7683 -0.5554
vn -0.7683 -0.3182 -0.5554
vn -0.7683 0.3182 -0.5554
vn -0.3182 0.7683 -0.5554
vn 0.3818 0.9218 -0.0666
vn 0.9218 0.3818 -0.0666
vn 0.9218 -0.3818 -0.0666
vn 0.3818 -0.9218 -0.0666
vn -0.3818 -0.9218 -0.0666
vn -0.9218 -0.3818 -0.0666
vn -0.9218 0.3818 -0.0666
vn -0.3818 0.9218 -0.0666
vn -0.3196 0.7715 -0.5502
vn -0.7715 0.3196 -0.5502
vn -0.7715 -0.3196 -0.5502
vn -0.3196 -0.7715 -0.5502
vn 0.3196 -0.7715 -0.5502
vn 0.7715 -0.3196 -0.5502
vn 0.7715 0.3196 -0.5502
vn 0.3196 0.7715 -0.5502
vn 0.7071 -0.0000 -0.7071
vn -0.7071 -0.0000 -0.7071
vn -0.4379 0.7948 -0.4202
vn -0.4361 -0.7961 -0.4195
vn -0.4380 0.8417 -0.3157
vn -0.4368 -0.7363 -0.5167
vn -0.4344 0.8885 -0.1478
vn -0.4348 -0.6206 -0.6526
vn 0.4379 0.7948 -0.4202
vn 0.4361 -0.7961 -0.4195
vn 0.4380 0.8417 -0.3157
vn 0.4368 -0.7363 -0.5167
vn 0.4344 0.8885 -0.1478
vn 0.4348 -0.6206 -0.6526
vn -0.7113 0.3434 -0.6133
vn -0.7164 0.2192 -0.6624
vn 0.7164 0.2192 -0.6624
vn 0.7113 0.3434 -0.6133
vn -0.7201 0.0726 -0.6900
vn 0.7201 0.0726 -0.6900
vn -0.7197 -0.0004 -0.6942
vn 0.7197 -0.0004 -0.6942
vt 0.625000 0.500000
vt 0.625000 0.723561
vt 0.660901 0.750000
vt 0.839099 0.750000
vt 0.875000 0.723561
vt 0.875000 0.500000
vt 0.576271 0.500000
vt 0.576271 0.250000
vt 0.375000 0.016052
vt 0.375000 0.187500
vt 0.419348 0.187500
vt 0.419348 0.016122
vt 0.576271 0.026439
vt 0.625000 0.250000
vt 0.625000 0.026439
vt 0.576271 0.785901
vt 0.375000 0.642298
vt 0.375000 0.107702
vt 0.576271 0.964099
vt 0.375000 0.500000
vt 0.375000 0.723561
vt 0.576271 0.723561
vt 0.576271 0.723561
vt 0.625000 0.723561
vt 0.375000 0.250000
vt 0.125000 0.500000
vt 0.125000 0.723561
vt 0.160901 0.750000
vt 0.339099 0.750000
vt 0.375000 0.723561
vt 0.375000 0.788838
vt 0.375000 0.961162
vt 0.419348 0.961045
vt 0.419348 0.788955
vt 0.481605 0.562500
vt 0.475636 0.562500
vt 0.475636 0.732359
vt 0.481605 0.733666
vt 0.525953 0.562500
vt 0.519984 0.562500
vt 0.519984 0.733954
vt 0.525953 0.732625
vt 0.525953 0.250000
vt 0.525953 0.500000
vt 0.375000 0.562500
vt 0.419348 0.562500
vt 0.425318 0.548747
vt 0.425318 0.500000
vt 0.576271 0.562500
vt 0.576271 0.187500
vt 0.475636 0.201253
vt 0.475636 0.250000
vt 0.525953 0.201253
vt 0.519984 0.187500
vt 0.481605 0.187500
vt 0.425318 0.250000
vt 0.425318 0.201253
vt 0.531923 0.187500
vt 0.475636 0.500000
vt 0.125000 0.562500
vt 0.125000 0.733948
vt 0.163838 0.750000
vt 0.336162 0.750000
vt 0.375000 0.733948
vt 0.375000 0.733948
vt 0.419348 0.733878
vt 0.419348 0.562500
vt 0.469666 0.562500
vt 0.469666 0.733764
vt 0.475636 0.732359
vt 0.576271 0.734317
vt 0.576271 0.633487
vt 0.576271 0.116513
vt 0.576271 0.015683
vt 0.431288 0.562500
vt 0.425318 0.562500
vt 0.425318 0.732445
vt 0.431288 0.733717
vt 0.531923 0.562500
vt 0.531923 0.733990
vt 0.576271 0.734317
vt 0.525953 0.548747
vt 0.475636 0.548747
vt 0.525953 0.548747
vt 0.425318 0.548747
vt 0.475636 0.548747
vt 0.531923 0.788955
vt 0.531923 0.961045
vt 0.576271 0.961162
vt 0.576271 0.788838
vt 0.475636 0.017641
vt 0.469666 0.016236
vt 0.469666 0.187500
vt 0.475636 0.187500
vt 0.425318 0.017555
vt 0.419348 0.016122
vt 0.425318 0.187500
vt 0.531923 0.016011
vt 0.576271 0.015683
vt 0.431288 0.187500
vt 0.431288 0.187500
vt 0.481605 0.187500
vt 0.519984 0.187500
vt 0.525953 0.187500
vt 0.531923 0.187500
vt 0.419348 0.562500
vt 0.469666 0.562500
vt 0.519984 0.562500
vt 0.431288 0.789141
vt 0.425318 0.801292
vt 0.425318 0.948708
vt 0.431287 0.960859
vt 0.431287 0.016283
vt 0.425318 0.017555
vt 0.481605 0.789172
vt 0.475636 0.801448
vt 0.475636 0.948552
vt 0.481605 0.960828
vt 0.431288 0.733717
vt 0.525953 0.801292
vt 0.525953 0.948708
vt 0.481605 0.733666
vt 0.425318 0.801292
vt 0.419348 0.788955
vt 0.425318 0.732445
vt 0.469666 0.789172
vt 0.469666 0.960828
vt 0.431287 0.789141
vt 0.469666 0.960828
vt 0.469666 0.789172
vt 0.525953 0.801292
vt 0.519984 0.789141
vt 0.519984 0.960859
vt 0.525953 0.948708
vt 0.431287 0.016283
vt 0.469666 0.016236
vt 0.481605 0.016334
vt 0.475636 0.017641
vt 0.481605 0.187500
vt 0.481605 0.016334
vt 0.519984 0.016046
vt 0.531923 0.016010
vt 0.525953 0.017375
vt 0.525953 0.017375
vt 0.519984 0.016046
vt 0.525953 0.732625
vt 1.000000 0.929906
vt 1.000000 1.000000
vt 0.875000 1.000000
vt 0.875000 0.929906
vt 0.750000 1.000000
vt 0.750000 0.929907
vt 0.625000 1.000000
vt 0.625000 0.929907
vt 0.500000 1.000000
vt 0.500000 0.929907
vt 0.375000 1.000000
vt 0.375000 0.929906
vt 0.250000 1.000000
vt 0.250000 0.929907
vt 0.125000 1.000000
vt 0.125000 0.929907
vt 0.000000 1.000000
vt 0.000000 0.929907
vt 0.125000 0.579439
vt 0.125000 0.929907
vt 0.000000 0.929907
vt 0.000000 0.579439
vt 0.250000 0.579439
vt 0.250000 0.929907
vt 0.375000 0.579439
vt 0.500000 0.579439
vt 0.500000 0.929907
vt 0.625000 0.579439
vt 0.625000 0.929907
vt 0.750000 0.579439
vt 0.875000 0.579439
vt 1.000000 0.579439
vt 1.000000 0.929907
vt 1.000000 0.579439
vt 0.750000 0.579439
vt 0.625000 0.579439
vt 0.500000 0.579439
vt 0.250000 0.579439
vt 0.000000 0.500000
vt 0.250000 0.500000
vt 0.500000 0.500000
vt 0.750000 0.500000
vt 1.000000 0.500000
vt 0.125000 0.882116
vt 0.000000 0.882116
vt 0.250000 0.882116
vt 0.375000 0.882116
vt 0.500000 0.882116
vt 0.625000 0.882116
vt 0.750000 0.882116
vt 0.875000 0.882116
vt 1.000000 0.882116
vt 1.000000 0.813084
vt 1.000000 0.871495
vt 0.875000 0.871495
vt 0.875000 0.813084
vt 0.750000 0.871495
vt 0.750000 0.813084
vt 0.625000 0.871495
vt 0.625000 0.813084
vt 0.500000 0.871495
vt 0.500000 0.813084
vt 0.375000 0.871495
vt 0.375000 0.813084
vt 0.250000 0.871495
vt 0.250000 0.813084
vt 0.125000 0.871495
vt 0.125000 0.813084
vt 0.000000 0.871495
vt 0.125000 0.937376
vt 0.000000 0.937376
vt 0.250000 0.937376
vt 0.375000 0.937376
vt 0.500000 0.937376
vt 0.625000 0.937376
vt 0.750000 0.937375
vt 0.875000 0.937375
vt 1.000000 0.937376
vt 0.125000 0.964703
vt 0.000000 0.964703
vt 0.250000 0.964703
vt 0.375000 0.964703
vt 0.500000 0.964703
vt 0.625000 0.964703
vt 0.750000 0.964702
vt 0.875000 0.964702
vt 1.000000 0.964703
vt 0.576271 0.785901
vt 0.576271 0.964099
vt 0.625000 0.964099
vt 0.625000 0.785901
vt 0.576271 1.000000
vt 0.375000 0.000000
vt 0.425318 1.000000
vt 0.428705 1.000000
vt 0.421905 1.000000
vt 0.479476 0.000000
vt 0.475636 0.000000
vt 0.471796 0.000000
vt 0.529805 0.000000
vt 0.525953 0.000000
vt 0.522112 0.000000
vt 0.519984 0.000000
vt 0.481605 0.000000
vt 0.576271 0.000000
vt 0.531923 0.000000
vt 0.469666 0.000000
vt 0.431287 0.000000
vt 0.419348 1.000000
vt 0.375000 0.026439
vt 0.576271 0.026439
s 0
usemtl _Mettle
f 4/1/1 256/2/1 257/3/1 252/4/1 253/5/1 2/6/1
f 6/7/2 10/7/2 9/8/2 5/8/2
f 262/9/3 21/10/3 25/11/3 291/12/3
f 259/13/3 5/8/3 2/14/3 253/15/3
f 260/16/4 254/17/4 251/18/4 258/19/4
f 3/20/5 255/21/5 261/22/5 6/7/5
f 6/7/5 261/23/5 256/24/5 4/1/5
f 1/25/6 3/20/6 6/7/6 5/8/6
f 1/26/2 250/27/2 251/28/2 254/29/2 255/30/2 3/20/2
f 9/8/6 10/7/6 8/1/6 7/14/6
f 2/6/1 7/6/1 8/1/1 4/1/1
f 4/1/5 8/1/5 10/7/5 6/7/5
f 5/8/3 9/8/3 7/14/3 2/14/3
f 264/31/4 263/32/4 290/33/4 285/34/4
f 41/35/7 44/36/7 280/37/7 277/38/7
f 48/39/8 46/40/8 272/41/8 274/42/8
f 15/43/9 18/44/9 14/7/9 13/8/9
f 12/20/5 22/45/5 38/46/5 39/47/5 20/48/5
f 23/49/10 24/50/10 13/8/10 14/7/10
f 31/51/3 16/52/3 15/43/3 35/53/3 33/54/3 30/55/3
f 21/10/3 11/25/3 17/56/3 27/57/3 25/11/3
f 35/53/3 15/43/3 13/8/3 24/50/3 34/58/3
f 11/25/6 12/20/6 20/48/6 17/56/6
f 17/56/11 20/48/11 19/59/11 16/52/11
f 16/52/12 19/59/12 18/44/12 15/43/12
f 21/60/2 262/61/2 263/62/2 264/63/2 265/64/2 22/45/2
f 22/45/5 265/65/5 284/66/5 38/67/5
f 44/36/13 42/68/13 278/69/13 280/70/13
f 268/71/10 269/72/10 266/73/10 267/74/10 24/50/10 23/49/10
f 37/75/14 40/76/14 286/77/14 283/78/14
f 45/79/5 271/80/5 268/81/5 23/49/5
f 18/44/5 47/82/5 45/79/5 23/49/5 14/7/5
f 19/59/5 43/83/5 41/35/5 46/40/5 47/84/5 18/44/5
f 20/48/5 39/85/5 37/75/5 42/68/5 43/86/5 19/59/5
f 270/87/15 301/88/15 266/89/15 269/90/15
f 299/91/16 297/92/16 29/93/16 32/94/16
f 293/95/17 291/96/17 25/11/17 28/97/17
f 300/98/3 34/58/3 24/50/3 267/99/3
f 27/57/3 17/56/3 16/52/3 31/51/3 29/93/3 26/100/3
f 11/26/2 21/60/2 22/45/2 12/20/2
f 25/11/18 27/57/18 28/97/18
f 28/97/19 27/57/19 26/101/19
f 29/93/20 31/51/20 32/94/20
f 32/94/21 31/51/21 30/102/21
f 33/103/22 35/53/22 36/104/22
f 36/104/23 35/53/23 34/105/23
f 37/75/24 39/47/24 40/76/24
f 40/76/25 39/47/25 38/106/25
f 41/35/26 43/86/26 44/36/26
f 44/36/27 43/86/27 42/107/27
f 45/79/28 47/84/28 48/39/28
f 48/39/29 47/84/29 46/108/29
f 282/109/30 287/110/30 292/111/30 289/112/30
f 288/113/31 293/114/31 28/97/31 26/101/31
f 276/115/32 281/116/32 298/117/32 295/118/32
f 37/75/5 283/119/5 278/69/5 42/68/5
f 270/87/33 275/120/33 304/121/33 301/88/33
f 41/35/5 277/122/5 272/41/5 46/40/5
f 287/123/34 285/124/34 290/33/34 292/111/34
f 40/76/35 38/67/35 284/66/35 286/125/35
f 281/116/36 279/126/36 296/127/36 298/117/36
f 282/128/37 289/112/37 296/129/37 279/130/37
f 275/131/38 273/132/38 302/133/38 304/134/38
f 276/115/39 295/118/39 302/133/39 273/132/39
f 288/135/3 26/101/3 29/93/3 297/136/3
f 294/137/40 299/138/40 32/94/40 30/139/40
f 294/140/3 30/139/3 33/103/3 303/141/3
f 300/142/41 305/143/41 36/104/41 34/58/41
f 305/144/42 303/145/42 33/103/42 36/104/42
f 45/79/43 48/39/43 274/146/43 271/80/43
f 242/26/1 243/20/1 245/45/1 244/60/1
f 247/26/2 249/60/2 248/45/2 246/20/2
f 245/45/4 248/45/4 249/60/4 244/60/4
f 243/20/5 246/20/5 248/45/5 245/45/5
f 244/60/3 249/60/3 247/26/3 242/26/3
f 242/26/6 247/26/6 246/20/6 243/20/6
f 260/234/4 258/235/4 252/236/4 257/237/4
f 259/238/92 253/153/92 252/236/92 258/235/92
f 261/22/93 255/21/93 254/17/93 260/16/93
f 250/239/92 259/238/92 258/19/92 251/18/92
f 256/24/93 261/23/93 260/234/93 257/237/93
f 283/78/94 286/77/94 287/110/94 282/109/94
f 286/125/95 284/66/95 285/124/95 287/123/95
f 277/38/96 280/37/96 281/116/96 276/115/96
f 280/70/97 278/69/97 279/126/97 281/116/97
f 271/80/98 274/146/98 275/120/98 270/87/98
f 274/42/99 272/41/99 273/132/99 275/131/99
f 289/112/100 292/111/100 293/240/100 288/241/100
f 292/111/101 290/33/101 291/242/101 293/240/101
f 295/243/102 298/244/102 299/138/102 294/137/102
f 298/244/103 296/245/103 297/92/103 299/91/103
f 301/246/104 304/247/104 305/143/104 300/142/104
f 304/247/105 302/248/105 303/145/105 305/144/105
f 268/81/106 271/80/106 270/87/106 269/90/106
f 276/115/107 273/132/107 272/41/107 277/122/107
f 302/249/108 295/250/108 294/140/108 303/141/108
f 266/251/109 301/252/109 300/98/109 267/99/109
f 282/128/110 279/130/110 278/69/110 283/119/110
f 296/253/111 289/254/111 288/135/111 297/136/111
f 264/31/112 285/34/112 284/66/112 265/65/112
f 290/33/113 263/32/113 262/157/113 291/255/113
f 250/256/3 1/25/3 5/8/3 259/257/3
usemtl _Darknut
f 81/147/44 50/148/44 52/149/44 82/150/44
f 82/150/45 52/149/45 54/151/45 83/152/45
f 83/152/46 54/151/46 56/153/46 84/154/46
f 84/154/47 56/153/47 58/155/47 85/156/47
f 85/156/48 58/155/48 60/157/48 86/158/48
f 86/158/49 60/157/49 62/159/49 87/160/49
f 87/160/50 62/159/50 64/161/50 88/162/50
f 88/162/51 64/161/51 50/163/51 81/164/51
f 96/180/2 80/178/2 73/177/2 89/177/2
f 89/177/2 73/177/2 74/176/2 90/181/2
f 90/181/2 74/176/2 75/174/2 91/182/2
f 91/182/2 75/174/2 76/172/2 92/183/2
f 92/183/2 76/172/2 77/171/2 93/171/2
f 93/171/2 77/171/2 78/169/2 94/184/2
f 94/184/2 78/169/2 79/165/2 95/165/2
f 95/165/2 79/165/2 80/168/2 96/168/2
f 72/166/1 88/162/1 81/164/1 65/167/1
f 71/170/1 87/160/1 88/162/1 72/166/1
f 70/158/1 86/158/1 87/160/1 71/170/1
f 69/173/1 85/156/1 86/158/1 70/158/1
f 68/175/1 84/154/1 85/156/1 69/173/1
f 67/152/1 83/152/1 84/154/1 68/175/1
f 66/150/1 82/150/1 83/152/1 67/152/1
f 65/179/1 81/147/1 82/150/1 66/150/1
f 63/26/51 95/165/51 96/168/51 49/185/51
f 61/186/50 94/184/50 95/165/50 63/26/50
f 59/20/49 93/171/49 94/184/49 61/186/49
f 57/187/48 92/183/48 93/171/48 59/20/48
f 55/1/47 91/182/47 92/183/47 57/187/47
f 53/188/46 90/181/46 91/182/46 55/1/46
f 51/6/45 89/177/45 90/181/45 53/188/45
f 49/189/44 96/180/44 89/177/44 51/6/44
f 129/147/44 98/148/44 100/149/44 130/150/44
f 130/150/45 100/149/45 102/151/45 131/152/45
f 131/152/46 102/151/46 104/153/46 132/154/46
f 132/154/47 104/153/47 106/155/47 133/156/47
f 133/156/48 106/155/48 108/157/48 134/158/48
f 134/158/49 108/157/49 110/159/49 135/160/49
f 135/160/50 110/159/50 112/161/50 136/162/50
f 136/162/51 112/161/51 98/163/51 129/164/51
f 144/180/2 128/178/2 121/177/2 137/177/2
f 137/177/2 121/177/2 122/176/2 138/181/2
f 138/181/2 122/176/2 123/174/2 139/182/2
f 139/182/2 123/174/2 124/172/2 140/183/2
f 140/183/2 124/172/2 125/171/2 141/171/2
f 141/171/2 125/171/2 126/169/2 142/184/2
f 142/184/2 126/169/2 127/165/2 143/165/2
f 143/165/2 127/165/2 128/168/2 144/168/2
f 120/166/1 136/162/1 129/164/1 113/167/1
f 119/170/1 135/160/1 136/162/1 120/166/1
f 118/158/1 134/158/1 135/160/1 119/170/1
f 117/173/1 133/156/1 134/158/1 118/158/1
f 116/175/1 132/154/1 133/156/1 117/173/1
f 115/152/1 131/152/1 132/154/1 116/175/1
f 114/150/1 130/150/1 131/152/1 115/152/1
f 113/179/1 129/147/1 130/150/1 114/150/1
f 111/26/51 143/165/51 144/168/51 97/185/51
f 109/186/50 142/184/50 143/165/50 111/26/50
f 107/20/49 141/171/49 142/184/49 109/186/49
f 105/187/48 140/183/48 141/171/48 107/20/48
f 103/1/47 139/182/47 140/183/47 105/187/47
f 101/188/46 138/181/46 139/182/46 103/1/46
f 99/6/45 137/177/45 138/181/45 101/188/45
f 97/189/44 144/180/44 137/177/44 99/6/44
f 184/189/52 146/180/52 160/177/52 183/6/52
f 183/6/53 160/177/53 158/181/53 182/188/53
f 182/188/54 158/181/54 156/182/54 181/1/54
f 181/1/55 156/182/55 154/183/55 180/187/55
f 180/187/56 154/183/56 152/171/56 179/20/56
f 179/20/57 152/171/57 150/184/57 178/186/57
f 178/186/58 150/184/58 148/165/58 177/26/58
f 177/26/59 148/165/59 146/168/59 184/185/59
f 161/168/6 162/165/6 163/169/6 164/171/6 165/172/6 166/174/6 167/176/6 168/177/6
f 148/165/60 162/165/60 161/168/60 146/168/60
f 192/180/61 176/178/61 169/177/61 185/177/61
f 185/177/62 169/177/62 170/176/62 186/181/62
f 186/181/63 170/176/63 171/174/63 187/182/63
f 187/182/64 171/174/64 172/172/64 188/183/64
f 188/183/65 172/172/65 173/171/65 189/171/65
f 189/171/66 173/171/66 174/169/66 190/184/66
f 190/184/67 174/169/67 175/165/67 191/165/67
f 191/165/60 175/165/60 176/168/60 192/168/60
f 150/184/67 163/169/67 162/165/67 148/165/67
f 152/171/66 164/171/66 163/169/66 150/184/66
f 154/183/65 165/172/65 164/171/65 152/171/65
f 156/182/64 166/174/64 165/172/64 154/183/64
f 158/181/63 167/176/63 166/174/63 156/182/63
f 160/177/62 168/177/62 167/176/62 158/181/62
f 146/180/61 161/178/61 168/177/61 160/177/61
f 176/168/6 175/165/6 174/169/6 173/171/6 172/172/6 171/174/6 170/176/6 169/177/6
f 159/26/59 191/165/59 192/168/59 145/185/59
f 157/186/58 190/184/58 191/165/58 159/26/58
f 155/20/57 189/171/57 190/184/57 157/186/57
f 153/187/56 188/183/56 189/171/56 155/20/56
f 151/1/55 187/182/55 188/183/55 153/187/55
f 149/188/54 186/181/54 187/182/54 151/1/54
f 147/6/53 185/177/53 186/181/53 149/188/53
f 145/189/52 192/180/52 185/177/52 147/6/52
f 200/166/4 208/162/4 201/164/4 193/167/4
f 199/170/4 207/160/4 208/162/4 200/166/4
f 198/158/4 206/158/4 207/160/4 199/170/4
f 197/173/4 205/156/4 206/158/4 198/158/4
f 196/175/4 204/154/4 205/156/4 197/173/4
f 195/152/4 203/152/4 204/154/4 196/175/4
f 194/150/4 202/150/4 203/152/4 195/152/4
f 193/179/4 201/147/4 202/150/4 194/150/4
f 208/162/84 233/216/84 226/217/84 201/164/84
f 207/160/85 232/218/85 233/216/85 208/162/85
f 206/158/86 231/219/86 232/218/86 207/160/86
f 205/156/87 230/220/87 231/219/87 206/158/87
f 204/154/88 229/221/88 230/220/88 205/156/88
f 203/152/89 228/222/89 229/221/89 204/154/89
f 202/150/90 227/223/90 228/222/90 203/152/90
f 201/147/91 226/224/91 227/223/91 202/150/91
f 233/216/59 241/225/59 234/226/59 226/217/59
f 232/218/58 240/227/58 241/225/58 233/216/58
f 231/219/57 239/228/57 240/227/57 232/218/57
f 230/220/56 238/229/56 239/228/56 231/219/56
f 229/221/55 237/230/55 238/229/55 230/220/55
f 228/222/54 236/231/54 237/230/54 229/221/54
f 227/223/53 235/232/53 236/231/53 228/222/53
f 226/224/52 234/233/52 235/232/52 227/223/52
usemtl _Blue
f 79/165/51 72/166/51 65/167/51 80/168/51
f 78/169/50 71/170/50 72/166/50 79/165/50
f 77/171/49 70/158/49 71/170/49 78/169/49
f 76/172/48 69/173/48 70/158/48 77/171/48
f 75/174/47 68/175/47 69/173/47 76/172/47
f 74/176/46 67/152/46 68/175/46 75/174/46
f 73/177/45 66/150/45 67/152/45 74/176/45
f 80/178/44 65/179/44 66/150/44 73/177/44
usemtl _Red
f 127/165/51 120/166/51 113/167/51 128/168/51
f 126/169/50 119/170/50 120/166/50 127/165/50
f 125/171/49 118/158/49 119/170/49 126/169/49
f 124/172/48 117/173/48 118/158/48 125/171/48
f 123/174/47 116/175/47 117/173/47 124/172/47
f 122/176/46 115/152/46 116/175/46 123/174/46
f 121/177/45 114/150/45 115/152/45 122/176/45
f 128/178/44 113/179/44 114/150/44 121/177/44
usemtl _Chromes
f 225/190/59 200/166/59 193/167/59 218/191/59
f 224/192/58 199/170/58 200/166/58 225/190/58
f 223/193/57 198/158/57 199/170/57 224/192/57
f 222/194/56 197/173/56 198/158/56 223/193/56
f 221/195/55 196/175/55 197/173/55 222/194/55
f 220/196/54 195/152/54 196/175/54 221/195/54
f 219/197/53 194/150/53 195/152/53 220/196/53
f 218/198/52 193/179/52 194/150/52 219/197/52
f 209/199/68 210/200/68 211/201/68
f 209/202/69 211/201/69 212/203/69
f 209/204/70 212/203/70 213/205/70
f 209/206/71 213/205/71 214/207/71
f 209/208/72 214/207/72 215/209/72
f 209/210/73 215/209/73 216/211/73
f 209/212/74 216/211/74 217/213/74
f 209/214/75 217/213/75 210/215/75
f 210/200/76 218/198/76 219/197/76 211/201/76
f 211/201/77 219/197/77 220/196/77 212/203/77
f 212/203/78 220/196/78 221/195/78 213/205/78
f 213/205/79 221/195/79 222/194/79 214/207/79
f 214/207/80 222/194/80 223/193/80 215/209/80
f 215/209/81 223/193/81 224/192/81 216/211/81
f 216/211/82 224/192/82 225/190/82 217/213/82
f 217/213/83 225/190/83 218/191/83 210/215/83
