# Blender 4.3.2
# www.blender.org
mtllib armv2_6_fuelholder.mtl
o BézierCurve.001
v 0.005811 0.058820 -0.474232
v 0.000154 0.061163 -0.474196
v -0.005502 0.058820 -0.474232
v -0.007846 0.053164 -0.474318
v -0.005502 0.047508 -0.474404
v 0.000154 0.045165 -0.474440
v 0.005811 0.047508 -0.474404
v 0.008154 0.053164 -0.474318
v 0.006780 0.058479 -0.459494
v 0.001193 0.060803 -0.458559
v -0.004399 0.058442 -0.457754
v -0.006720 0.052780 -0.457549
v -0.004410 0.047133 -0.458065
v 0.001178 0.044809 -0.459000
v 0.006769 0.047170 -0.459805
v 0.009090 0.052832 -0.460010
v 0.009166 0.058158 -0.449833
v 0.003838 0.060456 -0.447878
v -0.001489 0.058068 -0.446031
v -0.003695 0.052394 -0.445375
v -0.001487 0.046758 -0.446294
v 0.003841 0.044460 -0.448249
v 0.009168 0.046847 -0.450095
v 0.011374 0.052521 -0.450752
v 0.012327 0.058059 -0.443225
v 0.007326 0.060356 -0.440541
v 0.002403 0.057968 -0.437793
v 0.000443 0.052293 -0.436590
v 0.002593 0.046657 -0.437636
v 0.007594 0.044360 -0.440320
v 0.012517 0.046748 -0.443068
v 0.014477 0.052422 -0.444272
v 0.015969 0.058411 -0.437447
v 0.010947 0.060706 -0.434800
v 0.006184 0.058337 -0.431767
v 0.004471 0.052693 -0.430126
v 0.006810 0.047079 -0.430837
v 0.011832 0.044785 -0.433484
v 0.016594 0.047153 -0.436517
v 0.018308 0.052798 -0.438158
v 0.019663 0.059561 -0.430534
v 0.014220 0.061719 -0.428741
v 0.009217 0.059272 -0.426197
v 0.007584 0.053654 -0.424391
v 0.010278 0.048156 -0.424382
v 0.015720 0.045998 -0.426175
v 0.020723 0.048445 -0.428719
v 0.022356 0.054063 -0.430524
v 0.022454 0.061806 -0.420976
v 0.016657 0.063690 -0.420397
v 0.011381 0.061033 -0.418788
v 0.009716 0.055390 -0.417093
v 0.012637 0.050067 -0.416303
v 0.018434 0.048183 -0.416882
v 0.023711 0.050840 -0.418491
v 0.025376 0.056483 -0.420186
v 0.023435 0.065291 -0.407484
v 0.017548 0.066909 -0.407953
v 0.012195 0.064023 -0.407248
v 0.010510 0.058322 -0.405781
v 0.013482 0.053146 -0.404412
v 0.019368 0.051527 -0.403942
v 0.024722 0.054414 -0.404648
v 0.026406 0.060115 -0.406115
v 0.022065 0.069261 -0.392266
v 0.016303 0.070587 -0.393859
v 0.011062 0.067436 -0.394168
v 0.009413 0.061654 -0.393014
v 0.012320 0.056628 -0.391071
v 0.018082 0.055302 -0.389478
v 0.023322 0.058453 -0.389169
v 0.024972 0.064235 -0.390323
v 0.018610 0.071818 -0.382503
v 0.013420 0.072746 -0.385617
v 0.008698 0.069233 -0.387308
v 0.007211 0.063337 -0.386586
v 0.009829 0.058513 -0.383873
v 0.015019 0.057585 -0.380759
v 0.019740 0.061098 -0.379068
v 0.021227 0.066993 -0.379790
v 0.013955 0.073374 -0.376573
v 0.009618 0.073997 -0.380851
v 0.005674 0.070206 -0.383602
v 0.004433 0.064223 -0.383215
v 0.006621 0.059552 -0.379916
v 0.010957 0.058929 -0.375638
v 0.014901 0.062719 -0.372887
v 0.016143 0.068703 -0.373275
v 0.009826 0.074326 -0.372919
v 0.005463 0.074956 -0.377168
v 0.001500 0.071171 -0.379900
v 0.000260 0.065188 -0.379514
v 0.002468 0.060511 -0.376236
v 0.006831 0.059881 -0.371987
v 0.010793 0.063666 -0.369255
v 0.012034 0.069650 -0.369641
v 0.006988 0.075243 -0.369352
v 0.001708 0.076208 -0.372299
v -0.003081 0.072725 -0.373856
v -0.004574 0.066834 -0.373110
v -0.001897 0.061986 -0.370499
v 0.003382 0.061021 -0.367552
v 0.008172 0.064504 -0.365995
v 0.009665 0.070395 -0.366741
v 0.005134 0.076898 -0.362871
v -0.000694 0.078296 -0.364126
v -0.005979 0.075205 -0.364152
v -0.007626 0.069435 -0.362932
v -0.004670 0.064367 -0.361182
v 0.001158 0.062969 -0.359927
v 0.006443 0.066060 -0.359902
v 0.008090 0.071830 -0.361122
v 0.004896 0.080183 -0.350045
v -0.000999 0.081819 -0.350293
v -0.006335 0.078906 -0.349561
v -0.007986 0.073152 -0.348279
v -0.004985 0.067925 -0.347196
v 0.000910 0.066289 -0.346949
v 0.006246 0.069202 -0.347680
v 0.007897 0.074957 -0.348963
v 0.005998 0.083709 -0.330435
v 0.000118 0.085409 -0.330277
v -0.005224 0.082472 -0.329698
v -0.006898 0.076620 -0.329039
v -0.003924 0.071279 -0.328685
v 0.001956 0.069580 -0.328844
v 0.007298 0.072516 -0.329422
v 0.008972 0.078369 -0.330081
v 0.006859 0.083949 -0.314281
v 0.000992 0.085654 -0.313868
v -0.004375 0.082709 -0.313766
v -0.006099 0.076839 -0.314034
v -0.003170 0.071484 -0.314516
v 0.002697 0.069780 -0.314929
v 0.008064 0.072725 -0.315032
v 0.009788 0.078594 -0.314763
v 0.007548 0.082140 -0.301050
v 0.001692 0.083821 -0.300440
v -0.003693 0.080915 -0.300665
v -0.005452 0.075124 -0.301592
v -0.002555 0.069840 -0.302679
v 0.003301 0.068159 -0.303288
v 0.008686 0.071065 -0.303064
v 0.010445 0.076856 -0.302136
v 0.008164 0.079721 -0.289817
v 0.002311 0.081393 -0.289156
v -0.003074 0.078489 -0.289391
v -0.004836 0.072710 -0.290384
v -0.001944 0.067441 -0.291553
v 0.003909 0.065769 -0.292214
v 0.009294 0.068674 -0.291979
v 0.011057 0.074453 -0.290986
v 0.008813 0.077994 -0.279425
v 0.002952 0.079683 -0.278894
v -0.002411 0.076730 -0.278769
v -0.004133 0.070865 -0.279124
v -0.001206 0.065524 -0.279750
v 0.004655 0.063835 -0.280282
v 0.010018 0.066788 -0.280406
v 0.011740 0.072653 -0.280052
v 0.009617 0.078010 -0.268346
v 0.003737 0.079696 -0.268073
v -0.001583 0.076751 -0.267348
v -0.003225 0.070900 -0.266596
v -0.000228 0.065572 -0.266256
v 0.005652 0.063886 -0.266529
v 0.010971 0.066831 -0.267254
v 0.012613 0.072681 -0.268007
v 0.010722 0.080907 -0.254832
v 0.004819 0.082535 -0.254838
v -0.000450 0.079716 -0.253504
v -0.002000 0.074103 -0.251614
v 0.001077 0.068982 -0.250273
v 0.006980 0.067354 -0.250268
v 0.012250 0.070173 -0.251601
v 0.013800 0.075786 -0.253492
vn 0.6977 0.7158 -0.0293
vn -0.0160 0.9996 0.0242
vn -0.7133 0.6980 0.0638
vn -0.9978 0.0009 0.0669
vn -0.7156 -0.6978 0.0318
vn -0.0163 -0.9996 -0.0218
vn 0.6992 -0.7122 -0.0624
vn 0.9979 0.0029 -0.0653
vn 0.6880 0.7205 -0.0866
vn -0.0200 0.9993 0.0309
vn -0.7077 0.6945 0.1297
vn -0.9880 -0.0023 0.1545
vn -0.7101 -0.6981 0.0919
vn -0.0224 -0.9995 -0.0240
vn 0.6876 -0.7150 -0.1266
vn 0.9882 0.0045 -0.1530
vn 0.6545 0.7242 -0.2171
vn -0.0231 0.9992 0.0313
vn -0.6780 0.6886 0.2571
vn -0.9421 -0.0099 0.3352
vn -0.6756 -0.7022 0.2248
vn -0.0227 -0.9996 -0.0149
vn 0.6523 -0.7154 -0.2503
vn 0.9414 0.0055 -0.3371
vn 0.6050 0.7156 -0.3492
vn -0.0298 0.9995 -0.0065
vn -0.6416 0.6901 0.3348
vn -0.8778 -0.0149 0.4788
vn -0.6120 -0.7093 0.3498
vn 0.0051 -0.9998 0.0204
vn 0.6226 -0.7120 -0.3247
vn 0.8763 -0.0005 -0.4817
vn 0.5819 0.6979 -0.4176
vn -0.0479 0.9951 -0.0860
vn -0.6515 0.6966 0.3005
vn -0.8632 -0.0179 0.5045
vn -0.5642 -0.7171 0.4093
vn 0.0622 -0.9950 0.0787
vn 0.6507 -0.6998 -0.2946
vn 0.8661 -0.0043 -0.4999
vn 0.6035 0.6970 -0.3872
vn -0.0701 0.9829 -0.1701
vn -0.7119 0.6851 0.1545
vn -0.9213 -0.0361 0.3872
vn -0.5677 -0.7298 0.3810
vn 0.1156 -0.9817 0.1513
vn 0.7251 -0.6698 -0.1603
vn 0.9247 0.0170 -0.3802
vn 0.6292 0.7204 -0.2916
vn -0.0868 0.9706 -0.2247
vn -0.7619 0.6473 -0.0238
vn -0.9782 -0.0739 0.1939
vn -0.5962 -0.7477 0.2923
vn 0.1352 -0.9673 0.2144
vn 0.7784 -0.6276 0.0140
vn 0.9792 0.0632 -0.1927
vn 0.6340 0.7498 -0.1892
vn -0.0954 0.9633 -0.2510
vn -0.7761 0.6088 -0.1644
vn -0.9932 -0.1141 0.0218
vn -0.6107 -0.7676 0.1946
vn 0.1326 -0.9591 0.2502
vn 0.7903 -0.5913 0.1603
vn 0.9938 0.1097 -0.0199
vn 0.6260 0.7771 -0.0661
vn -0.0828 0.9598 -0.2682
vn -0.7555 0.5764 -0.3114
vn -0.9729 -0.1636 -0.1634
vn -0.5915 -0.8020 0.0836
vn 0.1393 -0.9501 0.2791
vn 0.7766 -0.5468 0.3130
vn 0.9723 0.1588 0.1716
vn 0.5686 0.8166 0.0991
vn -0.0640 0.9559 -0.2866
vn -0.6725 0.5319 -0.5146
vn -0.8734 -0.2348 -0.4266
vn -0.5231 -0.8495 -0.0687
vn 0.1342 -0.9380 0.3195
vn 0.7026 -0.4905 0.5154
vn 0.8774 0.2243 0.4241
vn 0.4697 0.8552 0.2192
vn -0.0680 0.9471 -0.3136
vn -0.5685 0.4770 -0.6703
vn -0.7272 -0.2829 -0.6255
vn -0.4477 -0.8712 -0.2012
vn 0.0999 -0.9357 0.3384
vn 0.5849 -0.4560 0.6707
vn 0.7345 0.2769 0.6195
vn 0.4476 0.8716 0.2002
vn -0.1031 0.9359 -0.3368
vn -0.5904 0.4569 -0.6654
vn -0.7398 -0.2749 -0.6141
vn -0.4729 -0.8537 -0.2178
vn 0.0683 -0.9479 0.3112
vn 0.5708 -0.4776 0.6679
vn 0.7284 0.2830 0.6239
vn 0.5250 0.8494 0.0536
vn -0.1433 0.9389 -0.3130
vn -0.7170 0.4945 -0.4912
vn -0.8915 -0.2177 -0.3972
vn -0.5776 -0.8118 -0.0856
vn 0.0637 -0.9582 0.2789
vn 0.6826 -0.5407 0.4917
vn 0.8866 0.2305 0.4011
vn 0.5934 0.7967 -0.1149
vn -0.1464 0.9526 -0.2666
vn -0.7875 0.5558 -0.2665
vn -0.9820 -0.1476 -0.1182
vn -0.6304 -0.7702 0.0969
vn 0.0859 -0.9623 0.2581
vn 0.7651 -0.5874 0.2637
vn 0.9827 0.1518 0.1057
vn 0.6083 0.7731 -0.1799
vn -0.1270 0.9698 -0.2084
vn -0.7860 0.6068 -0.1186
vn -0.9938 -0.1040 0.0391
vn -0.6280 -0.7581 0.1758
vn 0.1109 -0.9715 0.2096
vn 0.7874 -0.6054 0.1161
vn 0.9914 0.1220 -0.0467
vn 0.6113 0.7838 -0.1093
vn -0.1123 0.9896 -0.0894
vn -0.7729 0.6342 -0.0190
vn -0.9940 -0.0891 0.0632
vn -0.6303 -0.7686 0.1094
vn 0.1175 -0.9890 0.0897
vn 0.7925 -0.6096 0.0155
vn 0.9895 0.1282 -0.0668
vn 0.6182 0.7859 0.0151
vn -0.1045 0.9924 0.0656
vn -0.7686 0.6349 0.0790
vn -0.9947 -0.0914 0.0467
vn -0.6360 -0.7716 -0.0142
vn 0.1088 -0.9918 -0.0672
vn 0.7867 -0.6123 -0.0792
vn 0.9908 0.1277 -0.0445
vn 0.6266 0.7726 0.1023
vn -0.0999 0.9791 0.1773
vn -0.7692 0.6211 0.1503
vn -0.9944 -0.0994 0.0355
vn -0.6359 -0.7651 -0.1014
vn 0.1011 -0.9787 -0.1787
vn 0.7779 -0.6103 -0.1496
vn 0.9926 0.1173 -0.0325
vn 0.6338 0.7658 0.1087
vn -0.1012 0.9762 0.1920
vn -0.7760 0.6096 0.1616
vn -0.9927 -0.1148 0.0367
vn -0.6291 -0.7697 -0.1085
vn 0.0983 -0.9768 -0.1903
vn 0.7694 -0.6178 -0.1620
vn 0.9939 0.1033 -0.0386
vn 0.6356 0.7718 0.0202
vn -0.1099 0.9900 0.0885
vn -0.7872 0.6081 0.1027
vn -0.9897 -0.1312 0.0566
vn -0.6174 -0.7864 -0.0204
vn 0.1033 -0.9910 -0.0852
vn 0.7667 -0.6339 -0.1020
vn 0.9940 0.0919 -0.0595
vn 0.6276 0.7676 -0.1303
vn -0.1238 0.9877 -0.0958
vn -0.7975 0.6033 -0.0030
vn -0.9866 -0.1357 0.0906
vn -0.6042 -0.7860 0.1308
vn 0.1161 -0.9885 0.0971
vn 0.7724 -0.6351 0.0086
vn 0.9926 0.0864 -0.0857
vn 0.6177 0.7571 -0.2128
vn -0.1304 0.9716 -0.1976
vn -0.7991 0.5979 -0.0628
vn -0.9854 -0.1311 0.1085
vn -0.5966 -0.7735 0.2138
vn 0.1237 -0.9725 0.1974
vn 0.7769 -0.6257 0.0701
vn 0.9911 0.0875 -0.0998
vt 0.000000 1.000000
vt 0.047619 1.000000
vt 0.047619 0.875000
vt 0.000000 0.875000
vt 0.000000 0.125000
vt 0.047619 0.125000
vt 0.047619 0.000000
vt 0.000000 0.000000
vt 0.000000 0.250000
vt 0.047619 0.250000
vt 0.000000 0.375000
vt 0.047619 0.375000
vt 0.000000 0.500000
vt 0.047619 0.500000
vt 0.000000 0.625000
vt 0.047619 0.625000
vt 0.000000 0.750000
vt 0.047619 0.750000
vt 0.095238 1.000000
vt 0.095238 0.875000
vt 0.095238 0.125000
vt 0.095238 0.000000
vt 0.095238 0.250000
vt 0.095238 0.375000
vt 0.095238 0.500000
vt 0.095238 0.625000
vt 0.095238 0.750000
vt 0.142857 1.000000
vt 0.142857 0.875000
vt 0.142857 0.125000
vt 0.142857 0.000000
vt 0.142857 0.250000
vt 0.142857 0.375000
vt 0.142857 0.500000
vt 0.142857 0.625000
vt 0.142857 0.750000
vt 0.190476 1.000000
vt 0.190476 0.875000
vt 0.190476 0.125000
vt 0.190476 0.000000
vt 0.190476 0.250000
vt 0.190476 0.375000
vt 0.190476 0.500000
vt 0.190476 0.625000
vt 0.190476 0.750000
vt 0.238095 1.000000
vt 0.238095 0.875000
vt 0.238095 0.125000
vt 0.238095 0.000000
vt 0.238095 0.250000
vt 0.238095 0.375000
vt 0.238095 0.500000
vt 0.238095 0.625000
vt 0.238095 0.750000
vt 0.285714 1.000000
vt 0.285714 0.875000
vt 0.285714 0.125000
vt 0.285714 0.000000
vt 0.285714 0.250000
vt 0.285714 0.375000
vt 0.285714 0.500000
vt 0.285714 0.625000
vt 0.285714 0.750000
vt 0.333333 1.000000
vt 0.333333 0.875000
vt 0.333333 0.125000
vt 0.333333 0.000000
vt 0.333333 0.250000
vt 0.333333 0.375000
vt 0.333333 0.500000
vt 0.333333 0.625000
vt 0.333333 0.750000
vt 0.380952 1.000000
vt 0.380952 0.875000
vt 0.380952 0.125000
vt 0.380952 0.000000
vt 0.380952 0.250000
vt 0.380952 0.375000
vt 0.380952 0.500000
vt 0.380952 0.625000
vt 0.380952 0.750000
vt 0.428571 1.000000
vt 0.428571 0.875000
vt 0.428571 0.125000
vt 0.428571 0.000000
vt 0.428571 0.250000
vt 0.428571 0.375000
vt 0.428571 0.500000
vt 0.428571 0.625000
vt 0.428571 0.750000
vt 0.476190 1.000000
vt 0.476190 0.875000
vt 0.476190 0.125000
vt 0.476190 0.000000
vt 0.476190 0.250000
vt 0.476190 0.375000
vt 0.476190 0.500000
vt 0.476190 0.625000
vt 0.476190 0.750000
vt 0.523810 1.000000
vt 0.523810 0.875000
vt 0.523810 0.125000
vt 0.523810 0.000000
vt 0.523810 0.250000
vt 0.523810 0.375000
vt 0.523810 0.500000
vt 0.523810 0.625000
vt 0.523810 0.750000
vt 0.571429 1.000000
vt 0.571429 0.875000
vt 0.571429 0.125000
vt 0.571429 0.000000
vt 0.571429 0.250000
vt 0.571429 0.375000
vt 0.571429 0.500000
vt 0.571429 0.625000
vt 0.571429 0.750000
vt 0.619048 1.000000
vt 0.619048 0.875000
vt 0.619048 0.125000
vt 0.619048 0.000000
vt 0.619048 0.250000
vt 0.619048 0.375000
vt 0.619048 0.500000
vt 0.619048 0.625000
vt 0.619048 0.750000
vt 0.666667 1.000000
vt 0.666667 0.875000
vt 0.666667 0.125000
vt 0.666667 0.000000
vt 0.666667 0.250000
vt 0.666667 0.375000
vt 0.666667 0.500000
vt 0.666667 0.625000
vt 0.666667 0.750000
vt 0.714286 1.000000
vt 0.714286 0.875000
vt 0.714286 0.125000
vt 0.714286 0.000000
vt 0.714286 0.250000
vt 0.714286 0.375000
vt 0.714286 0.500000
vt 0.714286 0.625000
vt 0.714286 0.750000
vt 0.761905 1.000000
vt 0.761905 0.875000
vt 0.761905 0.125000
vt 0.761905 0.000000
vt 0.761905 0.250000
vt 0.761905 0.375000
vt 0.761905 0.500000
vt 0.761905 0.625000
vt 0.761905 0.750000
vt 0.809524 1.000000
vt 0.809524 0.875000
vt 0.809524 0.125000
vt 0.809524 0.000000
vt 0.809524 0.250000
vt 0.809524 0.375000
vt 0.809524 0.500000
vt 0.809524 0.625000
vt 0.809524 0.750000
vt 0.857143 1.000000
vt 0.857143 0.875000
vt 0.857143 0.125000
vt 0.857143 0.000000
vt 0.857143 0.250000
vt 0.857143 0.375000
vt 0.857143 0.500000
vt 0.857143 0.625000
vt 0.857143 0.750000
vt 0.904762 1.000000
vt 0.904762 0.875000
vt 0.904762 0.125000
vt 0.904762 0.000000
vt 0.904762 0.250000
vt 0.904762 0.375000
vt 0.904762 0.500000
vt 0.904762 0.625000
vt 0.904762 0.750000
vt 0.952381 1.000000
vt 0.952381 0.875000
vt 0.952381 0.125000
vt 0.952381 0.000000
vt 0.952381 0.250000
vt 0.952381 0.375000
vt 0.952381 0.500000
vt 0.952381 0.625000
vt 0.952381 0.750000
vt 1.000000 1.000000
vt 1.000000 0.875000
vt 1.000000 0.125000
vt 1.000000 0.000000
vt 1.000000 0.250000
vt 1.000000 0.375000
vt 1.000000 0.500000
vt 1.000000 0.625000
vt 1.000000 0.750000
s 1
usemtl _Mettle
f 1/1/1 9/2/9 16/3/16 8/4/8
f 2/5/2 10/6/10 9/7/9 1/8/1
f 3/9/3 11/10/11 10/6/10 2/5/2
f 4/11/4 12/12/12 11/10/11 3/9/3
f 5/13/5 13/14/13 12/12/12 4/11/4
f 6/15/6 14/16/14 13/14/13 5/13/5
f 7/17/7 15/18/15 14/16/14 6/15/6
f 8/4/8 16/3/16 15/18/15 7/17/7
f 9/2/9 17/19/17 24/20/24 16/3/16
f 10/6/10 18/21/18 17/22/17 9/7/9
f 11/10/11 19/23/19 18/21/18 10/6/10
f 12/12/12 20/24/20 19/23/19 11/10/11
f 13/14/13 21/25/21 20/24/20 12/12/12
f 14/16/14 22/26/22 21/25/21 13/14/13
f 15/18/15 23/27/23 22/26/22 14/16/14
f 16/3/16 24/20/24 23/27/23 15/18/15
f 17/19/17 25/28/25 32/29/32 24/20/24
f 18/21/18 26/30/26 25/31/25 17/22/17
f 19/23/19 27/32/27 26/30/26 18/21/18
f 20/24/20 28/33/28 27/32/27 19/23/19
f 21/25/21 29/34/29 28/33/28 20/24/20
f 22/26/22 30/35/30 29/34/29 21/25/21
f 23/27/23 31/36/31 30/35/30 22/26/22
f 24/20/24 32/29/32 31/36/31 23/27/23
f 25/28/25 33/37/33 40/38/40 32/29/32
f 26/30/26 34/39/34 33/40/33 25/31/25
f 27/32/27 35/41/35 34/39/34 26/30/26
f 28/33/28 36/42/36 35/41/35 27/32/27
f 29/34/29 37/43/37 36/42/36 28/33/28
f 30/35/30 38/44/38 37/43/37 29/34/29
f 31/36/31 39/45/39 38/44/38 30/35/30
f 32/29/32 40/38/40 39/45/39 31/36/31
f 33/37/33 41/46/41 48/47/48 40/38/40
f 34/39/34 42/48/42 41/49/41 33/40/33
f 35/41/35 43/50/43 42/48/42 34/39/34
f 36/42/36 44/51/44 43/50/43 35/41/35
f 37/43/37 45/52/45 44/51/44 36/42/36
f 38/44/38 46/53/46 45/52/45 37/43/37
f 39/45/39 47/54/47 46/53/46 38/44/38
f 40/38/40 48/47/48 47/54/47 39/45/39
f 41/46/41 49/55/49 56/56/56 48/47/48
f 42/48/42 50/57/50 49/58/49 41/49/41
f 43/50/43 51/59/51 50/57/50 42/48/42
f 44/51/44 52/60/52 51/59/51 43/50/43
f 45/52/45 53/61/53 52/60/52 44/51/44
f 46/53/46 54/62/54 53/61/53 45/52/45
f 47/54/47 55/63/55 54/62/54 46/53/46
f 48/47/48 56/56/56 55/63/55 47/54/47
f 49/55/49 57/64/57 64/65/64 56/56/56
f 50/57/50 58/66/58 57/67/57 49/58/49
f 51/59/51 59/68/59 58/66/58 50/57/50
f 52/60/52 60/69/60 59/68/59 51/59/51
f 53/61/53 61/70/61 60/69/60 52/60/52
f 54/62/54 62/71/62 61/70/61 53/61/53
f 55/63/55 63/72/63 62/71/62 54/62/54
f 56/56/56 64/65/64 63/72/63 55/63/55
f 57/64/57 65/73/65 72/74/72 64/65/64
f 58/66/58 66/75/66 65/76/65 57/67/57
f 59/68/59 67/77/67 66/75/66 58/66/58
f 60/69/60 68/78/68 67/77/67 59/68/59
f 61/70/61 69/79/69 68/78/68 60/69/60
f 62/71/62 70/80/70 69/79/69 61/70/61
f 63/72/63 71/81/71 70/80/70 62/71/62
f 64/65/64 72/74/72 71/81/71 63/72/63
f 65/73/65 73/82/73 80/83/80 72/74/72
f 66/75/66 74/84/74 73/85/73 65/76/65
f 67/77/67 75/86/75 74/84/74 66/75/66
f 68/78/68 76/87/76 75/86/75 67/77/67
f 69/79/69 77/88/77 76/87/76 68/78/68
f 70/80/70 78/89/78 77/88/77 69/79/69
f 71/81/71 79/90/79 78/89/78 70/80/70
f 72/74/72 80/83/80 79/90/79 71/81/71
f 73/82/73 81/91/81 88/92/88 80/83/80
f 74/84/74 82/93/82 81/94/81 73/85/73
f 75/86/75 83/95/83 82/93/82 74/84/74
f 76/87/76 84/96/84 83/95/83 75/86/75
f 77/88/77 85/97/85 84/96/84 76/87/76
f 78/89/78 86/98/86 85/97/85 77/88/77
f 79/90/79 87/99/87 86/98/86 78/89/78
f 80/83/80 88/92/88 87/99/87 79/90/79
f 81/91/81 89/100/89 96/101/96 88/92/88
f 82/93/82 90/102/90 89/103/89 81/94/81
f 83/95/83 91/104/91 90/102/90 82/93/82
f 84/96/84 92/105/92 91/104/91 83/95/83
f 85/97/85 93/106/93 92/105/92 84/96/84
f 86/98/86 94/107/94 93/106/93 85/97/85
f 87/99/87 95/108/95 94/107/94 86/98/86
f 88/92/88 96/101/96 95/108/95 87/99/87
f 89/100/89 97/109/97 104/110/104 96/101/96
f 90/102/90 98/111/98 97/112/97 89/103/89
f 91/104/91 99/113/99 98/111/98 90/102/90
f 92/105/92 100/114/100 99/113/99 91/104/91
f 93/106/93 101/115/101 100/114/100 92/105/92
f 94/107/94 102/116/102 101/115/101 93/106/93
f 95/108/95 103/117/103 102/116/102 94/107/94
f 96/101/96 104/110/104 103/117/103 95/108/95
f 97/109/97 105/118/105 112/119/112 104/110/104
f 98/111/98 106/120/106 105/121/105 97/112/97
f 99/113/99 107/122/107 106/120/106 98/111/98
f 100/114/100 108/123/108 107/122/107 99/113/99
f 101/115/101 109/124/109 108/123/108 100/114/100
f 102/116/102 110/125/110 109/124/109 101/115/101
f 103/117/103 111/126/111 110/125/110 102/116/102
f 104/110/104 112/119/112 111/126/111 103/117/103
f 105/118/105 113/127/113 120/128/120 112/119/112
f 106/120/106 114/129/114 113/130/113 105/121/105
f 107/122/107 115/131/115 114/129/114 106/120/106
f 108/123/108 116/132/116 115/131/115 107/122/107
f 109/124/109 117/133/117 116/132/116 108/123/108
f 110/125/110 118/134/118 117/133/117 109/124/109
f 111/126/111 119/135/119 118/134/118 110/125/110
f 112/119/112 120/128/120 119/135/119 111/126/111
f 113/127/113 121/136/121 128/137/128 120/128/120
f 114/129/114 122/138/122 121/139/121 113/130/113
f 115/131/115 123/140/123 122/138/122 114/129/114
f 116/132/116 124/141/124 123/140/123 115/131/115
f 117/133/117 125/142/125 124/141/124 116/132/116
f 118/134/118 126/143/126 125/142/125 117/133/117
f 119/135/119 127/144/127 126/143/126 118/134/118
f 120/128/120 128/137/128 127/144/127 119/135/119
f 121/136/121 129/145/129 136/146/136 128/137/128
f 122/138/122 130/147/130 129/148/129 121/139/121
f 123/140/123 131/149/131 130/147/130 122/138/122
f 124/141/124 132/150/132 131/149/131 123/140/123
f 125/142/125 133/151/133 132/150/132 124/141/124
f 126/143/126 134/152/134 133/151/133 125/142/125
f 127/144/127 135/153/135 134/152/134 126/143/126
f 128/137/128 136/146/136 135/153/135 127/144/127
f 129/145/129 137/154/137 144/155/144 136/146/136
f 130/147/130 138/156/138 137/157/137 129/148/129
f 131/149/131 139/158/139 138/156/138 130/147/130
f 132/150/132 140/159/140 139/158/139 131/149/131
f 133/151/133 141/160/141 140/159/140 132/150/132
f 134/152/134 142/161/142 141/160/141 133/151/133
f 135/153/135 143/162/143 142/161/142 134/152/134
f 136/146/136 144/155/144 143/162/143 135/153/135
f 137/154/137 145/163/145 152/164/152 144/155/144
f 138/156/138 146/165/146 145/166/145 137/157/137
f 139/158/139 147/167/147 146/165/146 138/156/138
f 140/159/140 148/168/148 147/167/147 139/158/139
f 141/160/141 149/169/149 148/168/148 140/159/140
f 142/161/142 150/170/150 149/169/149 141/160/141
f 143/162/143 151/171/151 150/170/150 142/161/142
f 144/155/144 152/164/152 151/171/151 143/162/143
f 145/163/145 153/172/153 160/173/160 152/164/152
f 146/165/146 154/174/154 153/175/153 145/166/145
f 147/167/147 155/176/155 154/174/154 146/165/146
f 148/168/148 156/177/156 155/176/155 147/167/147
f 149/169/149 157/178/157 156/177/156 148/168/148
f 150/170/150 158/179/158 157/178/157 149/169/149
f 151/171/151 159/180/159 158/179/158 150/170/150
f 152/164/152 160/173/160 159/180/159 151/171/151
f 153/172/153 161/181/161 168/182/168 160/173/160
f 154/174/154 162/183/162 161/184/161 153/175/153
f 155/176/155 163/185/163 162/183/162 154/174/154
f 156/177/156 164/186/164 163/185/163 155/176/155
f 157/178/157 165/187/165 164/186/164 156/177/156
f 158/179/158 166/188/166 165/187/165 157/178/157
f 159/180/159 167/189/167 166/188/166 158/179/158
f 160/173/160 168/182/168 167/189/167 159/180/159
f 161/181/161 169/190/169 176/191/176 168/182/168
f 162/183/162 170/192/170 169/193/169 161/184/161
f 163/185/163 171/194/171 170/192/170 162/183/162
f 164/186/164 172/195/172 171/194/171 163/185/163
f 165/187/165 173/196/173 172/195/172 164/186/164
f 166/188/166 174/197/174 173/196/173 165/187/165
f 167/189/167 175/198/175 174/197/174 166/188/166
f 168/182/168 176/191/176 175/198/175 167/189/167
o BézierCurve.001
v 0.005811 0.058820 -0.474232
v 0.000154 0.061163 -0.474196
v -0.005502 0.058820 -0.474232
v -0.007846 0.053164 -0.474318
v -0.005502 0.047508 -0.474404
v 0.000154 0.045165 -0.474440
v 0.005811 0.047508 -0.474404
v 0.008154 0.053164 -0.474318
v 0.006780 0.058479 -0.459494
v 0.001193 0.060803 -0.458559
v -0.004399 0.058442 -0.457754
v -0.006720 0.052780 -0.457549
v -0.004410 0.047133 -0.458065
v 0.001178 0.044809 -0.459000
v 0.006769 0.047170 -0.459805
v 0.009090 0.052832 -0.460010
v 0.009166 0.058158 -0.449833
v 0.003838 0.060456 -0.447878
v -0.001489 0.058068 -0.446031
v -0.003695 0.052394 -0.445375
v -0.001487 0.046758 -0.446294
v 0.003841 0.044460 -0.448249
v 0.009168 0.046847 -0.450095
v 0.011374 0.052521 -0.450752
v 0.012327 0.058059 -0.443225
v 0.007326 0.060356 -0.440541
v 0.002403 0.057968 -0.437793
v 0.000443 0.052293 -0.436590
v 0.002593 0.046657 -0.437636
v 0.007594 0.044360 -0.440320
v 0.012517 0.046748 -0.443068
v 0.014477 0.052422 -0.444272
v 0.015969 0.058411 -0.437447
v 0.010947 0.060706 -0.434800
v 0.006184 0.058337 -0.431767
v 0.004471 0.052693 -0.430126
v 0.006810 0.047079 -0.430837
v 0.011832 0.044785 -0.433484
v 0.016594 0.047153 -0.436517
v 0.018308 0.052798 -0.438158
v 0.019663 0.059561 -0.430534
v 0.014220 0.061719 -0.428741
v 0.009217 0.059272 -0.426197
v 0.007584 0.053654 -0.424391
v 0.010278 0.048156 -0.424382
v 0.015720 0.045998 -0.426175
v 0.020723 0.048445 -0.428719
v 0.022356 0.054063 -0.430524
v 0.022454 0.061806 -0.420976
v 0.016657 0.063690 -0.420397
v 0.011381 0.061033 -0.418788
v 0.009716 0.055390 -0.417093
v 0.012637 0.050067 -0.416303
v 0.018434 0.048183 -0.416882
v 0.023711 0.050840 -0.418491
v 0.025376 0.056483 -0.420186
v 0.023435 0.065291 -0.407484
v 0.017548 0.066909 -0.407953
v 0.012195 0.064023 -0.407248
v 0.010510 0.058322 -0.405781
v 0.013482 0.053146 -0.404412
v 0.019368 0.051527 -0.403942
v 0.024722 0.054414 -0.404648
v 0.026406 0.060115 -0.406115
v 0.022065 0.069261 -0.392266
v 0.016303 0.070587 -0.393859
v 0.011062 0.067436 -0.394168
v 0.009413 0.061654 -0.393014
v 0.012320 0.056628 -0.391071
v 0.018082 0.055302 -0.389478
v 0.023322 0.058453 -0.389169
v 0.024972 0.064235 -0.390323
v 0.018610 0.071818 -0.382503
v 0.013420 0.072746 -0.385617
v 0.008698 0.069233 -0.387308
v 0.007211 0.063337 -0.386586
v 0.009829 0.058513 -0.383873
v 0.015019 0.057585 -0.380759
v 0.019740 0.061098 -0.379068
v 0.021227 0.066993 -0.379790
v 0.013955 0.073374 -0.376573
v 0.009618 0.073997 -0.380851
v 0.005674 0.070206 -0.383602
v 0.004433 0.064223 -0.383215
v 0.006621 0.059552 -0.379916
v 0.010957 0.058929 -0.375638
v 0.014901 0.062719 -0.372887
v 0.016143 0.068703 -0.373275
v 0.009826 0.074326 -0.372919
v 0.005463 0.074956 -0.377168
v 0.001500 0.071171 -0.379900
v 0.000260 0.065188 -0.379514
v 0.002468 0.060511 -0.376236
v 0.006831 0.059881 -0.371987
v 0.010793 0.063666 -0.369255
v 0.012034 0.069650 -0.369641
v 0.006988 0.075243 -0.369352
v 0.001708 0.076208 -0.372299
v -0.003081 0.072725 -0.373856
v -0.004574 0.066834 -0.373110
v -0.001897 0.061986 -0.370499
v 0.003382 0.061021 -0.367552
v 0.008172 0.064504 -0.365995
v 0.009665 0.070395 -0.366741
v 0.005134 0.076898 -0.362871
v -0.000694 0.078296 -0.364126
v -0.005979 0.075205 -0.364152
v -0.007626 0.069435 -0.362932
v -0.004670 0.064367 -0.361182
v 0.001158 0.062969 -0.359927
v 0.006443 0.066060 -0.359902
v 0.008090 0.071830 -0.361122
v 0.004896 0.080183 -0.350045
v -0.000999 0.081819 -0.350293
v -0.006335 0.078906 -0.349561
v -0.007986 0.073152 -0.348279
v -0.004985 0.067925 -0.347196
v 0.000910 0.066289 -0.346949
v 0.006246 0.069202 -0.347680
v 0.007897 0.074957 -0.348963
v 0.005998 0.083709 -0.330435
v 0.000118 0.085409 -0.330277
v -0.005224 0.082472 -0.329698
v -0.006898 0.076620 -0.329039
v -0.003924 0.071279 -0.328685
v 0.001956 0.069580 -0.328844
v 0.007298 0.072516 -0.329422
v 0.008972 0.078369 -0.330081
v 0.006859 0.083949 -0.314281
v 0.000992 0.085654 -0.313868
v -0.004375 0.082709 -0.313766
v -0.006099 0.076839 -0.314034
v -0.003170 0.071484 -0.314516
v 0.002697 0.069780 -0.314929
v 0.008064 0.072725 -0.315032
v 0.009788 0.078594 -0.314763
v 0.007548 0.082140 -0.301050
v 0.001692 0.083821 -0.300440
v -0.003693 0.080915 -0.300665
v -0.005452 0.075124 -0.301592
v -0.002555 0.069840 -0.302679
v 0.003301 0.068159 -0.303288
v 0.008686 0.071065 -0.303064
v 0.010445 0.076856 -0.302136
v 0.008164 0.079721 -0.289817
v 0.002311 0.081393 -0.289156
v -0.003074 0.078489 -0.289391
v -0.004836 0.072710 -0.290384
v -0.001944 0.067441 -0.291553
v 0.003909 0.065769 -0.292214
v 0.009294 0.068674 -0.291979
v 0.011057 0.074453 -0.290986
v 0.008813 0.077994 -0.279425
v 0.002952 0.079683 -0.278894
v -0.002411 0.076730 -0.278769
v -0.004133 0.070865 -0.279124
v -0.001206 0.065524 -0.279750
v 0.004655 0.063835 -0.280282
v 0.010018 0.066788 -0.280406
v 0.011740 0.072653 -0.280052
v 0.009617 0.078010 -0.268346
v 0.003737 0.079696 -0.268073
v -0.001583 0.076751 -0.267348
v -0.003225 0.070900 -0.266596
v -0.000228 0.065572 -0.266256
v 0.005652 0.063886 -0.266529
v 0.010971 0.066831 -0.267254
v 0.012613 0.072681 -0.268007
v 0.010722 0.080907 -0.254832
v 0.004819 0.082535 -0.254838
v -0.000450 0.079716 -0.253504
v -0.002000 0.074103 -0.251614
v 0.001077 0.068982 -0.250273
v 0.006980 0.067354 -0.250268
v 0.012250 0.070173 -0.251601
v 0.013800 0.075786 -0.253492
vn 0.6977 0.7158 -0.0293
vn -0.0160 0.9996 0.0242
vn -0.7133 0.6980 0.0638
vn -0.9978 0.0009 0.0669
vn -0.7156 -0.6978 0.0318
vn -0.0163 -0.9996 -0.0218
vn 0.6992 -0.7122 -0.0624
vn 0.9979 0.0029 -0.0653
vn 0.6880 0.7205 -0.0866
vn -0.0200 0.9993 0.0309
vn -0.7077 0.6945 0.1297
vn -0.9880 -0.0023 0.1545
vn -0.7101 -0.6981 0.0919
vn -0.0224 -0.9995 -0.0240
vn 0.6876 -0.7150 -0.1266
vn 0.9882 0.0045 -0.1530
vn 0.6545 0.7242 -0.2171
vn -0.0231 0.9992 0.0313
vn -0.6780 0.6886 0.2571
vn -0.9421 -0.0099 0.3352
vn -0.6756 -0.7022 0.2248
vn -0.0227 -0.9996 -0.0149
vn 0.6523 -0.7154 -0.2503
vn 0.9414 0.0055 -0.3371
vn 0.6050 0.7156 -0.3492
vn -0.0298 0.9995 -0.0065
vn -0.6416 0.6901 0.3348
vn -0.8778 -0.0149 0.4788
vn -0.6120 -0.7093 0.3498
vn 0.0051 -0.9998 0.0204
vn 0.6226 -0.7120 -0.3247
vn 0.8763 -0.0005 -0.4817
vn 0.5819 0.6979 -0.4176
vn -0.0479 0.9951 -0.0860
vn -0.6515 0.6966 0.3005
vn -0.8632 -0.0179 0.5045
vn -0.5642 -0.7171 0.4093
vn 0.0622 -0.9950 0.0787
vn 0.6507 -0.6998 -0.2946
vn 0.8661 -0.0043 -0.4999
vn 0.6035 0.6970 -0.3872
vn -0.0701 0.9829 -0.1701
vn -0.7119 0.6851 0.1545
vn -0.9213 -0.0361 0.3872
vn -0.5677 -0.7298 0.3810
vn 0.1156 -0.9817 0.1513
vn 0.7251 -0.6698 -0.1603
vn 0.9247 0.0170 -0.3802
vn 0.6292 0.7204 -0.2916
vn -0.0868 0.9706 -0.2247
vn -0.7619 0.6473 -0.0238
vn -0.9782 -0.0739 0.1939
vn -0.5962 -0.7477 0.2923
vn 0.1352 -0.9673 0.2144
vn 0.7784 -0.6276 0.0140
vn 0.9792 0.0632 -0.1927
vn 0.6340 0.7498 -0.1892
vn -0.0954 0.9633 -0.2510
vn -0.7761 0.6088 -0.1644
vn -0.9932 -0.1141 0.0218
vn -0.6107 -0.7676 0.1946
vn 0.1326 -0.9591 0.2502
vn 0.7903 -0.5913 0.1603
vn 0.9938 0.1097 -0.0199
vn 0.6260 0.7771 -0.0661
vn -0.0828 0.9598 -0.2682
vn -0.7555 0.5764 -0.3114
vn -0.9729 -0.1636 -0.1634
vn -0.5915 -0.8020 0.0836
vn 0.1393 -0.9501 0.2791
vn 0.7766 -0.5468 0.3130
vn 0.9723 0.1588 0.1716
vn 0.5686 0.8166 0.0991
vn -0.0640 0.9559 -0.2866
vn -0.6725 0.5319 -0.5146
vn -0.8734 -0.2348 -0.4266
vn -0.5231 -0.8495 -0.0687
vn 0.1342 -0.9380 0.3195
vn 0.7026 -0.4905 0.5154
vn 0.8774 0.2243 0.4241
vn 0.4697 0.8552 0.2192
vn -0.0680 0.9471 -0.3136
vn -0.5685 0.4770 -0.6703
vn -0.7272 -0.2829 -0.6255
vn -0.4477 -0.8712 -0.2012
vn 0.0999 -0.9357 0.3384
vn 0.5849 -0.4560 0.6707
vn 0.7345 0.2769 0.6195
vn 0.4476 0.8716 0.2002
vn -0.1031 0.9359 -0.3368
vn -0.5904 0.4569 -0.6654
vn -0.7398 -0.2749 -0.6141
vn -0.4729 -0.8537 -0.2178
vn 0.0683 -0.9479 0.3112
vn 0.5708 -0.4776 0.6679
vn 0.7284 0.2830 0.6239
vn 0.5250 0.8494 0.0536
vn -0.1433 0.9389 -0.3130
vn -0.7170 0.4945 -0.4912
vn -0.8915 -0.2177 -0.3972
vn -0.5776 -0.8118 -0.0856
vn 0.0637 -0.9582 0.2789
vn 0.6826 -0.5407 0.4917
vn 0.8866 0.2305 0.4011
vn 0.5934 0.7967 -0.1149
vn -0.1464 0.9526 -0.2666
vn -0.7875 0.5558 -0.2665
vn -0.9820 -0.1476 -0.1182
vn -0.6304 -0.7702 0.0969
vn 0.0859 -0.9623 0.2581
vn 0.7651 -0.5874 0.2637
vn 0.9827 0.1518 0.1057
vn 0.6083 0.7731 -0.1799
vn -0.1270 0.9698 -0.2084
vn -0.7860 0.6068 -0.1186
vn -0.9938 -0.1040 0.0391
vn -0.6280 -0.7581 0.1758
vn 0.1109 -0.9715 0.2096
vn 0.7874 -0.6054 0.1161
vn 0.9914 0.1220 -0.0467
vn 0.6113 0.7838 -0.1093
vn -0.1123 0.9896 -0.0894
vn -0.7729 0.6342 -0.0190
vn -0.9940 -0.0891 0.0632
vn -0.6303 -0.7686 0.1094
vn 0.1175 -0.9890 0.0897
vn 0.7925 -0.6096 0.0155
vn 0.9895 0.1282 -0.0668
vn 0.6182 0.7859 0.0151
vn -0.1045 0.9924 0.0656
vn -0.7686 0.6349 0.0790
vn -0.9947 -0.0914 0.0467
vn -0.6360 -0.7716 -0.0142
vn 0.1088 -0.9918 -0.0672
vn 0.7867 -0.6123 -0.0792
vn 0.9908 0.1277 -0.0445
vn 0.6266 0.7726 0.1023
vn -0.0999 0.9791 0.1773
vn -0.7692 0.6211 0.1503
vn -0.9944 -0.0994 0.0355
vn -0.6359 -0.7651 -0.1014
vn 0.1011 -0.9787 -0.1787
vn 0.7779 -0.6103 -0.1496
vn 0.9926 0.1173 -0.0325
vn 0.6338 0.7658 0.1087
vn -0.1012 0.9762 0.1920
vn -0.7760 0.6096 0.1616
vn -0.9927 -0.1148 0.0367
vn -0.6291 -0.7697 -0.1085
vn 0.0983 -0.9768 -0.1903
vn 0.7694 -0.6178 -0.1620
vn 0.9939 0.1033 -0.0386
vn 0.6356 0.7718 0.0202
vn -0.1099 0.9900 0.0885
vn -0.7872 0.6081 0.1027
vn -0.9897 -0.1312 0.0566
vn -0.6174 -0.7864 -0.0204
vn 0.1033 -0.9910 -0.0852
vn 0.7667 -0.6339 -0.1020
vn 0.9940 0.0919 -0.0595
vn 0.6276 0.7676 -0.1303
vn -0.1238 0.9877 -0.0958
vn -0.7975 0.6033 -0.0030
vn -0.9866 -0.1357 0.0906
vn -0.6042 -0.7860 0.1308
vn 0.1161 -0.9885 0.0971
vn 0.7724 -0.6351 0.0086
vn 0.9926 0.0864 -0.0857
vn 0.6177 0.7571 -0.2128
vn -0.1304 0.9716 -0.1976
vn -0.7991 0.5979 -0.0628
vn -0.9854 -0.1311 0.1085
vn -0.5966 -0.7735 0.2138
vn 0.1237 -0.9725 0.1974
vn 0.7769 -0.6257 0.0701
vn 0.9911 0.0875 -0.0998
vt 0.000000 1.000000
vt 0.047619 1.000000
vt 0.047619 0.875000
vt 0.000000 0.875000
vt 0.000000 0.125000
vt 0.047619 0.125000
vt 0.047619 0.000000
vt 0.000000 0.000000
vt 0.000000 0.250000
vt 0.047619 0.250000
vt 0.000000 0.375000
vt 0.047619 0.375000
vt 0.000000 0.500000
vt 0.047619 0.500000
vt 0.000000 0.625000
vt 0.047619 0.625000
vt 0.000000 0.750000
vt 0.047619 0.750000
vt 0.095238 1.000000
vt 0.095238 0.875000
vt 0.095238 0.125000
vt 0.095238 0.000000
vt 0.095238 0.250000
vt 0.095238 0.375000
vt 0.095238 0.500000
vt 0.095238 0.625000
vt 0.095238 0.750000
vt 0.142857 1.000000
vt 0.142857 0.875000
vt 0.142857 0.125000
vt 0.142857 0.000000
vt 0.142857 0.250000
vt 0.142857 0.375000
vt 0.142857 0.500000
vt 0.142857 0.625000
vt 0.142857 0.750000
vt 0.190476 1.000000
vt 0.190476 0.875000
vt 0.190476 0.125000
vt 0.190476 0.000000
vt 0.190476 0.250000
vt 0.190476 0.375000
vt 0.190476 0.500000
vt 0.190476 0.625000
vt 0.190476 0.750000
vt 0.238095 1.000000
vt 0.238095 0.875000
vt 0.238095 0.125000
vt 0.238095 0.000000
vt 0.238095 0.250000
vt 0.238095 0.375000
vt 0.238095 0.500000
vt 0.238095 0.625000
vt 0.238095 0.750000
vt 0.285714 1.000000
vt 0.285714 0.875000
vt 0.285714 0.125000
vt 0.285714 0.000000
vt 0.285714 0.250000
vt 0.285714 0.375000
vt 0.285714 0.500000
vt 0.285714 0.625000
vt 0.285714 0.750000
vt 0.333333 1.000000
vt 0.333333 0.875000
vt 0.333333 0.125000
vt 0.333333 0.000000
vt 0.333333 0.250000
vt 0.333333 0.375000
vt 0.333333 0.500000
vt 0.333333 0.625000
vt 0.333333 0.750000
vt 0.380952 1.000000
vt 0.380952 0.875000
vt 0.380952 0.125000
vt 0.380952 0.000000
vt 0.380952 0.250000
vt 0.380952 0.375000
vt 0.380952 0.500000
vt 0.380952 0.625000
vt 0.380952 0.750000
vt 0.428571 1.000000
vt 0.428571 0.875000
vt 0.428571 0.125000
vt 0.428571 0.000000
vt 0.428571 0.250000
vt 0.428571 0.375000
vt 0.428571 0.500000
vt 0.428571 0.625000
vt 0.428571 0.750000
vt 0.476190 1.000000
vt 0.476190 0.875000
vt 0.476190 0.125000
vt 0.476190 0.000000
vt 0.476190 0.250000
vt 0.476190 0.375000
vt 0.476190 0.500000
vt 0.476190 0.625000
vt 0.476190 0.750000
vt 0.523810 1.000000
vt 0.523810 0.875000
vt 0.523810 0.125000
vt 0.523810 0.000000
vt 0.523810 0.250000
vt 0.523810 0.375000
vt 0.523810 0.500000
vt 0.523810 0.625000
vt 0.523810 0.750000
vt 0.571429 1.000000
vt 0.571429 0.875000
vt 0.571429 0.125000
vt 0.571429 0.000000
vt 0.571429 0.250000
vt 0.571429 0.375000
vt 0.571429 0.500000
vt 0.571429 0.625000
vt 0.571429 0.750000
vt 0.619048 1.000000
vt 0.619048 0.875000
vt 0.619048 0.125000
vt 0.619048 0.000000
vt 0.619048 0.250000
vt 0.619048 0.375000
vt 0.619048 0.500000
vt 0.619048 0.625000
vt 0.619048 0.750000
vt 0.666667 1.000000
vt 0.666667 0.875000
vt 0.666667 0.125000
vt 0.666667 0.000000
vt 0.666667 0.250000
vt 0.666667 0.375000
vt 0.666667 0.500000
vt 0.666667 0.625000
vt 0.666667 0.750000
vt 0.714286 1.000000
vt 0.714286 0.875000
vt 0.714286 0.125000
vt 0.714286 0.000000
vt 0.714286 0.250000
vt 0.714286 0.375000
vt 0.714286 0.500000
vt 0.714286 0.625000
vt 0.714286 0.750000
vt 0.761905 1.000000
vt 0.761905 0.875000
vt 0.761905 0.125000
vt 0.761905 0.000000
vt 0.761905 0.250000
vt 0.761905 0.375000
vt 0.761905 0.500000
vt 0.761905 0.625000
vt 0.761905 0.750000
vt 0.809524 1.000000
vt 0.809524 0.875000
vt 0.809524 0.125000
vt 0.809524 0.000000
vt 0.809524 0.250000
vt 0.809524 0.375000
vt 0.809524 0.500000
vt 0.809524 0.625000
vt 0.809524 0.750000
vt 0.857143 1.000000
vt 0.857143 0.875000
vt 0.857143 0.125000
vt 0.857143 0.000000
vt 0.857143 0.250000
vt 0.857143 0.375000
vt 0.857143 0.500000
vt 0.857143 0.625000
vt 0.857143 0.750000
vt 0.904762 1.000000
vt 0.904762 0.875000
vt 0.904762 0.125000
vt 0.904762 0.000000
vt 0.904762 0.250000
vt 0.904762 0.375000
vt 0.904762 0.500000
vt 0.904762 0.625000
vt 0.904762 0.750000
vt 0.952381 1.000000
vt 0.952381 0.875000
vt 0.952381 0.125000
vt 0.952381 0.000000
vt 0.952381 0.250000
vt 0.952381 0.375000
vt 0.952381 0.500000
vt 0.952381 0.625000
vt 0.952381 0.750000
vt 1.000000 1.000000
vt 1.000000 0.875000
vt 1.000000 0.125000
vt 1.000000 0.000000
vt 1.000000 0.250000
vt 1.000000 0.375000
vt 1.000000 0.500000
vt 1.000000 0.625000
vt 1.000000 0.750000
s 1
usemtl _Mettle
f 177/199/177 185/200/185 192/201/192 184/202/184
f 178/203/178 186/204/186 185/205/185 177/206/177
f 179/207/179 187/208/187 186/204/186 178/203/178
f 180/209/180 188/210/188 187/208/187 179/207/179
f 181/211/181 189/212/189 188/210/188 180/209/180
f 182/213/182 190/214/190 189/212/189 181/211/181
f 183/215/183 191/216/191 190/214/190 182/213/182
f 184/202/184 192/201/192 191/216/191 183/215/183
f 185/200/185 193/217/193 200/218/200 192/201/192
f 186/204/186 194/219/194 193/220/193 185/205/185
f 187/208/187 195/221/195 194/219/194 186/204/186
f 188/210/188 196/222/196 195/221/195 187/208/187
f 189/212/189 197/223/197 196/222/196 188/210/188
f 190/214/190 198/224/198 197/223/197 189/212/189
f 191/216/191 199/225/199 198/224/198 190/214/190
f 192/201/192 200/218/200 199/225/199 191/216/191
f 193/217/193 201/226/201 208/227/208 200/218/200
f 194/219/194 202/228/202 201/229/201 193/220/193
f 195/221/195 203/230/203 202/228/202 194/219/194
f 196/222/196 204/231/204 203/230/203 195/221/195
f 197/223/197 205/232/205 204/231/204 196/222/196
f 198/224/198 206/233/206 205/232/205 197/223/197
f 199/225/199 207/234/207 206/233/206 198/224/198
f 200/218/200 208/227/208 207/234/207 199/225/199
f 201/226/201 209/235/209 216/236/216 208/227/208
f 202/228/202 210/237/210 209/238/209 201/229/201
f 203/230/203 211/239/211 210/237/210 202/228/202
f 204/231/204 212/240/212 211/239/211 203/230/203
f 205/232/205 213/241/213 212/240/212 204/231/204
f 206/233/206 214/242/214 213/241/213 205/232/205
f 207/234/207 215/243/215 214/242/214 206/233/206
f 208/227/208 216/236/216 215/243/215 207/234/207
f 209/235/209 217/244/217 224/245/224 216/236/216
f 210/237/210 218/246/218 217/247/217 209/238/209
f 211/239/211 219/248/219 218/246/218 210/237/210
f 212/240/212 220/249/220 219/248/219 211/239/211
f 213/241/213 221/250/221 220/249/220 212/240/212
f 214/242/214 222/251/222 221/250/221 213/241/213
f 215/243/215 223/252/223 222/251/222 214/242/214
f 216/236/216 224/245/224 223/252/223 215/243/215
f 217/244/217 225/253/225 232/254/232 224/245/224
f 218/246/218 226/255/226 225/256/225 217/247/217
f 219/248/219 227/257/227 226/255/226 218/246/218
f 220/249/220 228/258/228 227/257/227 219/248/219
f 221/250/221 229/259/229 228/258/228 220/249/220
f 222/251/222 230/260/230 229/259/229 221/250/221
f 223/252/223 231/261/231 230/260/230 222/251/222
f 224/245/224 232/254/232 231/261/231 223/252/223
f 225/253/225 233/262/233 240/263/240 232/254/232
f 226/255/226 234/264/234 233/265/233 225/256/225
f 227/257/227 235/266/235 234/264/234 226/255/226
f 228/258/228 236/267/236 235/266/235 227/257/227
f 229/259/229 237/268/237 236/267/236 228/258/228
f 230/260/230 238/269/238 237/268/237 229/259/229
f 231/261/231 239/270/239 238/269/238 230/260/230
f 232/254/232 240/263/240 239/270/239 231/261/231
f 233/262/233 241/271/241 248/272/248 240/263/240
f 234/264/234 242/273/242 241/274/241 233/265/233
f 235/266/235 243/275/243 242/273/242 234/264/234
f 236/267/236 244/276/244 243/275/243 235/266/235
f 237/268/237 245/277/245 244/276/244 236/267/236
f 238/269/238 246/278/246 245/277/245 237/268/237
f 239/270/239 247/279/247 246/278/246 238/269/238
f 240/263/240 248/272/248 247/279/247 239/270/239
f 241/271/241 249/280/249 256/281/256 248/272/248
f 242/273/242 250/282/250 249/283/249 241/274/241
f 243/275/243 251/284/251 250/282/250 242/273/242
f 244/276/244 252/285/252 251/284/251 243/275/243
f 245/277/245 253/286/253 252/285/252 244/276/244
f 246/278/246 254/287/254 253/286/253 245/277/245
f 247/279/247 255/288/255 254/287/254 246/278/246
f 248/272/248 256/281/256 255/288/255 247/279/247
f 249/280/249 257/289/257 264/290/264 256/281/256
f 250/282/250 258/291/258 257/292/257 249/283/249
f 251/284/251 259/293/259 258/291/258 250/282/250
f 252/285/252 260/294/260 259/293/259 251/284/251
f 253/286/253 261/295/261 260/294/260 252/285/252
f 254/287/254 262/296/262 261/295/261 253/286/253
f 255/288/255 263/297/263 262/296/262 254/287/254
f 256/281/256 264/290/264 263/297/263 255/288/255
f 257/289/257 265/298/265 272/299/272 264/290/264
f 258/291/258 266/300/266 265/301/265 257/292/257
f 259/293/259 267/302/267 266/300/266 258/291/258
f 260/294/260 268/303/268 267/302/267 259/293/259
f 261/295/261 269/304/269 268/303/268 260/294/260
f 262/296/262 270/305/270 269/304/269 261/295/261
f 263/297/263 271/306/271 270/305/270 262/296/262
f 264/290/264 272/299/272 271/306/271 263/297/263
f 265/298/265 273/307/273 280/308/280 272/299/272
f 266/300/266 274/309/274 273/310/273 265/301/265
f 267/302/267 275/311/275 274/309/274 266/300/266
f 268/303/268 276/312/276 275/311/275 267/302/267
f 269/304/269 277/313/277 276/312/276 268/303/268
f 270/305/270 278/314/278 277/313/277 269/304/269
f 271/306/271 279/315/279 278/314/278 270/305/270
f 272/299/272 280/308/280 279/315/279 271/306/271
f 273/307/273 281/316/281 288/317/288 280/308/280
f 274/309/274 282/318/282 281/319/281 273/310/273
f 275/311/275 283/320/283 282/318/282 274/309/274
f 276/312/276 284/321/284 283/320/283 275/311/275
f 277/313/277 285/322/285 284/321/284 276/312/276
f 278/314/278 286/323/286 285/322/285 277/313/277
f 279/315/279 287/324/287 286/323/286 278/314/278
f 280/308/280 288/317/288 287/324/287 279/315/279
f 281/316/281 289/325/289 296/326/296 288/317/288
f 282/318/282 290/327/290 289/328/289 281/319/281
f 283/320/283 291/329/291 290/327/290 282/318/282
f 284/321/284 292/330/292 291/329/291 283/320/283
f 285/322/285 293/331/293 292/330/292 284/321/284
f 286/323/286 294/332/294 293/331/293 285/322/285
f 287/324/287 295/333/295 294/332/294 286/323/286
f 288/317/288 296/326/296 295/333/295 287/324/287
f 289/325/289 297/334/297 304/335/304 296/326/296
f 290/327/290 298/336/298 297/337/297 289/328/289
f 291/329/291 299/338/299 298/336/298 290/327/290
f 292/330/292 300/339/300 299/338/299 291/329/291
f 293/331/293 301/340/301 300/339/300 292/330/292
f 294/332/294 302/341/302 301/340/301 293/331/293
f 295/333/295 303/342/303 302/341/302 294/332/294
f 296/326/296 304/335/304 303/342/303 295/333/295
f 297/334/297 305/343/305 312/344/312 304/335/304
f 298/336/298 306/345/306 305/346/305 297/337/297
f 299/338/299 307/347/307 306/345/306 298/336/298
f 300/339/300 308/348/308 307/347/307 299/338/299
f 301/340/301 309/349/309 308/348/308 300/339/300
f 302/341/302 310/350/310 309/349/309 301/340/301
f 303/342/303 311/351/311 310/350/310 302/341/302
f 304/335/304 312/344/312 311/351/311 303/342/303
f 305/343/305 313/352/313 320/353/320 312/344/312
f 306/345/306 314/354/314 313/355/313 305/346/305
f 307/347/307 315/356/315 314/354/314 306/345/306
f 308/348/308 316/357/316 315/356/315 307/347/307
f 309/349/309 317/358/317 316/357/316 308/348/308
f 310/350/310 318/359/318 317/358/317 309/349/309
f 311/351/311 319/360/319 318/359/318 310/350/310
f 312/344/312 320/353/320 319/360/319 311/351/311
f 313/352/313 321/361/321 328/362/328 320/353/320
f 314/354/314 322/363/322 321/364/321 313/355/313
f 315/356/315 323/365/323 322/363/322 314/354/314
f 316/357/316 324/366/324 323/365/323 315/356/315
f 317/358/317 325/367/325 324/366/324 316/357/316
f 318/359/318 326/368/326 325/367/325 317/358/317
f 319/360/319 327/369/327 326/368/326 318/359/318
f 320/353/320 328/362/328 327/369/327 319/360/319
f 321/361/321 329/370/329 336/371/336 328/362/328
f 322/363/322 330/372/330 329/373/329 321/364/321
f 323/365/323 331/374/331 330/372/330 322/363/322
f 324/366/324 332/375/332 331/374/331 323/365/323
f 325/367/325 333/376/333 332/375/332 324/366/324
f 326/368/326 334/377/334 333/376/333 325/367/325
f 327/369/327 335/378/335 334/377/334 326/368/326
f 328/362/328 336/371/336 335/378/335 327/369/327
f 329/370/329 337/379/337 344/380/344 336/371/336
f 330/372/330 338/381/338 337/382/337 329/373/329
f 331/374/331 339/383/339 338/381/338 330/372/330
f 332/375/332 340/384/340 339/383/339 331/374/331
f 333/376/333 341/385/341 340/384/340 332/375/332
f 334/377/334 342/386/342 341/385/341 333/376/333
f 335/378/335 343/387/343 342/386/342 334/377/334
f 336/371/336 344/380/344 343/387/343 335/378/335
f 337/379/337 345/388/345 352/389/352 344/380/344
f 338/381/338 346/390/346 345/391/345 337/382/337
f 339/383/339 347/392/347 346/390/346 338/381/338
f 340/384/340 348/393/348 347/392/347 339/383/339
f 341/385/341 349/394/349 348/393/348 340/384/340
f 342/386/342 350/395/350 349/394/349 341/385/341
f 343/387/343 351/396/351 350/395/350 342/386/342
f 344/380/344 352/389/352 351/396/351 343/387/343
o Cylinder
v 0.002459 0.069793 -0.221563
v 0.009061 0.064190 -0.239563
v -0.004190 0.070175 -0.222955
v -0.003614 0.064919 -0.242218
v -0.007184 0.076249 -0.223613
v -0.009322 0.076499 -0.243472
v -0.003529 0.081941 -0.222879
v -0.002354 0.087349 -0.242072
v 0.003120 0.081559 -0.221487
v 0.010321 0.086620 -0.239417
v 0.006114 0.075484 -0.220829
v 0.016029 0.075040 -0.238163
v 0.006372 0.043205 -0.221358
v -0.010754 0.044191 -0.224944
v -0.007932 0.044120 -0.238439
v 0.009193 0.043135 -0.234853
v -0.028631 0.086113 -0.242987
v -0.031453 0.086184 -0.229492
v -0.022039 0.100844 -0.227600
v -0.019217 0.100773 -0.241095
v 0.026750 0.098129 -0.231470
v 0.023928 0.098200 -0.217975
v 0.031639 0.082555 -0.216280
v 0.034461 0.082484 -0.229776
v 0.006476 0.032100 -0.220542
v -0.012395 0.033185 -0.224494
v -0.008555 0.039062 -0.238587
v 0.009263 0.038037 -0.234855
v -0.032974 0.088603 -0.243952
v -0.041144 0.091510 -0.230811
v -0.030770 0.107664 -0.228727
v -0.023179 0.103856 -0.241984
v 0.031049 0.100736 -0.230629
v 0.033072 0.103991 -0.215358
v 0.041570 0.086751 -0.213491
v 0.039072 0.084458 -0.228866
v -0.000707 0.044054 -0.206161
v -0.010297 0.044605 -0.208170
v -0.032275 0.089192 -0.212999
v -0.027003 0.097402 -0.211939
v 0.021803 0.094595 -0.201719
v 0.026122 0.085833 -0.200770
v -0.000468 0.040157 -0.205610
v -0.011163 0.040772 -0.207850
v -0.035844 0.090844 -0.213273
v -0.029965 0.100000 -0.212092
v 0.024845 0.096847 -0.200614
v 0.029661 0.087076 -0.199556
v -0.007922 0.058210 -0.243083
v 0.012590 0.057030 -0.238788
v -0.017159 0.076950 -0.245113
v -0.005883 0.094509 -0.242847
v 0.014629 0.093329 -0.238552
v 0.023866 0.074589 -0.236522
v -0.000335 0.064837 -0.257899
v 0.012340 0.064108 -0.255245
v -0.006043 0.076416 -0.259153
v 0.000925 0.087267 -0.257753
v 0.013600 0.086538 -0.255099
v 0.019308 0.074958 -0.253845
v 0.008702 0.057128 -0.220191
v -0.011811 0.058308 -0.224487
v -0.021047 0.077047 -0.226516
v -0.009772 0.094606 -0.224251
v 0.010740 0.093426 -0.219955
v 0.019977 0.074687 -0.217926
v -0.005951 0.076003 -0.196318
vn -0.9767 -0.0665 -0.2039
vn -0.8743 -0.4505 -0.1805
vn -0.1586 0.0287 0.9869
vn 0.0561 0.9984 0.0065
vn 0.8183 -0.5479 0.1740
vn -0.6334 -0.7631 -0.1284
vn 0.7542 -0.5337 0.3825
vn -0.4721 -0.8762 -0.0969
vn 0.5990 0.7919 0.1183
vn -0.1394 -0.8971 0.4192
vn -0.2073 -0.0472 0.9771
vn -0.2472 0.0338 0.9684
vn 0.4606 0.1320 -0.8778
vn 0.1780 -0.3082 -0.9345
vn -0.0536 0.1615 -0.9854
vn 0.5438 -0.8308 0.1181
vn -0.3296 0.9412 -0.0739
vn 0.9630 -0.1781 0.2023
vn 0.4329 0.8974 0.0858
vn 0.0261 -0.9251 -0.3787
vn -0.6787 0.5047 -0.5336
vn 0.8864 0.4146 -0.2058
vn 0.3721 -0.9247 0.0799
vn 0.2051 0.0033 -0.9787
vn -0.5054 0.8555 -0.1129
vn -0.4736 -0.8722 0.1224
vn 0.9792 0.0207 0.2019
vn 0.0629 0.9977 -0.0264
vn 0.2116 -0.0098 -0.9773
vn -0.9695 0.1328 -0.2062
vn 0.1973 -0.0089 -0.9803
vn -0.1964 0.1255 0.9725
vn -0.1045 -0.0610 0.9927
vn -0.3086 -0.0492 0.9499
vn 0.5694 0.7521 0.3319
vn 0.2862 -0.9159 0.2815
vn 0.8247 -0.5478 0.1410
vn -0.8260 0.4958 0.2684
vn 0.9115 0.0579 0.4071
vn -0.8670 -0.4504 -0.2132
vn 0.6987 0.4080 0.5876
vn -0.5682 0.8175 0.0937
vn -0.9859 0.1671 0.0098
vn 0.2047 -0.0051 -0.9788
vn 0.8743 0.4505 0.1805
vn -0.8183 0.5479 -0.1740
vn -0.0561 -0.9984 -0.0065
vn -0.2047 0.0051 0.9788
vn 0.0103 0.9757 0.2191
vn -0.8979 -0.4386 0.0366
vn 0.8090 0.4409 0.3889
vn -0.8432 0.5359 0.0429
vn -0.0992 -0.9734 0.2064
vt 0.833333 1.000000
vt 0.833333 0.500000
vt 0.666667 1.000000
vt 0.666667 0.500000
vt 0.542154 0.370000
vt 0.542154 0.130000
vt 0.500000 0.500000
vt 0.500000 1.000000
vt 0.333333 1.000000
vt 0.333333 0.500000
vt 0.250000 0.398306
vt 0.121563 0.324153
vt 0.166667 0.500000
vt 0.166667 1.000000
vt -0.000000 1.000000
vt -0.000000 0.500000
vt 0.682629 0.288897
vt 0.750000 0.327793
vt 1.000000 0.500000
vt 0.957846 0.370000
vt 0.750000 0.490000
vt 0.750000 0.010000
vt 0.957846 0.130000
vt 0.042154 0.130000
vt 0.042154 0.370000
vt 0.250000 0.490000
vt 0.457846 0.370000
vt 0.457846 0.130000
vt 0.250000 0.010000
vt 1.000000 1.000000
vt 0.378437 0.324153
vt 0.378437 0.175847
vt 0.250000 0.101694
vt 0.121563 0.175847
vt 0.817371 0.288897
vt 0.817371 0.211103
vt 0.750000 0.172207
vt 0.682629 0.211103
s 0
usemtl _Chromes
f 401/397/353 367/397/353 366/398/353 414/398/353
f 414/398/354 415/400/354 403/399/354 401/397/354
f 418/401/355 375/401/355 374/402/355 417/402/355
f 416/403/356 417/406/356 405/405/356 404/404/356
f 354/407/357 408/407/357 412/408/357 364/408/357
f 415/400/358 370/400/358 369/399/358 403/399/358
f 418/409/357 413/412/357 402/411/357 406/410/357
f 363/413/359 419/413/359 353/414/359
f 370/400/360 382/400/360 381/399/360 369/399/360
f 372/404/361 384/404/361 383/403/361 371/403/361
f 377/415/362 395/415/362 396/398/362 378/398/362
f 414/416/363 366/416/363 365/417/363 413/417/363
f 416/418/364 371/418/364 370/419/364 415/419/364
f 405/420/365 373/420/365 376/421/365 406/421/365
f 402/422/366 368/422/366 367/423/366 401/423/366
f 403/424/367 369/424/367 372/425/367 404/425/367
f 406/410/368 376/410/368 375/409/368 418/409/368
f 417/406/369 374/406/369 373/405/369 405/405/369
f 413/412/370 365/412/370 368/411/370 402/411/370
f 404/404/371 372/404/371 371/403/371 416/403/371
f 377/415/372 378/398/372 379/397/372 380/426/372
f 382/400/373 383/403/373 384/404/373 381/399/373
f 386/406/374 387/409/374 388/410/374 385/405/374
f 376/410/375 388/410/375 387/409/375 375/409/375
f 368/422/376 380/422/376 379/423/376 367/423/376
f 374/406/377 386/406/377 385/405/377 373/405/377
f 370/400/378 391/400/378 397/400/378 382/400/378
f 365/412/379 377/412/379 380/411/379 368/411/379
f 366/416/380 390/416/380 389/417/380 365/417/380
f 369/424/381 381/424/381 384/425/381 372/425/381
f 367/397/382 379/397/382 378/398/382 366/398/382
f 373/420/383 385/420/383 388/421/383 376/421/383
f 390/416/384 396/416/384 395/417/384 389/417/384
f 392/418/385 398/418/385 397/419/385 391/419/385
f 394/401/386 400/401/386 399/402/386 393/402/386
f 383/403/387 398/403/387 392/403/387 371/403/387
f 387/409/388 400/409/388 394/409/388 375/409/388
f 371/418/389 392/418/389 391/419/389 370/419/389
f 382/400/390 397/400/390 398/403/390 383/403/390
f 365/412/391 389/412/391 395/412/391 377/412/391
f 375/401/392 394/401/392 393/402/392 374/402/392
f 386/406/393 399/406/393 400/409/393 387/409/393
f 374/406/394 393/406/394 399/406/394 386/406/394
f 378/398/395 396/398/395 390/398/395 366/398/395
f 354/407/396 402/422/396 401/423/396 356/427/396
f 356/427/396 401/423/396 403/424/396 358/428/396
f 358/428/396 403/424/396 404/425/396 360/429/396
f 360/429/396 404/425/396 405/420/396 362/430/396
f 362/430/396 405/420/396 406/421/396 364/408/396
f 364/408/396 406/421/396 402/422/396 354/407/396
f 407/427/396 409/428/396 410/429/396 411/430/396 412/408/396 408/407/396
f 362/430/356 411/430/356 410/429/356 360/429/356
f 358/428/354 409/428/354 407/427/354 356/427/354
f 364/408/397 412/408/397 411/430/397 362/430/397
f 360/429/398 410/429/398 409/428/398 358/428/398
f 356/427/399 407/427/399 408/407/399 354/407/399
f 355/431/400 414/416/400 413/417/400 353/414/400
f 357/432/400 415/419/400 414/416/400 355/431/400
f 359/433/400 416/418/400 415/419/400 357/432/400
f 361/434/400 417/402/400 416/418/400 359/433/400
f 363/413/400 418/401/400 417/402/400 361/434/400
f 353/414/400 413/417/400 418/401/400 363/413/400
f 359/433/401 419/433/401 361/434/401
f 355/431/402 419/431/402 357/432/402
f 361/434/403 419/434/403 363/413/403
f 357/432/404 419/432/404 359/433/404
f 353/414/405 419/414/405 355/431/405
o Cylinder.001
v 0.000000 0.022107 -0.223694
v 0.000000 0.020078 -0.228921
v 0.015912 0.026792 -0.225524
v 0.015912 0.024764 -0.230750
v 0.016816 0.079641 -0.259320
v 0.016816 0.077612 -0.264546
v 0.000903 0.084326 -0.261149
v 0.000903 0.082298 -0.266376
v -0.015009 0.079641 -0.259320
v -0.015009 0.077612 -0.264546
v -0.017263 0.027164 -0.224533
v -0.017043 0.025135 -0.231716
v 0.016416 0.063556 -0.252277
v 0.016416 0.061527 -0.257503
v 0.006593 0.061411 -0.265173
v 0.006313 0.063380 -0.270415
v 0.014535 0.067315 -0.267951
v 0.014256 0.069284 -0.273192
v 0.000149 0.098218 -0.265827
v -0.000130 0.100187 -0.271068
v -0.037686 0.099152 -0.266156
v -0.037965 0.101121 -0.271398
v -0.040716 0.095159 -0.266443
v -0.040995 0.097129 -0.271684
v -0.008383 0.067203 -0.262403
v -0.008663 0.069172 -0.267645
v 0.007051 0.090714 -0.268406
v 0.006771 0.092684 -0.273647
v 0.006593 0.023899 -0.213458
v 0.006313 0.025868 -0.218700
v 0.014648 0.027907 -0.214484
v 0.014705 0.028451 -0.220655
v 0.004263 0.043923 -0.213427
v 0.006135 0.046568 -0.218576
v -0.010713 0.046306 -0.215140
v -0.010649 0.048105 -0.220211
v -0.012782 0.042645 -0.215402
v -0.013061 0.044614 -0.220644
v -0.015412 0.020134 -0.213030
v -0.014881 0.023480 -0.222504
v 0.008878 0.037165 -0.214815
v 0.012591 0.036630 -0.219438
vn 0.3014 -0.8889 0.3450
vn 0.9997 -0.0212 0.0082
vn 0.3014 0.8889 -0.3450
vn -0.3014 0.8889 -0.3450
vn -0.9994 0.0243 -0.0256
vn -0.2988 -0.9086 0.2918
vn 0.9999 -0.0107 0.0041
vn 0.4861 -0.8092 -0.3299
vn 0.7544 0.6267 0.1953
vn 0.0201 0.9363 0.3507
vn -0.7786 0.5726 0.2566
vn -0.6157 -0.7479 -0.2482
vn -0.3921 -0.8678 -0.3051
vn 0.9501 0.3052 0.0640
vn 0.3309 -0.9202 -0.2090
vn 0.7440 0.4237 0.5166
vn 0.0692 0.9100 0.4088
vn -0.8386 0.5058 0.2024
vn -0.9946 0.1016 0.0197
vn 0.1584 -0.9295 -0.3331
vn 0.8734 0.3793 0.3053
vt 1.000000 0.500000
vt 1.000000 1.000000
vt 0.833333 1.000000
vt 0.833333 0.500000
vt 0.714951 0.500000
vt 0.714951 1.000000
vt 0.666667 1.000000
vt 0.666667 0.500000
vt 0.500000 1.000000
vt 0.500000 0.500000
vt 0.333333 1.000000
vt 0.333333 0.500000
vt 0.166667 1.000000
vt 0.166667 0.500000
vt -0.000000 1.000000
vt -0.000000 0.500000
s 0
usemtl _Rope
f 420/435/406 421/436/406 423/437/406 422/438/406
f 432/439/407 433/440/407 425/441/407 424/442/407
f 424/442/408 425/441/408 427/443/408 426/444/408
f 426/444/409 427/443/409 429/445/409 428/446/409
f 428/446/410 429/445/410 431/447/410 430/448/410
f 430/448/411 431/447/411 421/449/411 420/450/411
f 422/438/412 423/437/412 433/440/412 432/439/412
f 434/435/413 435/436/413 437/437/413 436/438/413
f 446/439/414 447/440/414 439/441/414 438/442/414
f 438/442/415 439/441/415 441/443/415 440/444/415
f 440/444/416 441/443/416 443/445/416 442/446/416
f 442/446/417 443/445/417 445/447/417 444/448/417
f 444/448/418 445/447/418 435/449/418 434/450/418
f 436/438/419 437/437/419 447/440/419 446/439/419
f 448/435/420 449/436/420 451/437/420 450/438/420
f 460/439/421 461/440/421 453/441/421 452/442/421
f 452/442/422 453/441/422 455/443/422 454/444/422
f 454/444/423 455/443/423 457/445/423 456/446/423
f 456/446/424 457/445/424 459/447/424 458/448/424
f 458/448/425 459/447/425 449/449/425 448/450/425
f 450/438/426 451/437/426 461/440/426 460/439/426
o Spike.001
v -0.000000 0.059203 -0.468645
v 0.004570 0.057310 -0.468645
v 0.006463 0.052740 -0.468645
v 0.004570 0.048169 -0.468645
v -0.000000 0.046276 -0.468645
v -0.004570 0.048169 -0.468645
v -0.006463 0.052740 -0.468645
v -0.004570 0.057310 -0.468645
v -0.000000 0.052740 -0.489581
v -0.000000 0.055434 -0.485853
v 0.001905 0.054645 -0.485853
v 0.002695 0.052740 -0.485853
v 0.001905 0.050834 -0.485853
v -0.000000 0.050045 -0.485853
v -0.001905 0.050834 -0.485853
v -0.002695 0.052740 -0.485853
v -0.001905 0.054645 -0.485853
v -0.000000 0.063373 -0.473412
v 0.007519 0.060258 -0.473412
v 0.010633 0.052740 -0.473412
v 0.007519 0.045221 -0.473412
v -0.000000 0.042107 -0.473412
v -0.007519 0.045221 -0.473412
v -0.010633 0.052740 -0.473412
v -0.007519 0.060258 -0.473412
vn -0.2976 0.7186 0.6286
vn -0.7186 0.2976 0.6286
vn -0.7186 -0.2976 0.6286
vn -0.2976 -0.7186 0.6286
vn 0.2976 -0.7186 0.6286
vn 0.7186 -0.2976 0.6285
vn 0.7186 0.2976 0.6286
vn 0.2976 0.7186 0.6286
vn 0.3182 0.7683 -0.5554
vn 0.7683 0.3182 -0.5554
vn 0.7683 -0.3182 -0.5554
vn 0.3182 -0.7683 -0.5554
vn -0.3182 -0.7683 -0.5554
vn -0.7683 -0.3182 -0.5554
vn -0.7683 0.3182 -0.5554
vn -0.3182 0.7683 -0.5554
vn 0.3297 0.7959 -0.5078
vn 0.7959 0.3297 -0.5078
vn 0.7959 -0.3297 -0.5078
vn 0.3297 -0.7959 -0.5078
vn -0.3297 -0.7959 -0.5078
vn -0.7959 -0.3297 -0.5078
vn -0.7959 0.3297 -0.5078
vn -0.3297 0.7959 -0.5078
vt 0.125000 0.882116
vt 0.125000 0.929907
vt 0.000000 0.929907
vt 0.000000 0.882116
vt 0.250000 0.882116
vt 0.250000 0.929907
vt 0.375000 0.882116
vt 0.375000 0.929906
vt 0.500000 0.882116
vt 0.500000 0.929907
vt 0.625000 0.882116
vt 0.625000 0.929907
vt 0.750000 0.882116
vt 0.750000 0.929907
vt 0.875000 0.882116
vt 0.875000 0.929906
vt 1.000000 0.882116
vt 1.000000 0.929907
vt 1.000000 0.813084
vt 1.000000 0.871495
vt 0.875000 0.871495
vt 0.875000 0.813084
vt 0.750000 0.871495
vt 0.750000 0.813084
vt 0.625000 0.871495
vt 0.625000 0.813084
vt 0.500000 0.871495
vt 0.500000 0.813084
vt 0.375000 0.871495
vt 0.375000 0.813084
vt 0.250000 0.871495
vt 0.250000 0.813084
vt 0.125000 0.871495
vt 0.125000 0.813084
vt 0.000000 0.871495
s 0
usemtl _Chromes.001
f 486/451/427 469/452/427 462/453/427 479/454/427
f 485/455/428 468/456/428 469/452/428 486/451/428
f 484/457/429 467/458/429 468/456/429 485/455/429
f 483/459/430 466/460/430 467/458/430 484/457/430
f 482/461/431 465/462/431 466/460/431 483/459/431
f 481/463/432 464/464/432 465/462/432 482/461/432
f 480/465/433 463/466/433 464/464/433 481/463/433
f 479/467/434 462/468/434 463/466/434 480/465/434
f 470/469/435 471/470/435 472/471/435
f 470/472/436 472/471/436 473/473/436
f 470/474/437 473/473/437 474/475/437
f 470/476/438 474/475/438 475/477/438
f 470/478/439 475/477/439 476/479/439
f 470/480/440 476/479/440 477/481/440
f 470/482/441 477/481/441 478/483/441
f 470/484/442 478/483/442 471/485/442
f 471/470/443 479/467/443 480/465/443 472/471/443
f 472/471/444 480/465/444 481/463/444 473/473/444
f 473/473/445 481/463/445 482/461/445 474/475/445
f 474/475/446 482/461/446 483/459/446 475/477/446
f 475/477/447 483/459/447 484/457/447 476/479/447
f 476/479/448 484/457/448 485/455/448 477/481/448
f 477/481/449 485/455/449 486/451/449 478/483/449
f 478/483/450 486/451/450 479/454/450 471/485/450
