# Blender 4.3.2
# www.blender.org
mtllib RG_BatteryCore.mtl
o BatteryCore
v -0.000000 0.051836 -0.056295
v -0.000000 0.051836 -0.216275
v 0.012357 0.056955 -0.056295
v 0.012357 0.056955 -0.216275
v 0.017476 0.069312 -0.056295
v 0.017476 0.069312 -0.216275
v 0.012357 0.081669 -0.056295
v 0.012357 0.081669 -0.216275
v -0.000000 0.086788 -0.056295
v -0.000000 0.086788 -0.216275
v -0.012357 0.081669 -0.056295
v -0.012357 0.081669 -0.216275
v -0.017476 0.069312 -0.056295
v -0.017476 0.069312 -0.216275
v -0.012357 0.056955 -0.056295
v -0.012357 0.056955 -0.216275
vn 0.3827 -0.9239 -0.0000
vn 0.9239 -0.3827 -0.0000
vn 0.9239 0.3827 -0.0000
vn 0.3827 0.9239 -0.0000
vn -0.3827 0.9239 -0.0000
vn -0.9239 0.3827 -0.0000
vn -0.9239 -0.3827 -0.0000
vn -0.3827 -0.9239 -0.0000
vt 1.000000 0.500000
vt 1.000000 1.000000
vt 0.875000 1.000000
vt 0.875000 0.500000
vt 0.750000 1.000000
vt 0.750000 0.500000
vt 0.625000 1.000000
vt 0.625000 0.500000
vt 0.500000 1.000000
vt 0.500000 0.500000
vt 0.375000 1.000000
vt 0.375000 0.500000
vt 0.250000 1.000000
vt 0.250000 0.500000
vt 0.125000 1.000000
vt 0.125000 0.500000
vt 0.000000 1.000000
vt 0.000000 0.500000
s 0
usemtl Material.006
f 1/1/1 2/2/1 4/3/1 3/4/1
f 3/4/2 4/3/2 6/5/2 5/6/2
f 5/6/3 6/5/3 8/7/3 7/8/3
f 7/8/4 8/7/4 10/9/4 9/10/4
f 9/10/5 10/9/5 12/11/5 11/12/5
f 11/12/6 12/11/6 14/13/6 13/14/6
f 13/14/7 14/13/7 16/15/7 15/16/7
f 15/16/8 16/15/8 2/17/8 1/18/8
