# Blender 4.3.2
# www.blender.org
mtllib RG_BatteryHolder.mtl
o BatteryHolder.001
v 0.000000 -0.032705 0.215365
v 0.000000 -0.032705 0.188680
v 0.022510 -0.023382 0.215365
v 0.022510 -0.023381 0.188680
v 0.031833 -0.000872 0.215365
v 0.031833 -0.000872 0.188680
v 0.022510 0.021638 0.215365
v 0.022510 0.021638 0.188680
v 0.000000 0.030962 0.215365
v 0.000000 0.030962 0.188680
v -0.022510 0.021638 0.215365
v -0.022510 0.021638 0.188680
v -0.031833 -0.000872 0.215365
v -0.031833 -0.000872 0.188680
v -0.022510 -0.023382 0.215365
v -0.022510 -0.023381 0.188680
v 0.000000 -0.032705 0.026634
v 0.000000 -0.032705 -0.000051
v 0.022510 -0.023382 0.026634
v 0.022510 -0.023381 -0.000051
v 0.031833 -0.000872 0.026634
v 0.031833 -0.000872 -0.000051
v 0.022510 0.021638 0.026634
v 0.022510 0.021638 -0.000051
v 0.000000 0.030962 0.026634
v 0.000000 0.030962 -0.000051
v -0.022510 0.021638 0.026634
v -0.022510 0.021638 -0.000051
v -0.031833 -0.000872 0.026634
v -0.031833 -0.000872 -0.000051
v -0.022510 -0.023382 0.026634
v -0.022510 -0.023381 -0.000051
v 0.000000 -0.032705 0.013292
v 0.022510 -0.023382 0.013292
v 0.031833 -0.000872 0.013292
v 0.022510 0.021638 0.013292
v 0.000000 0.030962 0.013292
v -0.022510 0.021638 0.013292
v -0.031833 -0.000872 0.013292
v -0.022510 -0.023382 0.013292
v 0.000000 -0.032705 0.202022
v 0.022510 -0.023382 0.202022
v 0.031833 -0.000872 0.202022
v 0.022510 0.021638 0.202022
v 0.000000 0.030962 0.202022
v -0.022510 0.021638 0.202022
v -0.031833 -0.000872 0.202022
v -0.022510 -0.023382 0.202022
v 0.000000 -0.032705 0.195351
v 0.022510 -0.023381 0.195351
v 0.031833 -0.000872 0.195351
v 0.022510 0.021638 0.195351
v 0.000000 0.030962 0.195351
v -0.022510 0.021638 0.195351
v -0.031833 -0.000872 0.195351
v -0.022510 -0.023381 0.195351
v 0.022510 -0.023382 0.019963
v 0.031833 -0.000872 0.019963
v 0.022510 0.021638 0.019963
v 0.000000 0.030962 0.019963
v -0.022510 0.021638 0.019963
v -0.031833 -0.000872 0.019963
v -0.022510 -0.023382 0.019963
v 0.000000 -0.032705 0.019963
v 0.000000 -0.035170 0.016627
v 0.024253 -0.025124 0.016627
v 0.034298 -0.000872 0.016627
v 0.024253 0.023381 0.016627
v 0.000000 0.033426 0.016627
v -0.024253 0.023381 0.016627
v -0.034298 -0.000872 0.016627
v -0.024253 -0.025124 0.016627
v 0.024253 -0.025124 0.198686
v 0.034298 -0.000872 0.198686
v 0.024253 0.023381 0.198686
v 0.000000 0.033426 0.198686
v -0.024253 0.023381 0.198686
v -0.034298 -0.000872 0.198686
v -0.024253 -0.025124 0.198686
v 0.000000 -0.035170 0.198686
v -0.001835 -0.029120 0.201617
v 0.001835 -0.029120 0.201617
v 0.001835 -0.029120 0.011834
v -0.001835 -0.029120 0.011834
v 0.018677 -0.022143 0.201617
v 0.021272 -0.019549 0.201617
v 0.021272 -0.019549 0.011834
v 0.018677 -0.022143 0.011834
v 0.028248 -0.002707 0.201617
v 0.028248 0.000963 0.201617
v 0.028248 0.000963 0.011834
v 0.028248 -0.002707 0.011834
v 0.021272 0.017805 0.201617
v 0.018677 0.020400 0.201617
v 0.018677 0.020400 0.011834
v 0.021272 0.017805 0.011834
v 0.001835 0.027376 0.201617
v -0.001835 0.027376 0.201617
v -0.001835 0.027376 0.011834
v 0.001835 0.027376 0.011834
v -0.018677 0.020400 0.201617
v -0.021272 0.017805 0.201617
v -0.021272 0.017805 0.011834
v -0.018677 0.020400 0.011834
v -0.028248 0.000963 0.201617
v -0.028248 -0.002707 0.201617
v -0.028248 -0.002707 0.011834
v -0.028248 0.000963 0.011834
v -0.021272 -0.019549 0.201617
v -0.018677 -0.022143 0.201617
v -0.018677 -0.022143 0.011834
v -0.021272 -0.019549 0.011834
vn -0.3827 -0.9239 -0.0000
vn 0.9239 0.3827 -0.0000
vn 0.3827 0.9239 -0.0000
vn -0.3827 0.9239 -0.0000
vn -0.9239 0.3827 -0.0000
vn -0.9239 -0.3827 -0.0000
vn 0.9239 -0.3827 -0.0000
vn 0.3827 -0.9239 -0.0000
vn -0.0000 -0.0000 -1.0000
vn -0.0000 -0.0000 1.0000
vn -0.3161 -0.7630 -0.5638
vn -0.7630 -0.3161 -0.5638
vn -0.7630 0.3161 -0.5638
vn -0.3161 0.7630 -0.5638
vn 0.3161 0.7630 -0.5638
vn 0.7630 0.3161 -0.5638
vn 0.7630 -0.3161 -0.5638
vn 0.3161 -0.7630 -0.5638
vn 0.3161 -0.7630 0.5638
vn 0.7630 -0.3161 0.5638
vn 0.7630 0.3161 0.5638
vn 0.3161 0.7630 0.5638
vn -0.3161 0.7630 0.5638
vn -0.7630 0.3161 0.5638
vn -0.7630 -0.3161 0.5638
vn -0.3161 -0.7630 0.5638
vn -0.0000 -1.0000 -0.0000
vn 0.7071 -0.7071 -0.0000
vn 1.0000 -0.0000 -0.0000
vn 0.7071 0.7071 -0.0000
vn -0.0000 1.0000 -0.0000
vn -0.7071 0.7071 -0.0000
vn -1.0000 -0.0000 -0.0000
vn -0.7071 -0.7071 -0.0000
vt 0.113819 0.500000
vt 0.113819 1.000000
vt 0.011181 1.000000
vt 0.011181 0.500000
vt 0.738819 0.500000
vt 0.738819 1.000000
vt 0.636181 1.000000
vt 0.636181 0.500000
vt 0.613819 0.500000
vt 0.613819 1.000000
vt 0.511181 1.000000
vt 0.511181 0.500000
vt 0.488819 0.500000
vt 0.488819 1.000000
vt 0.386181 1.000000
vt 0.386181 0.500000
vt 0.363819 0.500000
vt 0.363819 1.000000
vt 0.261181 1.000000
vt 0.261181 0.500000
vt 0.238819 0.500000
vt 0.238819 1.000000
vt 0.136181 1.000000
vt 0.136181 0.500000
vt 0.863819 0.500000
vt 0.863819 1.000000
vt 0.761181 1.000000
vt 0.761181 0.500000
vt 1.000000 0.875000
vt 1.000000 1.000000
vt 0.875000 1.000000
vt 0.875000 0.875000
vt 0.750000 1.000000
vt 0.750000 0.875000
vt 0.625000 1.000000
vt 0.625000 0.875000
vt 0.500000 1.000000
vt 0.500000 0.875000
vt 0.375000 1.000000
vt 0.375000 0.875000
vt 0.250000 1.000000
vt 0.250000 0.875000
vt 0.419706 0.419706
vt 0.250000 0.490000
vt 0.080294 0.419706
vt 0.010000 0.250000
vt 0.080294 0.080294
vt 0.250000 0.010000
vt 0.419706 0.080294
vt 0.490000 0.250000
vt 0.125000 1.000000
vt 0.125000 0.875000
vt 0.000000 1.000000
vt 0.000000 0.875000
vt 0.750000 0.490000
vt 0.919706 0.419706
vt 0.990000 0.250000
vt 0.919706 0.080294
vt 0.750000 0.010000
vt 0.580294 0.080294
vt 0.510000 0.250000
vt 0.580294 0.419706
vt 1.000000 0.750000
vt 0.875000 0.750000
vt 0.750000 0.750000
vt 0.625000 0.750000
vt 0.500000 0.750000
vt 0.375000 0.750000
vt 0.250000 0.750000
vt 0.125000 0.750000
vt 0.000000 0.750000
vt 0.125000 0.687500
vt 0.000000 0.687500
vt 0.250000 0.687500
vt 0.375000 0.687500
vt 0.500000 0.687500
vt 0.625000 0.687500
vt 0.750000 0.687500
vt 0.875000 0.687500
vt 1.000000 0.687500
vt 0.125000 0.500000
vt 0.000000 0.500000
vt 0.250000 0.500000
vt 0.375000 0.500000
vt 0.500000 0.500000
vt 0.625000 0.500000
vt 0.750000 0.500000
vt 0.875000 0.500000
vt 1.000000 0.500000
vt 0.125000 0.812500
vt 0.000000 0.812500
vt 0.250000 0.812500
vt 0.375000 0.812500
vt 0.500000 0.812500
vt 0.625000 0.812500
vt 0.750000 0.812500
vt 0.875000 0.812500
vt 1.000000 0.812500
vt 1.000000 0.625000
vt 0.875000 0.625000
vt 0.750000 0.625000
vt 0.625000 0.625000
vt 0.500000 0.625000
vt 0.375000 0.625000
vt 0.250000 0.625000
vt 0.125000 0.625000
vt 0.000000 0.625000
vt 0.886181 0.500000
vt 0.886181 1.000000
vt 0.988819 0.500000
vt 0.988819 1.000000
s 0
usemtl Chromes.001
f 110/1/1 111/2/1 84/3/1 81/4/1
f 90/5/2 91/6/2 96/7/2 93/8/2
f 94/9/3 95/10/3 100/11/3 97/12/3
f 98/13/4 99/14/4 104/15/4 101/16/4
f 102/17/5 103/18/5 108/19/5 105/20/5
f 106/21/6 107/22/6 112/23/6 109/24/6
f 86/25/7 87/26/7 92/27/7 89/28/7
f 82/110/8 83/111/8 88/109/8 85/108/8
usemtl _Mettle
f 49/29/8 2/30/8 4/31/8 50/32/8
f 50/32/7 4/31/7 6/33/7 51/34/7
f 51/34/2 6/33/2 8/35/2 52/36/2
f 52/36/3 8/35/3 10/37/3 53/38/3
f 53/38/4 10/37/4 12/39/4 54/40/4
f 54/40/5 12/39/5 14/41/5 55/42/5
f 4/43/9 2/44/9 16/45/9 14/46/9 12/47/9 10/48/9 8/49/9 6/50/9
f 55/42/6 14/41/6 16/51/6 56/52/6
f 56/52/1 16/51/1 2/53/1 49/54/1
f 1/55/10 3/56/10 5/57/10 7/58/10 9/59/10 11/60/10 13/61/10 15/62/10
f 33/63/8 18/30/8 20/31/8 34/64/8
f 34/64/7 20/31/7 22/33/7 35/65/7
f 35/65/2 22/33/2 24/35/2 36/66/2
f 36/66/3 24/35/3 26/37/3 37/67/3
f 37/67/4 26/37/4 28/39/4 38/68/4
f 38/68/5 28/39/5 30/41/5 39/69/5
f 20/43/9 18/44/9 32/45/9 30/46/9 28/47/9 26/48/9 24/49/9 22/50/9
f 39/69/6 30/41/6 32/51/6 40/70/6
f 40/70/1 32/51/1 18/53/1 33/71/1
f 17/55/10 19/56/10 21/57/10 23/58/10 25/59/10 27/60/10 29/61/10 31/62/10
f 15/81/1 48/70/1 41/71/1 1/82/1
f 13/83/6 47/69/6 48/70/6 15/81/6
f 11/84/5 46/68/5 47/69/5 13/83/5
f 9/85/4 45/67/4 46/68/4 11/84/4
f 7/86/3 44/66/3 45/67/3 9/85/3
f 5/87/2 43/65/2 44/66/2 7/86/2
f 3/88/7 42/64/7 43/65/7 5/87/7
f 1/89/8 41/63/8 42/64/8 3/88/8
f 17/89/8 64/99/8 57/100/8 19/88/8
f 19/88/7 57/100/7 58/101/7 21/87/7
f 21/87/2 58/101/2 59/102/2 23/86/2
f 23/86/3 59/102/3 60/103/3 25/85/3
f 25/85/4 60/103/4 61/104/4 27/84/4
f 27/84/5 61/104/5 62/105/5 29/83/5
f 29/83/6 62/105/6 63/106/6 31/81/6
f 31/81/1 63/106/1 64/107/1 17/82/1
f 81/4/27 84/3/27 83/53/27 82/82/27
f 87/26/28 86/25/28 85/108/28 88/109/28
f 91/6/29 90/5/29 89/28/29 92/27/29
f 95/10/30 94/9/30 93/8/30 96/7/30
f 99/14/31 98/13/31 97/12/31 100/11/31
f 103/18/32 102/17/32 101/16/32 104/15/32
f 107/22/33 106/21/33 105/20/33 108/19/33
f 111/2/34 110/1/34 109/24/34 112/23/34
usemtl _Chromes
f 72/72/11 40/70/11 33/71/11 65/73/11
f 71/74/12 39/69/12 40/70/12 72/72/12
f 70/75/13 38/68/13 39/69/13 71/74/13
f 69/76/14 37/67/14 38/68/14 70/75/14
f 68/77/15 36/66/15 37/67/15 69/76/15
f 67/78/16 35/65/16 36/66/16 68/77/16
f 66/79/17 34/64/17 35/65/17 67/78/17
f 65/80/18 33/63/18 34/64/18 66/79/18
f 79/90/11 56/52/11 49/54/11 80/91/11
f 78/92/12 55/42/12 56/52/12 79/90/12
f 77/93/13 54/40/13 55/42/13 78/92/13
f 76/94/14 53/38/14 54/40/14 77/93/14
f 75/95/15 52/36/15 53/38/15 76/94/15
f 74/96/16 51/34/16 52/36/16 75/95/16
f 73/97/17 50/32/17 51/34/17 74/96/17
f 80/98/18 49/29/18 50/32/18 73/97/18
f 64/99/19 65/80/19 66/79/19 57/100/19
f 57/100/20 66/79/20 67/78/20 58/101/20
f 58/101/21 67/78/21 68/77/21 59/102/21
f 59/102/22 68/77/22 69/76/22 60/103/22
f 60/103/23 69/76/23 70/75/23 61/104/23
f 61/104/24 70/75/24 71/74/24 62/105/24
f 62/105/25 71/74/25 72/72/25 63/106/25
f 63/106/26 72/72/26 65/73/26 64/107/26
f 41/63/19 80/98/19 73/97/19 42/64/19
f 42/64/20 73/97/20 74/96/20 43/65/20
f 43/65/21 74/96/21 75/95/21 44/66/21
f 44/66/22 75/95/22 76/94/22 45/67/22
f 45/67/23 76/94/23 77/93/23 46/68/23
f 46/68/24 77/93/24 78/92/24 47/69/24
f 47/69/25 78/92/25 79/90/25 48/70/25
f 48/70/26 79/90/26 80/91/26 41/71/26
